<?xml version="1.0" encoding="UTF-8"?>
<svg version="1.1" xmlns="http://www.w3.org/2000/svg" width="225" height="225">
<path d="M0 0 C74.25 0 148.5 0 225 0 C225 74.25 225 148.5 225 225 C150.75 225 76.5 225 0 225 C0 150.75 0 76.5 0 0 Z " fill="#F2F1F0" transform="translate(0,0)"/>
<path d="M0 0 C32.34 0 64.68 0 98 0 C98 32.34 98 64.68 98 98 C65.66 98 33.32 98 0 98 C0 65.66 0 33.32 0 0 Z " fill="#07A6F0" transform="translate(10,117)"/>
<path d="M0 0 C32.34 0 64.68 0 98 0 C98 32.34 98 64.68 98 98 C65.66 98 33.32 98 0 98 C0 65.66 0 33.32 0 0 Z " fill="#81BC08" transform="translate(117,10)"/>
<path d="M0 0 C32.34 0 64.68 0 98 0 C98 32.34 98 64.68 98 98 C65.66 98 33.32 98 0 98 C0 65.66 0 33.32 0 0 Z " fill="#F35325" transform="translate(10,10)"/>
<path d="M0 0 C32.01 0 64.02 0 97 0 C97 32.01 97 64.02 97 97 C64.99 97 32.98 97 0 97 C0 64.99 0 32.98 0 0 Z " fill="#FFB907" transform="translate(118,118)"/>
</svg>
