<?xml version="1.0" encoding="UTF-8"?>
<svg version="1.1" xmlns="http://www.w3.org/2000/svg" width="225" height="225">
<path d="M0 0 C74.25 0 148.5 0 225 0 C225 74.25 225 148.5 225 225 C150.75 225 76.5 225 0 225 C0 150.75 0 76.5 0 0 Z " fill="#FDFDFD" transform="translate(0,0)"/>
<path d="M0 0 C0.28875 0.61875 0.5775 1.2375 0.875 1.875 C2.54128863 5.02243407 4.75646425 5.74230246 8 7 C8.99 6.67 9.98 6.34 11 6 C11.4640625 5.01 11.4640625 5.01 11.9375 4 C13 2 13 2 15 1.125 C15.66 1.08375 16.32 1.0425 17 1 C17.99 1.99 17.99 1.99 19 3 C21.06874034 3.6425235 21.06874034 3.6425235 23 4 C23 4.66 23 5.32 23 6 C23.66 6 24.32 6 25 6 C24.67 7.65 24.34 9.3 24 11 C23.01 11.33 22.02 11.66 21 12 C21 12.99 21 13.98 21 15 C24.65079826 16.61064629 28.0507432 17.44894091 32 18 C32.99 16.515 32.99 16.515 34 15 C34.66 15 35.32 15 36 15 C36 14.34 36 13.68 36 13 C40.75 13.875 40.75 13.875 43 15 C43 15.66 43 16.32 43 17 C44.32 17.33 45.64 17.66 47 18 C47 18.99 47 19.98 47 21 C46.34 21 45.68 21 45 21 C44.34 22.65 43.68 24.3 43 26 C39.04 25.67 35.08 25.34 31 25 C30.01 26.65 29.02 28.3 28 30 C28.99 30.99 28.99 30.99 30 32 C29.01 32.99 28.02 33.98 27 35 C27.66 35.66 28.32 36.32 29 37 C28.505 37.99 28.505 37.99 28 39 C29.32 38.67 30.64 38.34 32 38 C33 41 33 41 31.83984375 43.4765625 C31.21207031 44.51554687 30.58429688 45.55453125 29.9375 46.625 C29.19362554 47.88051244 28.45159006 49.13711545 27.7109375 50.39453125 C27.28651367 51.1107666 26.86208984 51.82700195 26.42480469 52.56494141 C23.57065562 57.44281714 20.82256281 62.38098528 18.0625 67.3125 C17.46026611 68.38701416 16.85803223 69.46152832 16.23754883 70.56860352 C11.35391607 79.30811847 6.61827527 88.11776157 2 97 C0.35 96.34 -1.3 95.68 -3 95 C-4.32 100.61 -5.64 106.22 -7 112 C-12 111 -12 111 -15 110 C-15 109.34 -15 108.68 -15 108 C-16.093125 107.773125 -17.18625 107.54625 -18.3125 107.3125 C-22.83794576 106.18312689 -26.86809759 104.34117998 -31.07421875 102.3515625 C-34.03586048 100.98343428 -37.03170478 99.76859309 -40.0625 98.5625 C-43.92596643 96.97837944 -47.41035983 95.2315725 -50.9375 93 C-55.57248566 90.09668625 -60.30918423 88.28744046 -65.43359375 86.41796875 C-70.18915335 84.52720409 -74.68239037 82.22145092 -79.23291016 79.88916016 C-84.37338852 77.2692879 -89.57700227 74.98147994 -95 73 C-95.16548224 68.79675115 -94.76353746 65.6085889 -93.3203125 61.6640625 C-92.96839844 60.68179688 -92.61648437 59.69953125 -92.25390625 58.6875 C-91.88136719 57.676875 -91.50882813 56.66625 -91.125 55.625 C-88.7575119 49.11649916 -86.6150434 42.73415418 -85 36 C-84.32461501 33.98863449 -83.61998897 31.98663725 -82.875 30 C-82.52179688 29.05125 -82.16859375 28.1025 -81.8046875 27.125 C-81.53914063 26.42375 -81.27359375 25.7225 -81 25 C-80.34 25 -79.68 25 -79 25 C-76 30.75 -76 30.75 -76 33 C-75.34 33 -74.68 33 -74 33 C-73.69707031 33.56847656 -73.39414063 34.13695312 -73.08203125 34.72265625 C-71.04023328 38.48584698 -68.99886553 42.12613382 -66.4375 45.5625 C-64.23717125 48.5373993 -62.63819996 51.60094188 -61.046875 54.93359375 C-59.2726911 58.43562094 -57.13527507 61.70957612 -55 65 C-54.16855469 64.7834375 -53.33710937 64.566875 -52.48046875 64.34375 C-51.39378906 64.0653125 -50.30710938 63.786875 -49.1875 63.5 C-48.10855469 63.2215625 -47.02960938 62.943125 -45.91796875 62.65625 C-43 62 -43 62 -40 62 C-39.5625 63.60416667 -39.125 65.20833333 -38.6875 66.8125 C-38.41292969 67.81539063 -38.13835937 68.81828125 -37.85546875 69.8515625 C-37.30838636 71.86502553 -36.76860303 73.88049515 -36.23828125 75.8984375 C-34.95962757 80.72890695 -33.52690818 85.36134346 -31.6953125 90.0078125 C-30.44682059 93.58495224 -29.73038474 97.28792696 -29 101 C-28.34 101 -27.68 101 -27 101 C-27 100.34 -27 99.68 -27 99 C-26.34 99 -25.68 99 -25 99 C-24.690625 98.38125 -24.38125 97.7625 -24.0625 97.125 C-23.375 95.75 -22.6875 94.375 -22 93 C-20.515 93.495 -20.515 93.495 -19 94 C-17.8125 96.5625 -17.8125 96.5625 -17 99 C-16.01 98.34 -15.02 97.68 -14 97 C-14.165 96.4225 -14.33 95.845 -14.5 95.25 C-15 93 -15 93 -15 89 C-11.7 88.01 -8.4 87.02 -5 86 C-5 85.34 -5 84.68 -5 84 C-5.721875 83.731875 -6.44375 83.46375 -7.1875 83.1875 C-9.99766383 82.00098638 -12.48416557 80.72514361 -15 79 C-15 78.34 -15 77.68 -15 77 C-15.72574219 76.731875 -16.45148438 76.46375 -17.19921875 76.1875 C-19.96864024 75.01329619 -22.30919434 73.6605676 -24.8125 72 C-25.60269531 71.484375 -26.39289063 70.96875 -27.20703125 70.4375 C-27.79871094 69.963125 -28.39039062 69.48875 -29 69 C-29 68.34 -29 67.68 -29 67 C-29.928125 66.7525 -30.85625 66.505 -31.8125 66.25 C-35.16458325 64.93545755 -36.1877803 64.02036616 -38 61 C-35.30627247 58.30627247 -32.93955989 58.05121732 -29.25 57.125 C-27.89944115 56.77981135 -26.54918778 56.43342566 -25.19921875 56.0859375 C-24.161604 55.82055176 -24.161604 55.82055176 -23.10302734 55.54980469 C-17.70645663 54.13895291 -12.35729497 52.55188206 -7 51 C-8.65 50.67 -10.3 50.34 -12 50 C-12 49.34 -12 48.68 -12 48 C-11.34 47.67 -10.68 47.34 -10 47 C-14.22951768 48.24881429 -18.45854655 49.49927648 -22.6875 50.75 C-23.86634766 51.09804687 -25.04519531 51.44609375 -26.25976562 51.8046875 C-27.43603516 52.15273437 -28.61230469 52.50078125 -29.82421875 52.859375 C-31.00806152 53.20935547 -32.1919043 53.55933594 -33.41162109 53.91992188 C-38.04853895 55.31560323 -42.66069779 56.78651272 -47.26879883 58.27441406 C-50 59 -50 59 -54 59 C-57 53.25 -57 53.25 -57 51 C-57.66 51 -58.32 51 -59 51 C-59.37705078 49.95779297 -59.37705078 49.95779297 -59.76171875 48.89453125 C-61.16974523 45.60321382 -62.91239557 42.72112752 -64.8125 39.6875 C-65.34327148 38.83418091 -65.34327148 38.83418091 -65.88476562 37.96362305 C-67.4523872 35.44693367 -69.03724513 32.94186559 -70.63671875 30.4453125 C-74 25.18356017 -74 25.18356017 -74 23 C-72.20793453 23.14084796 -70.41635083 23.28783701 -68.625 23.4375 C-67.12839844 23.55931641 -67.12839844 23.55931641 -65.6015625 23.68359375 C-63 24 -63 24 -61 25 C-57.6709041 25.75182653 -57.6709041 25.75182653 -54 25 C-50.44659043 21.6902048 -48.1783595 17.38152366 -45.8125 13.1875 C-44.31233881 10.54928549 -43.151729 9.01838241 -41 7 C-38.61864208 15.30706251 -36.40871438 23.31481952 -36 32 C-34.68 32 -33.36 32 -32 32 C-32.22719727 30.88757935 -32.22719727 30.88757935 -32.45898438 29.75268555 C-33.1423337 26.39822883 -33.82121815 23.0428838 -34.5 19.6875 C-34.73847656 18.52025391 -34.97695312 17.35300781 -35.22265625 16.15039062 C-35.44824219 15.03212891 -35.67382812 13.91386719 -35.90625 12.76171875 C-36.11572266 11.73006592 -36.32519531 10.69841309 -36.54101562 9.63549805 C-37 7 -37 7 -37 4 C-33.5194288 5.32754049 -30.27959901 6.85160435 -27.015625 8.64453125 C-26.07976562 9.15693359 -25.14390625 9.66933594 -24.1796875 10.19726562 C-23.21289062 10.73029297 -22.24609375 11.26332031 -21.25 11.8125 C-20.29867187 12.33392578 -19.34734375 12.85535156 -18.3671875 13.39257812 C-12.56687637 16.57480361 -6.77990099 19.78087141 -1 23 C-1.495 19.535 -1.495 19.535 -2 16 C-3.175625 15.5359375 -3.175625 15.5359375 -4.375 15.0625 C-7 14 -7 14 -9 13 C-8.85915204 11.20793453 -8.71216299 9.41635083 -8.5625 7.625 C-8.44068359 6.12839844 -8.44068359 6.12839844 -8.31640625 4.6015625 C-8 2 -8 2 -7 0 C-3.87438528 -1.04187157 -2.95319818 -1.23843794 0 0 Z " fill="#F3F9F8" transform="translate(127,23)"/>
<path d="M0 0 C0.66 0 1.32 0 2 0 C5 5.75 5 5.75 5 8 C5.66 8 6.32 8 7 8 C7.45439453 8.85271484 7.45439453 8.85271484 7.91796875 9.72265625 C9.95976672 13.48584698 12.00113447 17.12613382 14.5625 20.5625 C16.76282875 23.5373993 18.36180004 26.60094188 19.953125 29.93359375 C21.7273089 33.43562094 23.86472493 36.70957612 26 40 C26.83144531 39.7834375 27.66289063 39.566875 28.51953125 39.34375 C29.60621094 39.0653125 30.69289062 38.786875 31.8125 38.5 C32.89144531 38.2215625 33.97039062 37.943125 35.08203125 37.65625 C38 37 38 37 41 37 C41.4375 38.60416667 41.875 40.20833333 42.3125 41.8125 C42.58707031 42.81539062 42.86164063 43.81828125 43.14453125 44.8515625 C43.69161364 46.86502553 44.23139697 48.88049515 44.76171875 50.8984375 C46.04037243 55.72890695 47.47309182 60.36134346 49.3046875 65.0078125 C50.55317941 68.58495224 51.26961526 72.28792696 52 76 C52.66 76 53.32 76 54 76 C54 75.34 54 74.68 54 74 C54.66 74 55.32 74 56 74 C56.309375 73.38125 56.61875 72.7625 56.9375 72.125 C57.625 70.75 58.3125 69.375 59 68 C60.485 68.495 60.485 68.495 62 69 C63.1875 71.5625 63.1875 71.5625 64 74 C64.99 73.34 65.98 72.68 67 72 C66.835 71.4225 66.67 70.845 66.5 70.25 C66 68 66 68 66 64 C69.3 63.01 72.6 62.02 76 61 C76 60.34 76 59.68 76 59 C75.278125 58.731875 74.55625 58.46375 73.8125 58.1875 C71.00233617 57.00098638 68.51583443 55.72514361 66 54 C66 53.34 66 52.68 66 52 C65.27425781 51.731875 64.54851562 51.46375 63.80078125 51.1875 C61.03135976 50.01329619 58.69080566 48.6605676 56.1875 47 C55.39730469 46.484375 54.60710937 45.96875 53.79296875 45.4375 C53.20128906 44.963125 52.60960938 44.48875 52 44 C52 43.34 52 42.68 52 42 C51.071875 41.7525 50.14375 41.505 49.1875 41.25 C45.83541675 39.93545755 44.8122197 39.02036616 43 36 C45.64404462 33.35595538 47.80614857 33.14122511 51.4375 32.25 C57.6444025 30.6850804 63.72509334 28.85238417 69.8125 26.875 C76.16980447 24.82061358 82.39240504 23.08321229 89 22 C88.28784747 27.53401866 87.21753929 32.9313642 86 38.375 C85.82210937 39.19355469 85.64421875 40.01210937 85.4609375 40.85546875 C84.12276786 46.87723214 84.12276786 46.87723214 83 48 C82.52476138 50.35197711 82.09446925 52.69855626 81.6875 55.0625 C79.74833599 65.87061375 77.05390156 76.45385996 74 87 C71.23723823 86.47731534 68.6739124 85.89130413 66 85 C66 84.34 66 83.68 66 83 C64.906875 82.773125 63.81375 82.54625 62.6875 82.3125 C58.16205424 81.18312689 54.13190241 79.34117998 49.92578125 77.3515625 C46.96413952 75.98343428 43.96829522 74.76859309 40.9375 73.5625 C37.07403357 71.97837944 33.58964017 70.2315725 30.0625 68 C25.42751434 65.09668625 20.69081577 63.28744046 15.56640625 61.41796875 C10.81084665 59.52720409 6.31760963 57.22145092 1.76708984 54.88916016 C-3.37338852 52.2692879 -8.57700227 49.98147994 -14 48 C-14.16548224 43.79675115 -13.76353746 40.6085889 -12.3203125 36.6640625 C-11.96839844 35.68179688 -11.61648437 34.69953125 -11.25390625 33.6875 C-10.88136719 32.676875 -10.50882813 31.66625 -10.125 30.625 C-7.7575119 24.11649916 -5.6150434 17.73415418 -4 11 C-3.32461501 8.98863449 -2.61998897 6.98663725 -1.875 5 C-1.52179687 4.05125 -1.16859375 3.1025 -0.8046875 2.125 C-0.53914063 1.42375 -0.27359375 0.7225 0 0 Z " fill="#B6D12E" transform="translate(46,48)"/>
<path d="M0 0 C4.95 0 9.9 0 15 0 C20.33333333 10.66666667 25.66666667 21.33333333 31 32 C31.38333496 31.17274414 31.76666992 30.34548828 32.16162109 29.49316406 C33.58871609 26.41416661 35.01634613 23.33541843 36.44433594 20.25683594 C37.0614116 18.92620584 37.67827594 17.59547773 38.29492188 16.26464844 C39.18303324 14.34804682 40.07191242 12.43180292 40.9609375 10.515625 C41.49509277 9.36352539 42.02924805 8.21142578 42.57958984 7.02441406 C43.68668002 4.66713784 44.8353198 2.3293604 46 0 C50.95 0 55.9 0 61 0 C61 15.51 61 31.02 61 47 C56.71 47 52.42 47 48 47 C47.67 40.4 47.34 33.8 47 27 C44.03 33.6 41.06 40.2 38 47 C33.38 47 28.76 47 24 47 C22.87247351 44.77208002 21.74791861 42.54274113 20.625 40.3125 C20.30789062 39.68666016 19.99078125 39.06082031 19.6640625 38.41601562 C17.93608683 34.97806402 16.43270907 31.58177266 15 28 C14.67 34.27 14.34 40.54 14 47 C9.38 47 4.76 47 0 47 C0 31.49 0 15.98 0 0 Z " fill="#424243" transform="translate(59,157)"/>
<path d="M0 0 C4.95 -0.04125 9.9 -0.0825 15 -0.125 C16.54558594 -0.14320801 18.09117187 -0.16141602 19.68359375 -0.18017578 C37.55239051 -0.25222738 37.55239051 -0.25222738 44 6 C45.46343456 8.92686912 45.1704426 11.55453613 45.1875 14.8125 C45.20167969 16.03582031 45.21585938 17.25914062 45.23046875 18.51953125 C44.85923799 24.12574495 44.85923799 24.12574495 43 27 C37.1861752 31.51587191 31.07570373 31.50374938 24 31.25 C22.55173828 31.22292969 22.55173828 31.22292969 21.07421875 31.1953125 C18.71570963 31.14860935 16.3577183 31.07688212 14 31 C14 36.28 14 41.56 14 47 C9.38 47 4.76 47 0 47 C0 31.49 0 15.98 0 0 Z " fill="#3F3F41" transform="translate(171,157)"/>
<path d="M0 0 C2.24885942 2.24885942 2.44262569 3.17422091 3.0703125 6.2109375 C3.24433594 7.04367188 3.41835937 7.87640625 3.59765625 8.734375 C3.77167969 9.60578125 3.94570312 10.4771875 4.125 11.375 C4.30675781 12.23867188 4.48851562 13.10234375 4.67578125 13.9921875 C5.45673264 17.79712358 6 21.08765 6 25 C6.76183594 25.03738281 7.52367187 25.07476562 8.30859375 25.11328125 C14.02468837 25.47722735 19.02026261 26.1117002 24.3828125 28.10546875 C27.9164292 29.31322729 31.5037765 30.21969412 35.125 31.125 C35.7943457 31.29555908 36.46369141 31.46611816 37.15332031 31.6418457 C41.42767056 32.70199843 45.63930768 33.4450028 50 34 C50 34.33 50 34.66 50 35 C49.3709375 35.10957031 48.741875 35.21914062 48.09375 35.33203125 C47.2378125 35.49058594 46.381875 35.64914063 45.5 35.8125 C44.6646875 35.96332031 43.829375 36.11414063 42.96875 36.26953125 C40.00485863 36.99880452 37.25305229 38.02963923 34.40966797 39.12817383 C29.29208114 40.97973437 24.03571834 42.41659616 18.8125 43.9375 C16.50630478 44.61257914 14.20031455 45.28835899 11.89453125 45.96484375 C10.76096191 46.29597168 9.62739258 46.62709961 8.45947266 46.96826172 C3.86875827 48.33737668 -0.69282321 49.79493463 -5.2512207 51.26782227 C-8 52 -8 52 -12 52 C-15 46.25 -15 46.25 -15 44 C-15.66 44 -16.32 44 -17 44 C-17.25136719 43.30519531 -17.50273438 42.61039063 -17.76171875 41.89453125 C-19.16974523 38.60321382 -20.91239557 35.72112752 -22.8125 32.6875 C-23.16634766 32.11862061 -23.52019531 31.54974121 -23.88476562 30.96362305 C-25.4523872 28.44693367 -27.03724513 25.94186559 -28.63671875 23.4453125 C-32 18.18356017 -32 18.18356017 -32 16 C-30.20793453 16.14084796 -28.41635083 16.28783701 -26.625 16.4375 C-25.12839844 16.55931641 -25.12839844 16.55931641 -23.6015625 16.68359375 C-21 17 -21 17 -19 18 C-15.6709041 18.75182653 -15.6709041 18.75182653 -12 18 C-7.621021 13.92123469 -4.85318942 8.19688073 -2 3 C-1.34 2.01 -0.68 1.02 0 0 Z " fill="#B6D130" transform="translate(85,30)"/>
<path d="M0 0 C1.14533203 -0.00708984 2.29066406 -0.01417969 3.47070312 -0.02148438 C9.71403729 0.02545799 14.42905813 0.4234469 19.9375 3.4375 C18.9475 6.4075 17.9575 9.3775 16.9375 12.4375 C15.803125 12.2725 14.66875 12.1075 13.5 11.9375 C6.01611282 11.08322992 -1.54265007 11.35979776 -9.0625 11.4375 C-9.7225 13.0875 -10.3825 14.7375 -11.0625 16.4375 C-10.34707031 16.54707031 -9.63164062 16.65664062 -8.89453125 16.76953125 C-5.61066375 17.29206127 -2.33675261 17.8577604 0.9375 18.4375 C2.07445313 18.63214844 3.21140625 18.82679688 4.3828125 19.02734375 C11.27376433 20.37835403 16.33454039 21.92929166 20.9375 27.4375 C22.53855604 30.63961208 22.29418408 33.95496635 21.9375 37.4375 C20.6204442 41.11139249 19.63399919 42.91959035 16.5 45.25 C10.27608612 48.13425278 3.99566447 47.62127105 -2.75 47.625 C-3.89662109 47.63724609 -5.04324219 47.64949219 -6.22460938 47.66210938 C-12.8344529 47.67345999 -18.67588358 47.15828163 -25.0625 45.4375 C-26.15034335 42.12354014 -26.13512544 41.60169665 -24.625 38.1875 C-23.8515625 36.82625 -23.8515625 36.82625 -23.0625 35.4375 C-21.17724609 35.68306641 -21.17724609 35.68306641 -19.25390625 35.93359375 C-13.82611366 36.53668182 -8.45529662 36.54935202 -3 36.5 C-1.55850586 36.49323242 -1.55850586 36.49323242 -0.08789062 36.48632812 C2.25397422 36.47467706 4.59570181 36.45832025 6.9375 36.4375 C7.2675 34.7875 7.5975 33.1375 7.9375 31.4375 C7.13828125 31.32792969 6.3390625 31.21835938 5.515625 31.10546875 C-16.98105434 27.8577087 -16.98105434 27.8577087 -22.0625 22.4375 C-24.90951905 18.16697143 -24.55201706 14.44501877 -24.0625 9.4375 C-22.50698671 4.96539929 -19.78947667 3.31788865 -15.59033203 1.28417969 C-10.52277959 -0.41316162 -5.28816319 -0.09256525 0 0 Z " fill="#424243" transform="translate(35.0625,156.5625)"/>
<path d="M0 0 C2.31 0 4.62 0 7 0 C7.33 0.66 7.66 1.32 8 2 C5.69 1.67 3.38 1.34 1 1 C2.37209556 3.31426785 3.74706976 5.62670743 5.125 7.9375 C5.73589478 8.96387573 5.73589478 8.96387573 6.35913086 10.01098633 C9.06651754 14.52970169 11.90230603 18.90642048 15.00390625 23.16796875 C16 25 16 25 16 29 C16.66 29 17.32 29 18 29 C21 34.75 21 34.75 21 37 C22.50775694 36.56005333 24.01540742 36.11974029 25.52270508 35.67822266 C26.95452434 35.25886971 28.38666681 34.84061909 29.8190918 34.42333984 C34.44190421 33.06947955 39.05217466 31.68047229 43.6529541 30.25334167 C46.35817839 29.41501632 49.0657331 28.58434964 51.77337646 27.75387573 C53.13131283 27.33508147 54.48813654 26.91266202 55.84381104 26.48660278 C57.77451393 25.88028853 59.7094656 25.28755535 61.64453125 24.6953125 C62.77221924 24.34484863 63.89990723 23.99438477 65.06176758 23.63330078 C68 23 68 23 72 24 C69.03 24.66 66.06 25.32 63 26 C63 26.66 63 27.32 63 28 C65.64 28 68.28 28 71 28 C68.430212 29.713192 67.01833417 30.41321839 64.15625 31.18359375 C63.40907715 31.38766846 62.6619043 31.59174316 61.89208984 31.80200195 C61.1027002 32.01171631 60.31331055 32.22143066 59.5 32.4375 C58.69643066 32.65559326 57.89286133 32.87368652 57.06494141 33.09838867 C55.45699851 33.5343507 53.84844443 33.96806539 52.23925781 34.39941406 C49.28146591 35.1927163 46.32834859 36.00283524 43.375 36.8125 C41.91679326 37.20879943 40.45851881 37.60485063 39 38 C39 38.99 39 39.98 39 41 C41.31 42.32 43.62 43.64 46 45 C46 45.66 46 46.32 46 47 C46.55171875 47.268125 47.1034375 47.53625 47.671875 47.8125 C50.25088039 49.12796584 52.75082068 50.53849162 55.25 52 C56.14203125 52.515625 57.0340625 53.03125 57.953125 53.5625 C58.62859375 54.036875 59.3040625 54.51125 60 55 C60 55.66 60 56.32 60 57 C60.721875 57.268125 61.44375 57.53625 62.1875 57.8125 C64.99766383 58.99901362 67.48416557 60.27485639 70 62 C70 62.66 70 63.32 70 64 C66.7 65.32 63.4 66.64 60 68 C60.66 69.32 61.32 70.64 62 72 C61.8125 74.1875 61.8125 74.1875 61 76 C60.01 76.33 59.02 76.66 58 77 C57.54625 76.195625 57.0925 75.39125 56.625 74.5625 C55.25274335 71.91143428 55.25274335 71.91143428 53 71 C52.690625 71.61875 52.38125 72.2375 52.0625 72.875 C51.375 74.25 50.6875 75.625 50 77 C49.34 77 48.68 77 48 77 C48 77.66 48 78.32 48 79 C47.34 79 46.68 79 46 79 C43.82518007 72.59000441 41.78304654 66.14590004 39.80200195 59.67382812 C38.92589583 56.83763775 38.02469091 54.05951809 36.88671875 51.31640625 C35.95485741 48.88207243 35.60689349 46.77697735 35.375 44.1875 C35.30023438 43.39730469 35.22546875 42.60710937 35.1484375 41.79296875 C35.09945312 41.20128906 35.05046875 40.60960937 35 40 C34.10796875 40.31195313 33.2159375 40.62390625 32.296875 40.9453125 C31.12640625 41.33460937 29.9559375 41.72390625 28.75 42.125 C27.00976562 42.71667969 27.00976562 42.71667969 25.234375 43.3203125 C22 44 22 44 19.79296875 43.46484375 C17.32028599 41.44467809 16.10559064 39.22789254 14.5625 36.4375 C13.95792969 35.35855469 13.35335937 34.27960938 12.73046875 33.16796875 C12.15941406 32.12253906 11.58835937 31.07710937 11 30 C10.12564554 28.41631009 9.25072388 26.83293308 8.375 25.25 C7.79298828 24.18845703 7.79298828 24.18845703 7.19921875 23.10546875 C5.54885956 20.20793258 3.74776934 17.41583331 1.91796875 14.62890625 C1 13 1 13 1 11 C0.34 11 -0.32 11 -1 11 C-1.66 9.02 -2.32 7.04 -3 5 C-2.34 5 -1.68 5 -1 5 C-0.67 3.35 -0.34 1.7 0 0 Z " fill="#F4F9D2" transform="translate(52,45)"/>
<path d="M0 0 C15.51 0 31.02 0 47 0 C47 8 47 8 46 10 C40.72 10 35.44 10 30 10 C30 22.21 30 34.42 30 47 C25.38 47 20.76 47 16 47 C16 34.79 16 22.58 16 10 C10.72 10 5.44 10 0 10 C0 6.7 0 3.4 0 0 Z " fill="#424144" transform="translate(122,157)"/>
<path d="M0 0 C3.29548379 1.26562529 6.39549831 2.67039341 9.4921875 4.36328125 C10.35070312 4.8315332 11.20921875 5.29978516 12.09375 5.78222656 C13.0115625 6.2872168 13.929375 6.79220703 14.875 7.3125 C16.31746094 8.10285645 16.31746094 8.10285645 17.7890625 8.90917969 C33.29169831 17.42860098 48.65641324 26.19804641 64 35 C64 35.33 64 35.66 64 36 C47.87913352 40.10531382 30.35789214 36.46565236 15.1875 30.61328125 C11.83635465 29.67376371 8.45708214 29.38532061 5 29 C4.16214152 24.73004144 3.33048723 20.45889784 2.5 16.1875 C2.26152344 14.97255859 2.02304688 13.75761719 1.77734375 12.50585938 C1.55175781 11.34248047 1.32617188 10.17910156 1.09375 8.98046875 C0.88427734 7.90692139 0.67480469 6.83337402 0.45898438 5.72729492 C0 3 0 3 0 0 Z " fill="#5F93C4" transform="translate(90,27)"/>
<path d="M0 0 C-1.35079136 3.54289644 -2.91262238 6.8453067 -4.72265625 10.17578125 C-5.25705322 11.16126953 -5.7914502 12.14675781 -6.34204102 13.16210938 C-6.90979248 14.20173828 -7.47754395 15.24136719 -8.0625 16.3125 C-8.93442993 17.91641602 -8.93442993 17.91641602 -9.82397461 19.55273438 C-13.52468014 26.34459344 -17.2644481 33.11304974 -21.10766602 39.82543945 C-23.56925397 44.14460056 -25.80499203 48.54154282 -28 53 C-29.32 52.34 -30.64 51.68 -32 51 C-30.76130813 34.14727118 -30.76130813 34.14727118 -28.09375 26.3515625 C-26.26708065 20.75412571 -25.08011145 14.99588067 -23.76757812 9.25976562 C-23.55423828 8.34259766 -23.34089844 7.42542969 -23.12109375 6.48046875 C-22.9295874 5.64410889 -22.73808105 4.80774902 -22.54077148 3.94604492 C-22 2 -22 2 -21 1 C-14.0260994 0.17050521 -7.01832601 -0.13761424 0 0 Z " fill="#5D93C5" transform="translate(157,67)"/>
<path d="M0 0 C4.26837643 -0.04982839 8.536594 -0.08592015 12.80517578 -0.10986328 C14.25409906 -0.11985586 15.70300251 -0.13345453 17.15185547 -0.15087891 C37.4121179 -0.38824931 37.4121179 -0.38824931 44 6 C45.50156874 9.00313748 45.09281204 11.79067522 45.0625 15.125 C45.05347656 16.40632813 45.04445312 17.68765625 45.03515625 19.0078125 C45.02355469 19.99523437 45.01195312 20.98265625 45 22 C41.87438528 23.04187157 40.95319818 23.23843794 38 22 C36.75 19.9375 36.75 19.9375 36 18 C35.01 18 34.02 18 33 18 C33 18.99 33 19.98 33 21 C26.66666667 21 20.33333333 21 14 21 C14 17.37 14 13.74 14 10 C14.66 9.67 15.32 9.34 16 9 C16 8.01 16 7.02 16 6 C16 4.68 16 3.36 16 2 C10.72 1.67 5.44 1.34 0 1 C0 0.67 0 0.34 0 0 Z " fill="#444445" transform="translate(171,157)"/>
<path d="M0 0 C0.33 0 0.66 0 1 0 C1.17232763 5.55756613 0.69503735 10.14360994 -0.75 15.5625 C-1.01635254 16.57763672 -1.01635254 16.57763672 -1.28808594 17.61328125 C-1.84956762 19.74474072 -2.42449908 21.87228813 -3 24 C-3.38631744 25.45679268 -3.77174223 26.91382238 -4.15625 28.37109375 C-5.09387738 31.91685775 -6.04359046 35.45924978 -7 39 C-9.76276177 38.47731534 -12.3260876 37.89130413 -15 37 C-15 36.34 -15 35.68 -15 35 C-16.093125 34.773125 -17.18625 34.54625 -18.3125 34.3125 C-22.83112669 33.18482866 -26.85567657 31.34776458 -31.0546875 29.359375 C-35.06251157 27.50961004 -39.16112764 25.91028856 -43.2734375 24.30859375 C-46.23773923 22.88589879 -48.51389845 21.13804734 -51 19 C-48.8535247 19.11344376 -46.70779408 19.24106345 -44.5625 19.375 C-42.77005859 19.47941406 -42.77005859 19.47941406 -40.94140625 19.5859375 C-39.97074219 19.72257812 -39.00007813 19.85921875 -38 20 C-37.67 20.66 -37.34 21.32 -37 22 C-36.34 18.37 -35.68 14.74 -35 11 C-34.34 11.33 -33.68 11.66 -33 12 C-32.19954337 14.69058598 -31.5045341 17.33218727 -30.875 20.0625 C-30.69324219 20.82111328 -30.51148437 21.57972656 -30.32421875 22.36132812 C-29.87543416 24.23913735 -29.43676664 26.11935915 -29 28 C-28.34 28 -27.68 28 -27 28 C-27 27.34 -27 26.68 -27 26 C-26.34 26 -25.68 26 -25 26 C-24.5359375 25.071875 -24.5359375 25.071875 -24.0625 24.125 C-23.375 22.75 -22.6875 21.375 -22 20 C-21.01 20.33 -20.02 20.66 -19 21 C-17.8125 23.5625 -17.8125 23.5625 -17 26 C-16.01 25.34 -15.02 24.68 -14 24 C-14.2475 23.13375 -14.2475 23.13375 -14.5 22.25 C-15 20 -15 20 -15 16 C-11.7 15.01 -8.4 14.02 -5 13 C-5 12.34 -5 11.68 -5 11 C-5.721875 10.731875 -6.44375 10.46375 -7.1875 10.1875 C-9.99766383 9.00098638 -12.48416557 7.72514361 -15 6 C-15 5.34 -15 4.68 -15 4 C-13.1875 3.375 -13.1875 3.375 -11 3 C-10.01 3.66 -9.02 4.32 -8 5 C-8 5.66 -8 6.32 -8 7 C-5.525 7.99 -5.525 7.99 -3 9 C-2.01 6.03 -1.02 3.06 0 0 Z " fill="#B3CC5D" transform="translate(127,96)"/>
<path d="M0 0 C2.4375 0.375 2.4375 0.375 5 1 C5.33 1.66 5.66 2.32 6 3 C6.804375 3.2475 7.60875 3.495 8.4375 3.75 C13.33037781 5.46679923 17.80216815 7.94703138 22 11 C22 11.66 22 12.32 22 13 C22.721875 13.268125 23.44375 13.53625 24.1875 13.8125 C26.99766383 14.99901362 29.48416557 16.27485639 32 18 C32 18.66 32 19.32 32 20 C28.7 21.32 25.4 22.64 22 24 C22.66 25.32 23.32 26.64 24 28 C23.8125 30.1875 23.8125 30.1875 23 32 C21.515 32.495 21.515 32.495 20 33 C19.319375 31.7934375 19.319375 31.7934375 18.625 30.5625 C17.25274335 27.91143428 17.25274335 27.91143428 15 27 C14.690625 27.61875 14.38125 28.2375 14.0625 28.875 C13.375 30.25 12.6875 31.625 12 33 C11.34 33 10.68 33 10 33 C10 33.66 10 34.32 10 35 C9.34 35 8.68 35 8 35 C6.0921416 31.8250906 5.8390959 29.89414789 6.375 26.25 C6.54128906 25.05117187 6.54128906 25.05117187 6.7109375 23.828125 C6.80632812 23.22484375 6.90171875 22.6215625 7 22 C6.34 22 5.68 22 5 22 C4.87625 20.9275 4.7525 19.855 4.625 18.75 C4.23301815 15.21596557 4.23301815 15.21596557 3.03125 13.125 C1.76873504 10.52345402 1.34964791 8.09788746 0.875 5.25 C0.70742187 4.26515625 0.53984375 3.2803125 0.3671875 2.265625 C0.24601562 1.51796875 0.12484375 0.7703125 0 0 Z " fill="#FDFDF9" transform="translate(90,89)"/>
<path d="M0 0 C3.16595501 0.56534911 6.0410416 1.76710066 9 3 C9 3.66 9 4.32 9 5 C9.66 5 10.32 5 11 5 C10.67 6.65 10.34 8.3 10 10 C9.01 10.33 8.02 10.66 7 11 C7 11.99 7 12.98 7 14 C10.65079826 15.61064629 14.0507432 16.44894091 18 17 C18.66 16.01 19.32 15.02 20 14 C20.66 14 21.32 14 22 14 C22 13.34 22 12.68 22 12 C26.75 12.875 26.75 12.875 29 14 C29 14.66 29 15.32 29 16 C30.32 16.33 31.64 16.66 33 17 C33 17.99 33 18.98 33 20 C32.34 20 31.68 20 31 20 C30.34 21.65 29.68 23.3 29 25 C23.37777778 23.21111111 23.37777778 23.21111111 20.875 21.8125 C19.02396656 20.84246832 19.02396656 20.84246832 16.9375 21.125 C14.44623634 22.25008681 13.46274809 23.73274047 12 26 C7.24518354 25.42365861 4.02951788 23.44931479 0 21 C1.33333333 18.33333333 2.66666667 15.66666667 4 13 C-0.31600836 10.01844335 -0.31600836 10.01844335 -5.25 9 C-7.49832059 10.28475462 -8.60800629 11.84240975 -10 14 C-13.73487777 13.5020163 -15.81237635 13.12508244 -19 11 C-19 10.34 -19 9.68 -19 9 C-19.66 9 -20.32 9 -21 9 C-20.63287028 6.28324005 -20.27255401 4.38936287 -18.6875 2.125 C-17 1 -17 1 -15.25 1.0625 C-13.155323 1.93528208 -11.37520679 2.95421716 -9.4375 4.125 C-7.7359375 5.053125 -7.7359375 5.053125 -6 6 C-2.89556723 5.3384196 -2.89556723 5.3384196 -1.875 3 C-1.58625 2.34 -1.2975 1.68 -1 1 C-0.67 0.67 -0.34 0.34 0 0 Z " fill="#C6D47F" transform="translate(141,24)"/>
<path d="M0 0 C0 0.66 0 1.32 0 2 C-0.78375 2.433125 -1.5675 2.86625 -2.375 3.3125 C-5.41686215 5.26798281 -5.98981901 6.60211849 -7 10 C-6.34 10 -5.68 10 -5 10 C-5 10.66 -5 11.32 -5 12 C-2.03 12.99 0.94 13.98 4 15 C4.66 13.68 5.32 12.36 6 11 C6.66 10.34 7.32 9.68 8 9 C12.50046315 9.25002573 15.41788227 11.41754304 19 14 C18.525625 14.763125 18.05125 15.52625 17.5625 16.3125 C15.89893903 18.96410548 15.89893903 18.96410548 15 22 C17.64 23.32 20.28 24.64 23 26 C19 27 19 27 16.75 26.0625 C15.88375 25.5365625 15.88375 25.5365625 15 25 C14.67 25.66 14.34 26.32 14 27 C12.06183265 26.8858134 10.12444901 26.75826577 8.1875 26.625 C7.10855469 26.55539063 6.02960938 26.48578125 4.91796875 26.4140625 C2 26 2 26 -1 24 C-1.70052461 21.336937 -1.77744818 18.75964263 -2 16 C-2.78375 15.690625 -3.5675 15.38125 -4.375 15.0625 C-7 14 -7 14 -9 13 C-8.85915204 11.20793453 -8.71216299 9.41635083 -8.5625 7.625 C-8.48128906 6.62726562 -8.40007812 5.62953125 -8.31640625 4.6015625 C-8 2 -8 2 -7 0 C-3.86650268 -1.04449911 -3.01031744 -0.93423645 0 0 Z " fill="#F9FBEC" transform="translate(127,23)"/>
<path d="M0 0 C1.09570312 0.10183594 2.19140625 0.20367188 3.3203125 0.30859375 C4.58488281 0.43427734 4.58488281 0.43427734 5.875 0.5625 C5.545 1.8825 5.215 3.2025 4.875 4.5625 C5.865 4.8925 6.855 5.2225 7.875 5.5625 C7.215 7.2125 6.555 8.8625 5.875 10.5625 C5.215 10.5625 4.555 10.5625 3.875 10.5625 C3.875 11.2225 3.875 11.8825 3.875 12.5625 C-0.9583472 12.64583357 -5.36192563 12.51511487 -10.125 11.5625 C-10.125 10.5725 -10.125 9.5825 -10.125 8.5625 C-10.785 8.5625 -11.445 8.5625 -12.125 8.5625 C-12.125 7.9025 -12.125 7.2425 -12.125 6.5625 C-12.8675 6.418125 -13.61 6.27375 -14.375 6.125 C-16.64527739 5.66062508 -18.88259479 5.14386431 -21.125 4.5625 C-21.57875 5.2225 -22.0325 5.8825 -22.5 6.5625 C-23.03625 7.2225 -23.5725 7.8825 -24.125 8.5625 C-24.785 8.5625 -25.445 8.5625 -26.125 8.5625 C-26.455 9.2225 -26.785 9.8825 -27.125 10.5625 C-29.765 8.9125 -32.405 7.2625 -35.125 5.5625 C-33.125 4.5625 -33.125 4.5625 -30.375 5.3125 C-26.89341213 5.96020921 -26.89341213 5.96020921 -24.125 3.0625 C-21.125 0.5625 -21.125 0.5625 -18 0.5625 C-15.1717346 1.54624449 -13.41723283 2.67959446 -11.125 4.5625 C-10.465 4.5625 -9.805 4.5625 -9.125 4.5625 C-9.00125 3.923125 -8.8775 3.28375 -8.75 2.625 C-8.440625 1.6040625 -8.440625 1.6040625 -8.125 0.5625 C-5.28943413 -0.85528293 -3.1341294 -0.30007622 0 0 Z " fill="#F8FBDF" transform="translate(162.125,20.4375)"/>
<path d="M0 0 C-1.36641579 3.59747227 -2.9671386 6.92958192 -4.8203125 10.30078125 C-5.35527344 11.27724609 -5.89023438 12.25371094 -6.44140625 13.25976562 C-6.99699219 14.26716797 -7.55257812 15.27457031 -8.125 16.3125 C-8.68832031 17.33923828 -9.25164062 18.36597656 -9.83203125 19.42382812 C-11.21882893 21.95062051 -12.60822835 24.47594494 -14 27 C-15.21970604 23.34088189 -14.63942883 22.56118679 -13.125 19.125 C-11.95409922 16.44748562 -11.02260304 14.12181486 -10.48828125 11.2421875 C-10.32714844 10.50226563 -10.16601562 9.76234375 -10 9 C-8.67532254 8.3162955 -7.34136367 7.65035814 -6 7 C-4.85422026 4.48217243 -4.85422026 4.48217243 -4 2 C-4.98742187 2.2165625 -5.97484375 2.433125 -6.9921875 2.65625 C-8.27351563 2.9346875 -9.55484375 3.213125 -10.875 3.5 C-12.78925781 3.91765625 -12.78925781 3.91765625 -14.7421875 4.34375 C-18 5 -18 5 -20 5 C-20.70484724 8.12146634 -21.13309566 11.19506183 -21.4375 14.375 C-21.86060707 18.44911158 -22.75598951 22.10210046 -24 26 C-24.66 26 -25.32 26 -26 26 C-25.938125 26.9075 -25.87625 27.815 -25.8125 28.75 C-25.78351726 33.46452553 -27.10544697 37.81061209 -28.34375 42.328125 C-29.11926237 45.02702038 -29.11926237 45.02702038 -29 48 C-28.01 48.33 -27.02 48.66 -26 49 C-26.66 50.32 -27.32 51.64 -28 53 C-29.32 52.34 -30.64 51.68 -32 51 C-30.76130813 34.14727118 -30.76130813 34.14727118 -28.09375 26.3515625 C-26.26708065 20.75412571 -25.08011145 14.99588067 -23.76757812 9.25976562 C-23.55423828 8.34259766 -23.34089844 7.42542969 -23.12109375 6.48046875 C-22.9295874 5.64410889 -22.73808105 4.80774902 -22.54077148 3.94604492 C-22 2 -22 2 -21 1 C-14.0260994 0.17050521 -7.01832601 -0.13761424 0 0 Z " fill="#7498A2" transform="translate(157,67)"/>
<path d="M0 0 C0.66 0 1.32 0 2 0 C5 5.75 5 5.75 5 8 C5.66 8 6.32 8 7 8 C5.63629701 10.99220268 4.05091917 13.29026529 1.875 15.75 C1.06675781 16.67039062 1.06675781 16.67039062 0.2421875 17.609375 C-0.16773438 18.06828125 -0.57765625 18.5271875 -1 19 C-1.66 18.67 -2.32 18.34 -3 18 C-3.0825 19.19625 -3.165 20.3925 -3.25 21.625 C-3.76649442 25.95443854 -5.58610286 28.37915428 -8 32 C-9.18690976 37.66064655 -8.91374529 42.31447377 -8 48 C-7.01 48.33 -6.02 48.66 -5 49 C-8.76624671 50.25541557 -10.37188934 49.37061958 -14 48 C-14.16548224 43.79675115 -13.76353746 40.6085889 -12.3203125 36.6640625 C-11.96839844 35.68179688 -11.61648437 34.69953125 -11.25390625 33.6875 C-10.88136719 32.676875 -10.50882813 31.66625 -10.125 30.625 C-7.7575119 24.11649916 -5.6150434 17.73415418 -4 11 C-3.32461501 8.98863449 -2.61998897 6.98663725 -1.875 5 C-1.52179687 4.05125 -1.16859375 3.1025 -0.8046875 2.125 C-0.53914063 1.42375 -0.27359375 0.7225 0 0 Z " fill="#BACF4A" transform="translate(46,48)"/>
<path d="M0 0 C4.14384731 4.14384731 4.7776652 11.93722471 5.19140625 17.63671875 C5.18819459 19.42561441 5.10504774 21.21418842 5 23 C-0.68099789 22.0787571 -6.33935016 21.03745006 -12 20 C-10.49555755 15.99259135 -8.69374141 13.32756292 -6 10 C-4.59679942 7.70200485 -3.30820845 5.3547752 -2 3 C-1.34 2.01 -0.68 1.02 0 0 Z " fill="#6794BD" transform="translate(85,30)"/>
<path d="M0 0 C2.45840605 -0.02691685 4.91651882 -0.04679802 7.375 -0.0625 C8.07367188 -0.07087891 8.77234375 -0.07925781 9.4921875 -0.08789062 C14.7734375 -0.11328125 14.7734375 -0.11328125 17 1 C17.1953125 7.0546875 17.1953125 7.0546875 17 9 C15 11 15 11 11.5234375 11.1953125 C10.14049032 11.18201493 8.75761346 11.15816232 7.375 11.125 C6.66859375 11.11597656 5.9621875 11.10695312 5.234375 11.09765625 C3.48943902 11.07407603 1.74467705 11.03820461 0 11 C0 7.37 0 3.74 0 0 Z " fill="#F4F4F5" transform="translate(185,167)"/>
<path d="M0 0 C0.66 0 1.32 0 2 0 C1.67 1.051875 1.34 2.10375 1 3.1875 C0.16033218 6.38873357 -0.19750904 8.7411008 0 12 C-2.31 11.34 -4.62 10.68 -7 10 C-7 10.66 -7 11.32 -7 12 C-7.66 12 -8.32 12 -9 12 C-9.66 13.32 -10.32 14.64 -11 16 C-15.34159496 15.49516338 -18.49408652 14.68099266 -22 12 C-22 9 -22 9 -20.8125 7.375 C-17.82952228 5.11205138 -14.99087225 4.87415199 -11.32421875 5.33984375 C-10.01904297 5.63568359 -10.01904297 5.63568359 -8.6875 5.9375 C-7.80449219 6.13214844 -6.92148438 6.32679687 -6.01171875 6.52734375 C-5.01591797 6.76130859 -5.01591797 6.76130859 -4 7 C-4 6.34 -4 5.68 -4 5 C-3.34 5 -2.68 5 -2 5 C-1.34 3.35 -0.68 1.7 0 0 Z " fill="#FBFDED" transform="translate(170,26)"/>
<path d="M0 0 C-0.30836232 2.12560437 -0.62181614 4.25047065 -0.9375 6.375 C-1.11152344 7.55835937 -1.28554687 8.74171875 -1.46484375 9.9609375 C-2 13 -2 13 -3 15 C-3.66 15 -4.32 15 -5 15 C-4.67 16.65 -4.34 18.3 -4 20 C-5.625 20.6875 -5.625 20.6875 -8 21 C-11.25 19.5625 -11.25 19.5625 -14 18 C-13.505 16.515 -13.505 16.515 -13 15 C-12.34 14.67 -11.68 14.34 -11 14 C-10.26924352 11.6859378 -9.59861742 9.35171131 -9 7 C-8.34 7 -7.68 7 -7 7 C-7 6.34 -7 5.68 -7 5 C-7.99 5 -8.98 5 -10 5 C-9.67 4.01 -9.34 3.02 -9 2 C-5.82757352 0.68964993 -3.44118336 0 0 0 Z " fill="#B6D12C" transform="translate(124,110)"/>
<path d="M0 0 C0.66 0.33 1.32 0.66 2 1 C2.80045663 3.69058598 3.4954659 6.33218727 4.125 9.0625 C4.30675781 9.82111328 4.48851563 10.57972656 4.67578125 11.36132812 C5.12456584 13.23913735 5.56323336 15.11935915 6 17 C6.66 17 7.32 17 8 17 C8.33 16.34 8.66 15.68 9 15 C9 16.65 9 18.3 9 20 C4.4648083 18.84397074 0.97092478 17.4212956 -3 15 C-4.96498237 14.26062013 -6.93828135 13.58228481 -8.9375 12.94140625 C-11.65652994 11.70033387 -13.72707207 9.92172899 -16 8 C-13.8535247 8.11344376 -11.70779408 8.24106345 -9.5625 8.375 C-7.77005859 8.47941406 -7.77005859 8.47941406 -5.94140625 8.5859375 C-4.48541016 8.79089844 -4.48541016 8.79089844 -3 9 C-2.67 9.66 -2.34 10.32 -2 11 C-1.34 7.37 -0.68 3.74 0 0 Z " fill="#BAD04A" transform="translate(92,107)"/>
<path d="M0 0 C0.99 0.33 1.98 0.66 3 1 C4.1875 3.5625 4.1875 3.5625 5 6 C6.32 5.67 7.64 5.34 9 5 C8.43628586 8.26954202 7.50037734 9.82575883 5 12 C5.86625 12.1546875 5.86625 12.1546875 6.75 12.3125 C9.32049158 13.09792798 10.93657284 14.30504197 13 16 C7.16747046 16.61395048 2.08592421 14.73505636 -3 12 C-3.66 11.01 -4.32 10.02 -5 9 C-3.46395304 5.85808576 -1.94268841 2.91403262 0 0 Z " fill="#B7CF3A" transform="translate(105,116)"/>
<path d="M0 0 C4.75 0.875 4.75 0.875 7 2 C7 2.66 7 3.32 7 4 C8.32 4.33 9.64 4.66 11 5 C11 5.99 11 6.98 11 8 C10.34 8 9.68 8 9 8 C8.34 9.65 7.68 11.3 7 13 C1.31497465 11.35433477 -3.76681636 8.70967216 -9 6 C-7 5 -7 5 -4.9375 4.5625 C-3.9784375 4.2840625 -3.9784375 4.2840625 -3 4 C-2.67 3.34 -2.34 2.68 -2 2 C-1.34 2 -0.68 2 0 2 C0 1.34 0 0.68 0 0 Z " fill="#C9D687" transform="translate(163,36)"/>
<path d="M0 0 C0 1.32 0 2.64 0 4 C2.64 3.67 5.28 3.34 8 3 C8.20625 3.598125 8.4125 4.19625 8.625 4.8125 C10.50926082 7.81018767 12.81132084 8.61361776 16 10 C16 10.66 16 11.32 16 12 C16.66 12.33 17.32 12.66 18 13 C15.5625 12.625 15.5625 12.625 13 12 C12.67 11.34 12.34 10.68 12 10 C9.97536745 9.34786708 9.97536745 9.34786708 8 9 C8.28875 9.639375 8.5775 10.27875 8.875 10.9375 C10.10888513 14.29640953 10.83356102 17.60719714 11.53515625 21.109375 C11.8268275 22.9994375 11.8268275 22.9994375 13 24 C13.04092937 26.33297433 13.04241723 28.66705225 13 31 C13.66 31 14.32 31 15 31 C15 32.32 15 33.64 15 35 C14.34 35 13.68 35 13 35 C12.66226563 33.90300781 12.32453125 32.80601563 11.9765625 31.67578125 C11.52614898 30.22132093 11.07562216 28.76689569 10.625 27.3125 C10.40328125 26.59126953 10.1815625 25.87003906 9.953125 25.12695312 C9.02002521 22.12182293 8.07904547 19.19102656 6.875 16.28125 C5.94718589 13.86230608 5.60551746 11.76161165 5.375 9.1875 C5.26285156 8.00220703 5.26285156 8.00220703 5.1484375 6.79296875 C5.09945312 6.20128906 5.05046875 5.60960938 5 5 C3.9275 5.350625 2.855 5.70125 1.75 6.0625 C-2.92307692 7.23076923 -2.92307692 7.23076923 -6 6 C-5.01 6 -4.02 6 -3 6 C-3 5.34 -3 4.68 -3 4 C-4.65 3.67 -6.3 3.34 -8 3 C-5.22569089 1.15046059 -3.35957737 0 0 0 Z " fill="#F6FBCF" transform="translate(82,80)"/>
<path d="M0 0 C-0.33 0.66 -0.66 1.32 -1 2 C-2.32 1.67 -3.64 1.34 -5 1 C-4.84853516 1.70608398 -4.69707031 2.41216797 -4.54101562 3.13964844 C-3.85648071 6.34221869 -3.17817584 9.5460774 -2.5 12.75 C-2.14228516 14.41675781 -2.14228516 14.41675781 -1.77734375 16.1171875 C-1.55175781 17.18710937 -1.32617188 18.25703125 -1.09375 19.359375 C-0.77954102 20.83615723 -0.77954102 20.83615723 -0.45898438 22.34277344 C0 25 0 25 0 29 C-1.32 29 -2.64 29 -4 29 C-4.21934204 27.97845825 -4.21934204 27.97845825 -4.44311523 26.9362793 C-5.10617142 23.85297596 -5.77180535 20.77023471 -6.4375 17.6875 C-6.78264648 16.0797168 -6.78264648 16.0797168 -7.13476562 14.43945312 C-7.35712891 13.41142578 -7.57949219 12.38339844 -7.80859375 11.32421875 C-8.01282959 10.37635498 -8.21706543 9.42849121 -8.42749023 8.4519043 C-8.98713698 5.88486719 -8.98713698 5.88486719 -10 3 C-3.94594595 -1.97297297 -3.94594595 -1.97297297 0 0 Z " fill="#E3F4F7" transform="translate(95,26)"/>
<path d="M0 0 C0.66 0 1.32 0 2 0 C2.83790789 1.78953185 3.67019396 3.58169695 4.5 5.375 C4.9640625 6.37273437 5.428125 7.37046875 5.90625 8.3984375 C7 11 7 11 7 13 C6.01 13 5.02 13 4 13 C4 13.66 4 14.32 4 15 C3.18958252 15.42192627 2.37916504 15.84385254 1.54418945 16.27856445 C-1.23425796 17.74983907 -1.23425796 17.74983907 -1.65942383 20.54370117 C-1.67513428 21.53345947 -1.69084473 22.52321777 -1.70703125 23.54296875 C-1.73603516 24.61611328 -1.76503906 25.68925781 -1.79492188 26.79492188 C-1.80072266 27.91447266 -1.80652344 29.03402344 -1.8125 30.1875 C-1.83763672 31.31865234 -1.86277344 32.44980469 -1.88867188 33.61523438 C-1.94764384 36.4105053 -1.98385033 39.20420675 -2 42 C-2.33 42 -2.66 42 -3 42 C-3.02909769 37.93751511 -3.04683174 33.87505714 -3.0625 29.8125 C-3.07087891 28.66201172 -3.07925781 27.51152344 -3.08789062 26.32617188 C-3.09111328 25.21435547 -3.09433594 24.10253906 -3.09765625 22.95703125 C-3.10289307 21.93585205 -3.10812988 20.91467285 -3.11352539 19.86254883 C-3.00497952 17.12555877 -2.55840492 14.67405567 -2 12 C-2.020625 10.845 -2.04125 9.69 -2.0625 8.5 C-2.00159188 5.08914542 -1.47148417 3.0349361 0 0 Z " fill="#4D4D4F" transform="translate(75,162)"/>
<path d="M0 0 C2.82016615 1.12806646 5.49677145 2.46848281 8.1875 3.875 C8.44968749 7.02124993 8.43504367 8.49337017 6.6875 11.1875 C6.1925 11.744375 5.6975 12.30125 5.1875 12.875 C1.45262223 12.3770163 -0.62487635 12.00008244 -3.8125 9.875 C-3.8125 9.215 -3.8125 8.555 -3.8125 7.875 C-4.4725 7.875 -5.1325 7.875 -5.8125 7.875 C-5.44537028 5.15824005 -5.08505401 3.26436287 -3.5 1 C-1.8125 -0.125 -1.8125 -0.125 0 0 Z " fill="#BBCD5C" transform="translate(125.8125,25.125)"/>
<path d="M0 0 C3.98888701 0.46025619 6.09191848 1.96884265 9.25 4.375 C8.04618552 6.86861571 6.79571278 9.05643083 5.25 11.375 C0.49518354 10.79865861 -2.72048212 8.82431479 -6.75 6.375 C-4.0315534 0.54975728 -4.0315534 0.54975728 0 0 Z " fill="#B5CC3F" transform="translate(147.75,38.625)"/>
<path d="M0 0 C1.32 0 2.64 0 4 0 C4 0.66 4 1.32 4 2 C6.64 2.66 9.28 3.32 12 4 C12 4.99 12 5.98 12 7 C11.01 7 10.02 7 9 7 C8.67 8.32 8.34 9.64 8 11 C6.02 11 4.04 11 2 11 C2 10.34 2 9.68 2 9 C0.35 8.67 -1.3 8.34 -3 8 C-3 4 -3 4 -1.75 1.75 C-1.1725 1.1725 -0.595 0.595 0 0 Z " fill="#DDE39D" transform="translate(178,21)"/>
<path d="M0 0 C4.77576339 0.4682121 8.04476345 1.24331998 12 4 C11.34 5.65 10.68 7.3 10 9 C9.34 9 8.68 9 8 9 C8 9.66 8 10.32 8 11 C3.6109185 10.48964169 0.66291938 9.47785723 -3 7 C-1.125 2.25 -1.125 2.25 0 0 Z " fill="#D0DA9A" transform="translate(158,22)"/>
<path d="M0 0 C15.51 0 31.02 0 47 0 C47 0.33 47 0.66 47 1 C32.48 1.33 17.96 1.66 3 2 C3 2.66 3 3.32 3 4 C3.66 4 4.32 4 5 4 C5 4.66 5 5.32 5 6 C8.3 6 11.6 6 15 6 C15 6.33 15 6.66 15 7 C12.03 7 9.06 7 6 7 C6 7.66 6 8.32 6 9 C8.64 9 11.28 9 14 9 C14 9.33 14 9.66 14 10 C9.38 10 4.76 10 0 10 C0 6.7 0 3.4 0 0 Z " fill="#515152" transform="translate(122,157)"/>
<path d="M0 0 C0.33 0 0.66 0 1 0 C1.66 3.63 2.32 7.26 3 11 C4.32 8.36 5.64 5.72 7 3 C7.99 3.33 8.98 3.66 10 4 C6.7 9.94 3.4 15.88 0 22 C-0.99 22 -1.98 22 -3 22 C-3.33 22.66 -3.66 23.32 -4 24 C-3.4533512 15.81911794 -1.82876132 7.98214061 0 0 Z " fill="#6393BC" transform="translate(131,93)"/>
<path d="M0 0 C-1.36641579 3.59747227 -2.9671386 6.92958192 -4.8203125 10.30078125 C-5.35527344 11.27724609 -5.89023438 12.25371094 -6.44140625 13.25976562 C-6.99699219 14.26716797 -7.55257812 15.27457031 -8.125 16.3125 C-8.68832031 17.33923828 -9.25164062 18.36597656 -9.83203125 19.42382812 C-11.21882893 21.95062051 -12.60822835 24.47594494 -14 27 C-15.21970604 23.34088189 -14.63942883 22.56118679 -13.125 19.125 C-11.95409922 16.44748562 -11.02260304 14.12181486 -10.48828125 11.2421875 C-10.32714844 10.50226563 -10.16601562 9.76234375 -10 9 C-8.67532254 8.3162955 -7.34136367 7.65035814 -6 7 C-4.85422026 4.48217243 -4.85422026 4.48217243 -4 2 C-4.79664063 2.0721875 -5.59328125 2.144375 -6.4140625 2.21875 C-7.47367188 2.3115625 -8.53328125 2.404375 -9.625 2.5 C-10.66914063 2.5928125 -11.71328125 2.685625 -12.7890625 2.78125 C-15.87146788 2.99124355 -18.91165229 3.03709727 -22 3 C-21.67 2.34 -21.34 1.68 -21 1 C-18.33984375 0.5859375 -18.33984375 0.5859375 -14.9375 0.375 C-13.18179688 0.26478516 -13.18179688 0.26478516 -11.390625 0.15234375 C-7.58186973 -0.01878696 -3.81126031 -0.07473059 0 0 Z " fill="#7296B3" transform="translate(157,67)"/>
<path d="M0 0 C0.66 0.33 1.32 0.66 2 1 C1.77052189 3.23137263 1.51554444 5.46013156 1.25 7.6875 C1.11078125 8.92886719 0.9715625 10.17023438 0.828125 11.44921875 C-0.06737746 15.28889673 -1.3269021 17.1584752 -4 20 C-6.4375 19.625 -6.4375 19.625 -9 19 C-9.33 18.34 -9.66 17.68 -10 17 C-12.04616561 16.12757089 -12.04616561 16.12757089 -14.4375 15.4375 C-18.87341772 14.06329114 -18.87341772 14.06329114 -21 13 C-21 12.34 -21 11.68 -21 11 C-23.97 10.505 -23.97 10.505 -27 10 C-27 9.34 -27 8.68 -27 8 C-22 9.66666667 -17 11.33333333 -12 13 C-12 13.66 -12 14.32 -12 15 C-11.236875 15.144375 -10.47375 15.28875 -9.6875 15.4375 C-7 16 -7 16 -4 17 C-3.896875 16.05125 -3.79375 15.1025 -3.6875 14.125 C-3.0089081 9.26508446 -1.4914524 4.66196126 0 0 Z " fill="#F6FBD0" transform="translate(124,118)"/>
<path d="M0 0 C-2.97 0.66 -5.94 1.32 -9 2 C-9 2.66 -9 3.32 -9 4 C-6.36 4 -3.72 4 -1 4 C-3.60166784 5.73444522 -5.10925318 6.45325329 -8.01953125 7.25390625 C-8.79490234 7.46853516 -9.57027344 7.68316406 -10.36914062 7.90429688 C-11.17544922 8.12150391 -11.98175781 8.33871094 -12.8125 8.5625 C-13.60720703 8.78357422 -14.40191406 9.00464844 -15.22070312 9.23242188 C-19.4612096 10.39338767 -23.64017625 11.37516214 -28 12 C-27.34 10.68 -26.68 9.36 -26 8 C-24.865625 8.020625 -23.73125 8.04125 -22.5625 8.0625 C-19.18424326 8.41577477 -19.18424326 8.41577477 -18 7 C-16.33382885 6.95936168 -14.66611905 6.957279 -13 7 C-13 6.34 -13 5.68 -13 5 C-16.63 5.33 -20.26 5.66 -24 6 C-20.07564237 4.03782119 -16.1637697 2.63630722 -12 1.3125 C-11.2884375 1.07466797 -10.576875 0.83683594 -9.84375 0.59179688 C-5.90672365 -0.66055945 -4.11133595 -1.02783399 0 0 Z " fill="#F5FAD0" transform="translate(124,69)"/>
<path d="M0 0 C6.8488223 0.48645841 13.3381408 1.36356866 20 3 C22.27040389 3.52270219 24.54126242 4.04343233 26.8125 4.5625 C30.2159055 5.3472757 33.61492081 6.13938665 37 7 C37.33 6.34 37.66 5.68 38 5 C38 5.99 38 6.98 38 8 C31.25 8.125 31.25 8.125 29 7 C27.27408872 6.81968091 25.54385555 6.67951575 23.8125 6.5625 C19.27216569 6.19210431 15.312836 5.437612 11 4 C11 4.99 11 5.98 11 7 C9.68 6.34 8.36 5.68 7 5 C7 4.34 7 3.68 7 3 C6.01 3 5.02 3 4 3 C4.33 4.65 4.66 6.3 5 8 C2.12597273 5.4041044 0.75567052 3.78630702 0 0 Z " fill="#A4C25F" transform="translate(53,46)"/>
<path d="M0 0 C13.26315789 0 13.26315789 0 18 2 C18.33 2.99 18.66 3.98 19 5 C18.67 5.66 18.34 6.32 18 7 C19.98 7.66 21.96 8.32 24 9 C24 9.66 24 10.32 24 11 C15.62594996 8.38682127 7.80427355 5.00219156 0 1 C0 0.67 0 0.34 0 0 Z " fill="#B7D03A" transform="translate(52,104)"/>
<path d="M0 0 C1.875 0.6875 1.875 0.6875 4 2 C4.28875 2.845625 4.5775 3.69125 4.875 4.5625 C5.431875 5.7690625 5.431875 5.7690625 6 7 C9.05272465 7.89830839 9.05272465 7.89830839 12 8 C11.67 8.99 11.34 9.98 11 11 C10.01 11 9.02 11 8 11 C8 11.66 8 12.32 8 13 C6.68 13.33 5.36 13.66 4 14 C-0.87432508 6.98445355 -0.87432508 6.98445355 -1.375 3.0625 C-1 1 -1 1 0 0 Z " fill="#F3FAC4" transform="translate(68,75)"/>
<path d="M0 0 C2.31 0 4.62 0 7 0 C7.33 0.66 7.66 1.32 8 2 C8.66 2.33 9.32 2.66 10 3 C12 4 12 4 13 6 C16.70117606 6.84117638 20.21271031 7.11139087 24 7 C24.33 9.31 24.66 11.62 25 14 C19.16767782 12.40328229 14.29531388 9.47817405 9.125 6.4375 C8.24585937 5.93025391 7.36671875 5.42300781 6.4609375 4.90039062 C1.68791515 2.11736284 1.68791515 2.11736284 0 1 C0 0.67 0 0.34 0 0 Z " fill="#E5F6FC" transform="translate(101,32)"/>
<path d="M0 0 C0.66 0.33 1.32 0.66 2 1 C2 0.34 2 -0.32 2 -1 C5.875 0.75 5.875 0.75 7 3 C7.13415472 5.6723621 7.04318541 8.32250488 7 11 C6.5875 10.34 6.175 9.68 5.75 9 C5.1725 8.34 4.595 7.68 4 7 C2.68 7 1.36 7 0 7 C0 5.68 0 4.36 0 3 C-1.98 3 -3.96 3 -6 3 C-6 4.98 -6 6.96 -6 9 C-6.103125 8.360625 -6.20625 7.72125 -6.3125 7.0625 C-6.539375 6.381875 -6.76625 5.70125 -7 5 C-7.99 4.67 -8.98 4.34 -10 4 C-9.01 4 -8.02 4 -7 4 C-7 2.68 -7 1.36 -7 0 C-3.83299069 -1.05566977 -3.03571759 -0.97926374 0 0 Z " fill="#4C4C4D" transform="translate(50,183)"/>
<path d="M0 0 C2.00507927 1.11592209 4.00396096 2.24298712 6 3.375 C7.11375 4.00148438 8.2275 4.62796875 9.375 5.2734375 C10.24125 5.84320313 11.1075 6.41296875 12 7 C12 7.66 12 8.32 12 9 C12.721875 9.268125 13.44375 9.53625 14.1875 9.8125 C16.99766383 10.99901362 19.48416557 12.27485639 22 14 C22 14.66 22 15.32 22 16 C17.05 17.485 17.05 17.485 12 19 C12 18.34 12 17.68 12 17 C12.99 16.34 13.98 15.68 15 15 C15.33 14.01 15.66 13.02 16 12 C13.525 11.01 13.525 11.01 11 10 C11 9.34 11 8.68 11 8 C9.35 8 7.7 8 6 8 C5.7525 7.360625 5.505 6.72125 5.25 6.0625 C4.18437567 3.81258459 4.18437567 3.81258459 1.875 3.25 C0.946875 3.12625 0.946875 3.12625 0 3 C0 2.01 0 1.02 0 0 Z " fill="#F6FCC9" transform="translate(100,93)"/>
<path d="M0 0 C19.73258004 9.64595104 19.73258004 9.64595104 26 14 C26 14.33 26 14.66 26 15 C23.69 14.67 21.38 14.34 19 14 C19 13.34 19 12.68 19 12 C18.38511719 11.87882812 17.77023438 11.75765625 17.13671875 11.6328125 C15.92435547 11.38144531 15.92435547 11.38144531 14.6875 11.125 C13.88699219 10.96257813 13.08648437 10.80015625 12.26171875 10.6328125 C10 10 10 10 7 8 C7 7.01 7 6.02 7 5 C4.03 4.505 4.03 4.505 1 4 C0.67 2.68 0.34 1.36 0 0 Z " fill="#6C91B3" transform="translate(128,48)"/>
<path d="M0 0 C4.39383706 1.59623144 8.28995807 3.78024333 12.3125 6.125 C12.95767578 6.49753906 13.60285156 6.87007812 14.26757812 7.25390625 C15.84675945 8.16632213 17.42361864 9.08275509 19 10 C18.67 10.66 18.34 11.32 18 12 C15.4375 12.625 15.4375 12.625 13 13 C13 12.34 13 11.68 13 11 C12.34 10.67 11.68 10.34 11 10 C10.6596875 9.01 10.6596875 9.01 10.3125 8 C9.879375 7.34 9.44625 6.68 9 6 C5.43793339 5.18129815 5.43793339 5.18129815 2 5 C1.67 5.99 1.34 6.98 1 8 C0.67 5.36 0.34 2.72 0 0 Z " fill="#6B95BA" transform="translate(90,27)"/>
<path d="M0 0 C-0.78914095 6.78661213 -2.41274811 13.36149367 -4 20 C-4.33 20 -4.66 20 -5 20 C-5.20674944 14.21101581 -4.59162079 9.57067277 -3 4 C-3.495 4.350625 -3.99 4.70125 -4.5 5.0625 C-8.22697603 6.46011601 -11.09802848 5.65032859 -15 5 C-12.37575342 3.25050228 -10.44272784 2.34610019 -7.5 1.375 C-6.7265625 1.11460938 -5.953125 0.85421875 -5.15625 0.5859375 C-3 0 -3 0 0 0 Z " fill="#B1CE4F" transform="translate(135,70)"/>
<path d="M0 0 C0.66 0.33 1.32 0.66 2 1 C1.01 1.33 0.02 1.66 -1 2 C-1 2.66 -1 3.32 -1 4 C-2.32 4 -3.64 4 -5 4 C-5.33 4.99 -5.66 5.98 -6 7 C-9.3 7 -12.6 7 -16 7 C-16.33 8.32 -16.66 9.64 -17 11 C-17.99 9.68 -18.98 8.36 -20 7 C-17.2721668 4.2721668 -14.19816986 3.83701192 -10.5625 2.9375 C-5.24507113 1.59666812 -5.24507113 1.59666812 0 0 Z " fill="#BCCF57" transform="translate(109,77)"/>
<path d="M0 0 C5.28 0.33 10.56 0.66 16 1 C16 1.66 16 2.32 16 3 C18.64 2.67 21.28 2.34 24 2 C24 2.66 24 3.32 24 4 C26.97 4.33 29.94 4.66 33 5 C33 5.33 33 5.66 33 6 C21.57402773 6.70434076 10.31378408 5.15689204 0 0 Z " fill="#6293AA" transform="translate(108,58)"/>
<path d="M0 0 C0 0.66 0 1.32 0 2 C-0.78375 2.433125 -1.5675 2.86625 -2.375 3.3125 C-5.41686215 5.26798281 -5.98981901 6.60211849 -7 10 C-6.34 10 -5.68 10 -5 10 C-5 10.66 -5 11.32 -5 12 C-3.02 12.66 -1.04 13.32 1 14 C1 14.33 1 14.66 1 15 C-3.0284349 15.18311068 -5.48375245 14.94158017 -9 13 C-8.85915204 11.20793453 -8.71216299 9.41635083 -8.5625 7.625 C-8.48128906 6.62726562 -8.40007812 5.62953125 -8.31640625 4.6015625 C-8 2 -8 2 -7 0 C-3.86650268 -1.04449911 -3.01031744 -0.93423645 0 0 Z " fill="#FAFDDA" transform="translate(127,23)"/>
<path d="M0 0 C1.22589844 0.15275391 1.22589844 0.15275391 2.4765625 0.30859375 C3.41628906 0.43427734 3.41628906 0.43427734 4.375 0.5625 C4.375 0.8925 4.375 1.2225 4.375 1.5625 C-0.08 2.0575 -0.08 2.0575 -4.625 2.5625 C-5.32984724 5.68396634 -5.75809566 8.75756183 -6.0625 11.9375 C-6.48560707 16.01161158 -7.38098951 19.66460046 -8.625 23.5625 C-8.955 23.5625 -9.285 23.5625 -9.625 23.5625 C-10.00243309 15.55253104 -9.69878757 8.07776961 -6.625 0.5625 C-4.10446405 -0.69776798 -2.7707902 -0.35624445 0 0 Z " fill="#6B969F" transform="translate(141.625,69.4375)"/>
<path d="M0 0 C-0.33 2.31 -0.66 4.62 -1 7 C-4 8 -4 8 -6.04296875 7.22265625 C-6.75066406 6.83980469 -7.45835937 6.45695312 -8.1875 6.0625 C-8.90292969 5.68222656 -9.61835938 5.30195312 -10.35546875 4.91015625 C-10.89816406 4.60980469 -11.44085938 4.30945312 -12 4 C-11.67 3.01 -11.34 2.02 -11 1 C-7.50970582 -0.47666292 -3.72563614 -0.07164685 0 0 Z " fill="#C9D58A" transform="translate(172,41)"/>
<path d="M0 0 C4.64802093 0.74571052 9.2618805 1.6282539 13.875 2.5625 C14.56335938 2.70107422 15.25171875 2.83964844 15.9609375 2.98242188 C17.64080374 3.32072827 19.32042734 3.66023912 21 4 C21 4.33 21 4.66 21 5 C20.33613281 5.12117188 19.67226562 5.24234375 18.98828125 5.3671875 C13.42337786 6.41239226 13.42337786 6.41239226 8.0625 8.1875 C6 9 6 9 3 8 C4.32 7.67 5.64 7.34 7 7 C6.67 6.01 6.34 5.02 6 4 C4.35 3.67 2.7 3.34 1 3 C0.67 2.01 0.34 1.02 0 0 Z " fill="#B7CE66" transform="translate(114,60)"/>
<path d="M0 0 C2.31 0 4.62 0 7 0 C6.8125 1.875 6.8125 1.875 6 4 C1.51650857 6.89257512 -3.86971842 6.17931081 -9 6 C-9 5.34 -9 4.68 -9 4 C-6.03 3.34 -3.06 2.68 0 2 C0 1.34 0 0.68 0 0 Z " fill="#FBFCEB" transform="translate(124,67)"/>
<path d="M0 0 C1.875 0.25 1.875 0.25 4 1 C5.6175918 3.23381725 6.04870618 4.43176126 5.8125 7.1875 C5.544375 7.785625 5.27625 8.38375 5 9 C4.01 9.33 3.02 9.66 2 10 C1.54625 9.195625 1.0925 8.39125 0.625 7.5625 C-0.74725665 4.91143428 -0.74725665 4.91143428 -3 4 C-3.66 5.32 -4.32 6.64 -5 8 C-5.33 7.01 -5.66 6.02 -6 5 C-5.67 4.34 -5.34 3.68 -5 3 C-3.68 3 -2.36 3 -1 3 C-0.67 2.01 -0.34 1.02 0 0 Z " fill="#F5F8DA" transform="translate(108,112)"/>
<path d="M0 0 C0.33 2.31 0.66 4.62 1 7 C0.34 6.67 -0.32 6.34 -1 6 C-1 5.01 -1 4.02 -1 3 C-3.1479894 3.44812018 -5.29336561 3.90878348 -7.4375 4.375 C-8.63246094 4.63023438 -9.82742187 4.88546875 -11.05859375 5.1484375 C-12.02925781 5.42945312 -12.99992187 5.71046875 -14 6 C-14.33 6.66 -14.66 7.32 -15 8 C-16.32 7.67 -17.64 7.34 -19 7 C-18.34 5.35 -17.68 3.7 -17 2 C-16.16662109 2.29197266 -16.16662109 2.29197266 -15.31640625 2.58984375 C-12.41775832 3.10309507 -10.71082616 2.50367404 -7.9375 1.5625 C-5.03724969 0.58993486 -3.0823645 0 0 0 Z " fill="#BACF4D" transform="translate(87,85)"/>
<path d="M0 0 C0 1.32 0 2.64 0 4 C2.64 3.67 5.28 3.34 8 3 C8.33 4.32 8.66 5.64 9 7 C8.34 7 7.68 7 7 7 C7.33 9.97 7.66 12.94 8 16 C5.60236815 13.60236815 5.65719414 12.66726502 5.375 9.375 C5.30023438 8.55773437 5.22546875 7.74046875 5.1484375 6.8984375 C5.07496094 5.95871094 5.07496094 5.95871094 5 5 C3.9275 5.350625 2.855 5.70125 1.75 6.0625 C-2.92307692 7.23076923 -2.92307692 7.23076923 -6 6 C-5.01 6 -4.02 6 -3 6 C-3 5.34 -3 4.68 -3 4 C-4.65 3.67 -6.3 3.34 -8 3 C-5.22569089 1.15046059 -3.35957737 0 0 0 Z " fill="#F1F8C6" transform="translate(82,80)"/>
<path d="M0 0 C0.66 0.33 1.32 0.66 2 1 C2.80045663 3.69058598 3.4954659 6.33218727 4.125 9.0625 C4.30675781 9.82111328 4.48851563 10.57972656 4.67578125 11.36132812 C5.12456584 13.23913735 5.56323336 15.11935915 6 17 C6.66 17 7.32 17 8 17 C8.33 16.34 8.66 15.68 9 15 C9 16.65 9 18.3 9 20 C1.42857143 18.14285714 1.42857143 18.14285714 -1 15 C0.32 14.67 1.64 14.34 3 14 C2.67 11.69 2.34 9.38 2 7 C1.34 7 0.68 7 0 7 C0 4.69 0 2.38 0 0 Z " fill="#C8D77D" transform="translate(92,107)"/>
<path d="M0 0 C7.425 0.99 7.425 0.99 15 2 C14.67 2.99 14.34 3.98 14 5 C4.58997722 5.3690205 4.58997722 5.3690205 0 3 C0 2.01 0 1.02 0 0 Z " fill="#B3D325" transform="translate(65,51)"/>
<path d="M0 0 C1.32 0 2.64 0 4 0 C4 0.66 4 1.32 4 2 C4.66 2.33 5.32 2.66 6 3 C5.67 3.99 5.34 4.98 5 6 C3.35 5.67 1.7 5.34 0 5 C0.33 6.32 0.66 7.64 1 9 C-0.32 9 -1.64 9 -3 9 C-2.44271087 5.65626525 -1.64826111 2.96687001 0 0 Z " fill="#4B4B4B" transform="translate(12,192)"/>
<path d="M0 0 C7.45491562 0.36580804 14.04931961 1.20919651 21 4 C21 4.33 21 4.66 21 5 C14.13484138 5.26404456 7.74153283 4.25841946 1 3 C0.67 2.01 0.34 1.02 0 0 Z " fill="#A7C962" transform="translate(91,55)"/>
<path d="M0 0 C4.85963179 0.60745397 8.7405518 2.72758967 13 5 C12.360625 5.309375 11.72125 5.61875 11.0625 5.9375 C9.06389179 6.8345163 9.06389179 6.8345163 8 8 C5.66702567 8.04092937 3.33294775 8.04241723 1 8 C1 7.34 1 6.68 1 6 C1.99 5.67 2.98 5.34 4 5 C4 4.34 4 3.68 4 3 C2.0399719 1.36323743 2.0399719 1.36323743 0 0 Z " fill="#6395B5" transform="translate(115,42)"/>
<path d="M0 0 C0 0.66 0 1.32 0 2 C-4.55743102 3.2359135 -8.28209216 4 -13 4 C-13.66 4.66 -14.32 5.32 -15 6 C-16.32 6 -17.64 6 -19 6 C-19 5.34 -19 4.68 -19 4 C-16.96185767 3.32263519 -14.91929445 2.65856466 -12.875 2 C-11.73804687 1.62875 -10.60109375 1.2575 -9.4296875 0.875 C-6.12104059 0.03088051 -3.39471984 -0.16509276 0 0 Z " fill="#FCFDEC" transform="translate(111,74)"/>
<path d="M0 0 C3.27310883 0.20892184 5.32433057 0.43694214 7.875 2.5625 C8.431875 3.2740625 8.431875 3.2740625 9 4 C7.1128125 3.9071875 7.1128125 3.9071875 5.1875 3.8125 C1.91703074 3.70258414 1.91703074 3.70258414 -0.6875 5.5 C-1.120625 5.995 -1.55375 6.49 -2 7 C-4.6875 7.1875 -4.6875 7.1875 -7 7 C-6.01 6.67 -5.02 6.34 -4 6 C-2.90833725 4.06669397 -2.90833725 4.06669397 -2 2 C-1.34 1.34 -0.68 0.68 0 0 Z " fill="#F3F9D0" transform="translate(157,44)"/>
<path d="M0 0 C0.66 0 1.32 0 2 0 C1.67 1.051875 1.34 2.10375 1 3.1875 C0.16033218 6.38873357 -0.19750904 8.7411008 0 12 C-2.475 11.01 -2.475 11.01 -5 10 C-5 9.34 -5 8.68 -5 8 C-5.99 7.67 -6.98 7.34 -8 7 C-6.68 7 -5.36 7 -4 7 C-4 6.34 -4 5.68 -4 5 C-3.34 5 -2.68 5 -2 5 C-1.34 3.35 -0.68 1.7 0 0 Z " fill="#F5F7E2" transform="translate(170,26)"/>
<path d="M0 0 C0.66 0 1.32 0 2 0 C2.33 1.32 2.66 2.64 3 4 C2.34 4 1.68 4 1 4 C0.66430703 5.62451419 0.3315204 7.24962917 0 8.875 C-0.185625 9.77992187 -0.37125 10.68484375 -0.5625 11.6171875 C-1.06019595 13.92407903 -1.06019595 13.92407903 -1 16 C-2.32 16 -3.64 16 -5 16 C-4.34309381 12.21760329 -3.279869 8.78158474 -1.9375 5.1875 C-1.57527344 4.21167969 -1.21304688 3.23585937 -0.83984375 2.23046875 C-0.42412109 1.12638672 -0.42412109 1.12638672 0 0 Z " fill="#BFCF6B" transform="translate(46,48)"/>
<path d="M0 0 C0.4125 0.474375 0.825 0.94875 1.25 1.4375 C3.182185 3.16266518 4.48192275 3.56584875 7 4 C7 4.66 7 5.32 7 6 C8.98 5.67 10.96 5.34 13 5 C13.33 4.01 13.66 3.02 14 2 C14.66 2.33 15.32 2.66 16 3 C15.375 4.9375 15.375 4.9375 14 7 C9.48247007 8.36576486 5.59255685 7.82666023 1 7 C1 5.68 1 4.36 1 3 C0.34 2.67 -0.32 2.34 -1 2 C-0.67 1.34 -0.34 0.68 0 0 Z " fill="#F5F6DE" transform="translate(173,26)"/>
<path d="M0 0 C1.34374179 4.03122538 0.4530301 6.05606115 -1 10 C-3 12.4375 -3 12.4375 -5 14 C-5.66 14 -6.32 14 -7 14 C-5.53967505 8.68972746 -3.01679014 4.53669968 0 0 Z " fill="#E1EFF5" transform="translate(141,96)"/>
<path d="M0 0 C0.33 0 0.66 0 1 0 C1.45755719 7.62595318 -0.25463701 14.6029854 -2 22 C-2.33 22 -2.66 22 -3 22 C-3.19486275 15.91595185 -3.31880858 10.72882119 -1 5 C-0.63893903 3.33911955 -0.29537827 1.67381019 0 0 Z " fill="#719B95" transform="translate(131,85)"/>
<path d="M0 0 C2.31 0.33 4.62 0.66 7 1 C7.226875 1.804375 7.45375 2.60875 7.6875 3.4375 C8.120625 4.283125 8.55375 5.12875 9 6 C11.54775306 6.89386164 11.54775306 6.89386164 14 7 C14 7.99 14 8.98 14 10 C11.16661778 8.62159784 8.44311194 7.13581614 5.75 5.5 C5.04359375 5.0771875 4.3371875 4.654375 3.609375 4.21875 C3.07828125 3.8165625 2.5471875 3.414375 2 3 C2 2.34 2 1.68 2 1 C1.34 0.67 0.68 0.34 0 0 Z " fill="#BDD05A" transform="translate(96,89)"/>
<path d="M0 0 C1.6254308 0.14095064 3.25034051 0.28792087 4.875 0.4375 C5.77992188 0.51871094 6.68484375 0.59992187 7.6171875 0.68359375 C10 1 10 1 12 2 C11.67 3.32 11.34 4.64 11 6 C8.525 5.01 8.525 5.01 6 4 C6 3.34 6 2.68 6 2 C2.62496331 3.1858237 0.35277269 4.27573689 -2 7 C-1.42415568 4.61435923 -0.77772405 2.33317216 0 0 Z " fill="#F8FAE3" transform="translate(176,19)"/>
<path d="M0 0 C8.57142857 -0.28571429 8.57142857 -0.28571429 12 2 C12 2.66 12 3.32 12 4 C12.66 4 13.32 4 14 4 C14 4.66 14 5.32 14 6 C8.8896856 4.8545847 4.62765919 3.54521255 0 1 C0 0.67 0 0.34 0 0 Z " fill="#BDD251" transform="translate(52,104)"/>
<path d="M0 0 C0.33 0.66 0.66 1.32 1 2 C0.67 2.66 0.34 3.32 0 4 C1.65 4.33 3.3 4.66 5 5 C4.01 5.495 4.01 5.495 3 6 C3 6.99 3 7.98 3 9 C1.02 8.34 -0.96 7.68 -3 7 C-3 3 -3 3 -1.5 1.25 C-1.005 0.8375 -0.51 0.425 0 0 Z " fill="#BCCF58" transform="translate(145,39)"/>
<path d="M0 0 C4 0 4 0 5.75 1.3125 C7 3 7 3 7 6 C4.69 6 2.38 6 0 6 C-0.38218767 4.34385343 -0.71395102 2.67542976 -1 1 C-0.67 0.67 -0.34 0.34 0 0 Z " fill="#FCFBFC" transform="translate(136,34)"/>
<path d="M0 0 C0.66 0 1.32 0 2 0 C0.11380178 7.03645577 -1.86927695 14.03359344 -4 21 C-4.33 21 -4.66 21 -5 21 C-4.3599749 13.57234034 -2.92848971 6.9028686 0 0 Z " fill="#F7FCCE" transform="translate(44,48)"/>
<path d="M0 0 C0.99 0.33 1.98 0.66 3 1 C4.1875 3.5625 4.1875 3.5625 5 6 C2.69 5.67 0.38 5.34 -2 5 C-1.67 7.31 -1.34 9.62 -1 12 C-2.32 11.34 -3.64 10.68 -5 10 C-3.49760034 6.38058265 -2.17854707 3.2678206 0 0 Z " fill="#BACD5D" transform="translate(105,116)"/>
<path d="M0 0 C2.31 0 4.62 0 7 0 C7.33 0.99 7.66 1.98 8 3 C10.64 3.33 13.28 3.66 16 4 C15.01 4.495 15.01 4.495 14 5 C13.67 5.66 13.34 6.32 13 7 C10.69 6.34 8.38 5.68 6 5 C5.67 3.68 5.34 2.36 5 1 C3.35 1 1.7 1 0 1 C0 0.67 0 0.34 0 0 Z " fill="#B6D13A" transform="translate(107,60)"/>
<path d="M0 0 C2.31 0 4.62 0 7 0 C7.33 0.66 7.66 1.32 8 2 C5.69 1.67 3.38 1.34 1 1 C1.99 2.98 2.98 4.96 4 7 C2.68 7 1.36 7 0 7 C-0.33 8.32 -0.66 9.64 -1 11 C-1.66 9.02 -2.32 7.04 -3 5 C-2.34 5 -1.68 5 -1 5 C-0.67 3.35 -0.34 1.7 0 0 Z " fill="#ECF3BB" transform="translate(52,45)"/>
<path d="M0 0 C2.97 0.33 5.94 0.66 9 1 C8.67 2.32 8.34 3.64 8 5 C6.02 5 4.04 5 2 5 C1.34 3.35 0.68 1.7 0 0 Z " fill="#B6CF29" transform="translate(122,29)"/>
<path d="M0 0 C1.32 0 2.64 0 4 0 C4 0.66 4 1.32 4 2 C6.64 2.66 9.28 3.32 12 4 C12 4.99 12 5.98 12 7 C11.01 7 10.02 7 9 7 C8.67 7.99 8.34 8.98 8 10 C8 8.35 8 6.7 8 5 C4.7 4.34 1.4 3.68 -2 3 C-1.34 2.01 -0.68 1.02 0 0 Z " fill="#E1E6B8" transform="translate(178,21)"/>
<path d="M0 0 C1.60407328 -0.02708567 3.2082785 -0.04643483 4.8125 -0.0625 C5.70582031 -0.07410156 6.59914063 -0.08570313 7.51953125 -0.09765625 C10 0 10 0 13 1 C13 1.66 13 2.32 13 3 C14.98 3 16.96 3 19 3 C19.33 3.66 19.66 4.32 20 5 C14.85693968 5.37632149 11.66879144 4.04771554 7 2 C4.67810464 1.5945897 2.34484656 1.23927006 0 1 C0 0.67 0 0.34 0 0 Z " fill="#F7FCD7" transform="translate(52,44)"/>
<path d="M0 0 C4.77576339 0.4682121 8.04476345 1.24331998 12 4 C11.34 5.65 10.68 7.3 10 9 C9.34 8.34 8.68 7.68 8 7 C8 6.01 8 5.02 8 4 C5.36 3.34 2.72 2.68 0 2 C0 1.34 0 0.68 0 0 Z " fill="#D3DAA6" transform="translate(158,22)"/>
<path d="M0 0 C0.66 0.33 1.32 0.66 2 1 C1.67 2.98 1.34 4.96 1 7 C-0.32 7 -1.64 7 -3 7 C-3.66 7.66 -4.32 8.32 -5 9 C-5.625 7.1875 -5.625 7.1875 -6 5 C-5.34 4.01 -4.68 3.02 -4 2 C-2.68 2 -1.36 2 0 2 C0 1.34 0 0.68 0 0 Z " fill="#3C3C3E" transform="translate(79,175)"/>
<path d="M0 0 C-1.7015625 0.680625 -1.7015625 0.680625 -3.4375 1.375 C-7.04721692 2.57095806 -7.04721692 2.57095806 -8 5 C-7.01 5 -6.02 5 -5 5 C-5 5.66 -5 6.32 -5 7 C-5.66 7 -6.32 7 -7 7 C-7 8.32 -7 9.64 -7 11 C-9 10 -9 10 -9.625 8.1875 C-10 6 -10 6 -10 2 C-8.71211992 1.46987262 -7.41953322 0.9511671 -6.125 0.4375 C-5.40570313 0.14746094 -4.68640625 -0.14257812 -3.9453125 -0.44140625 C-2 -1 -2 -1 0 0 Z " fill="#C0D25D" transform="translate(122,110)"/>
<path d="M0 0 C3.50202263 2.33468175 4.33823637 4.20168313 6 8 C6 8.66 6 9.32 6 10 C5.34 10 4.68 10 4 10 C3.34 9.34 2.68 8.68 2 8 C1.67 8.66 1.34 9.32 1 10 C0.01 10 -0.98 10 -2 10 C-1.67 9.0925 -1.34 8.185 -1 7.25 C0.19605723 3.92954193 0.19605723 3.92954193 0 0 Z " fill="#BBD052" transform="translate(60,70)"/>
<path d="M0 0 C-3.56399578 2.37599719 -7.08381174 3.15731805 -11.1875 4.125 C-11.93708984 4.30675781 -12.68667969 4.48851563 -13.45898438 4.67578125 C-15.30470781 5.12251686 -17.15219132 5.5619694 -19 6 C-19 5.34 -19 4.68 -19 4 C-18.195625 3.87625 -17.39125 3.7525 -16.5625 3.625 C-15.716875 3.41875 -14.87125 3.2125 -14 3 C-13.67 2.34 -13.34 1.68 -13 1 C-8.62669456 0.27111576 -4.4383722 -0.13869913 0 0 Z " fill="#BDD05F" transform="translate(117,69)"/>
<path d="M0 0 C3.59007126 1.33345504 6.79570907 2.8943231 10 5 C10 5.33 10 5.66 10 6 C7.36 5.67 4.72 5.34 2 5 C1.67 5.99 1.34 6.98 1 8 C0.67 5.36 0.34 2.72 0 0 Z " fill="#7292AF" transform="translate(90,27)"/>
<path d="M0 0 C1.65 0 3.3 0 5 0 C5.33 2.31 5.66 4.62 6 7 C4.02 6.34 2.04 5.68 0 5 C0 3.35 0 1.7 0 0 Z " fill="#F1F6F9" transform="translate(120,39)"/>
<path d="M0 0 C4.875 1.75 4.875 1.75 6 4 C5.21654285 5.17219543 4.42297164 6.33763668 3.625 7.5 C3.18414062 8.1496875 2.74328125 8.799375 2.2890625 9.46875 C1.86367187 9.9740625 1.43828125 10.479375 1 11 C0.34 11 -0.32 11 -1 11 C-1 9.35 -1 7.7 -1 6 C0.32 6 1.64 6 3 6 C3 5.01 3 4.02 3 3 C2.01 2.67 1.02 2.34 0 2 C0 1.34 0 0.68 0 0 Z " fill="#F8FDD4" transform="translate(140,34)"/>
<path d="M0 0 C2.08630053 0.76276595 4.1689432 1.53554157 6.25 2.3125 C7.41015625 2.74175781 8.5703125 3.17101562 9.765625 3.61328125 C12.5941299 4.82598565 14.66536544 6.02942974 17 8 C14.625 8.125 14.625 8.125 12 8 C11.34 7.34 10.68 6.68 10 6 C7.66989091 5.32215008 5.33640176 4.65583207 3 4 C2.01 3.34 1.02 2.68 0 2 C0 1.34 0 0.68 0 0 Z " fill="#F9FDD3" transform="translate(80,118)"/>
<path d="M0 0 C0.99 0.33 1.98 0.66 3 1 C0.69 5.29 -1.62 9.58 -4 14 C-5.2277183 10.31684509 -4.6026666 9.37044582 -3.125 5.875 C-2.75632813 4.98554687 -2.38765625 4.09609375 -2.0078125 3.1796875 C-1 1 -1 1 0 0 Z " fill="#6A8EB2" transform="translate(138,96)"/>
<path d="M0 0 C0.598125 0.350625 1.19625 0.70125 1.8125 1.0625 C1.8125 1.7225 1.8125 2.3825 1.8125 3.0625 C2.8025 3.7225 3.7925 4.3825 4.8125 5.0625 C4.8125 5.7225 4.8125 6.3825 4.8125 7.0625 C1.2249787 5.72999209 -2.0239623 4.231783 -5.1875 2.0625 C-5.1875 1.4025 -5.1875 0.7425 -5.1875 0.0625 C-2.1875 -0.9375 -2.1875 -0.9375 0 0 Z " fill="#BED254" transform="translate(117.1875,99.9375)"/>
<path d="M0 0 C0.66 0.33 1.32 0.66 2 1 C2.25 3.75 2.25 3.75 2 7 C0 9.375 0 9.375 -2 11 C-3.14947895 7.44706507 -3.0868937 6.20023331 -1.5625 2.6875 C-1.046875 1.800625 -0.53125 0.91375 0 0 Z " fill="#B6D02D" transform="translate(47,53)"/>
<path d="M0 0 C2.97 0.495 2.97 0.495 6 1 C6.33 2.65 6.66 4.3 7 6 C5.02 7.32 3.04 8.64 1 10 C1.33 8.68 1.66 7.36 2 6 C2.66 6 3.32 6 4 6 C3.67 5.01 3.34 4.02 3 3 C2.01 2.67 1.02 2.34 0 2 C0 1.34 0 0.68 0 0 Z " fill="#F1F6D8" transform="translate(170,38)"/>
<path d="M0 0 C0.66 0 1.32 0 2 0 C2 0.99 2 1.98 2 3 C2.66 3 3.32 3 4 3 C4 3.66 4 4.32 4 5 C5.98 5.66 7.96 6.32 10 7 C10 7.33 10 7.66 10 8 C6.05272412 8.17942163 3.4019487 8.09350689 0 6 C0 4.02 0 2.04 0 0 Z " fill="#F1F7D0" transform="translate(118,30)"/>
<path d="M0 0 C0.33 0.99 0.66 1.98 1 3 C3.50447516 4.21869929 3.50447516 4.21869929 6 5 C2.42355152 6.2380014 -0.33694766 5.74926071 -4 5 C-4 4.01 -4 3.02 -4 2 C-4.66 2 -5.32 2 -6 2 C-6 1.34 -6 0.68 -6 0 C-2.25 -1.125 -2.25 -1.125 0 0 Z " fill="#F1F6D3" transform="translate(156,27)"/>
<path d="M0 0 C2.475 0.99 2.475 0.99 5 2 C5 2.66 5 3.32 5 4 C5.66 4 6.32 4 7 4 C7 4.66 7 5.32 7 6 C8.32 6.33 9.64 6.66 11 7 C9.02 7 7.04 7 5 7 C5 6.34 5 5.68 5 5 C3.35 4.67 1.7 4.34 0 4 C0 2.68 0 1.36 0 0 Z " fill="#E2E4B1" transform="translate(175,25)"/>
<path d="M0 0 C5.28 0.33 10.56 0.66 16 1 C16 1.99 16 2.98 16 4 C10.63486869 3.152874 5.3212615 2.08318169 0 1 C0 0.67 0 0.34 0 0 Z " fill="#6D979D" transform="translate(108,58)"/>
<path d="M0 0 C4.81938524 -0.23509196 8.46298506 0.54815522 13 2 C13 2.33 13 2.66 13 3 C6.73 3 0.46 3 -6 3 C-6 2.67 -6 2.34 -6 2 C-4.02 1.67 -2.04 1.34 0 1 C0 0.67 0 0.34 0 0 Z " fill="#38383A" transform="translate(30,201)"/>
<path d="M0 0 C2.375 -0.125 2.375 -0.125 5 0 C7.35953094 2.35953094 7.49141413 3.77895617 8 7 C4.59679258 5.98823563 3.24274669 5.35156418 1.1875 2.375 C0.795625 1.59125 0.40375 0.8075 0 0 Z " fill="#4A4A4B" transform="translate(12,176)"/>
<path d="M0 0 C2.31 0 4.62 0 7 0 C6.67 0.99 6.34 1.98 6 3 C5.01 3 4.02 3 3 3 C3 3.66 3 4.32 3 5 C1.68 4.67 0.36 4.34 -1 4 C-0.67 2.68 -0.34 1.36 0 0 Z " fill="#FBFBEF" transform="translate(73,83)"/>
<path d="M0 0 C2.91997367 1.10757622 3.87553962 1.77813585 5.4375 4.5625 C6.79062712 7.25430285 6.79062712 7.25430285 9.6875 7.8125 C10.8321875 7.9053125 10.8321875 7.9053125 12 8 C9 10 9 10 5 10 C2 4.25 2 4.25 2 2 C1.34 2 0.68 2 0 2 C0 1.34 0 0.68 0 0 Z " fill="#BDD05C" transform="translate(68,72)"/>
<path d="M0 0 C0.66 0 1.32 0 2 0 C2 1.32 2 2.64 2 4 C1.01 4.495 1.01 4.495 0 5 C-1.04808041 6.97522846 -2.0520411 8.97481509 -3 11 C-3.66 11 -4.32 11 -5 11 C-3.78065514 6.96678237 -2.44045073 3.45730521 0 0 Z " fill="#E6F6FC" transform="translate(156,69)"/>
<path d="M0 0 C0.99 0.66 1.98 1.32 3 2 C3 3.32 3 4.64 3 6 C3.66 6.33 4.32 6.66 5 7 C4.01 7.495 4.01 7.495 3 8 C1.86649466 10.01669827 1.86649466 10.01669827 1 12 C0.01 10.02 -0.98 8.04 -2 6 C-0.68 6.33 0.64 6.66 2 7 C1.34 6.01 0.68 5.02 0 4 C0 2.68 0 1.36 0 0 Z " fill="#F1F8C4" transform="translate(65,68)"/>
<path d="M0 0 C4.76350585 0.71452588 9.34201396 1.79534844 14 3 C14 3.33 14 3.66 14 4 C9.48382401 4.07654536 5.40914783 4.10228696 1 3 C0.67 2.01 0.34 1.02 0 0 Z " fill="#A1C763" transform="translate(114,60)"/>
<path d="M0 0 C0.33 0.66 0.66 1.32 1 2 C3.02463255 2.65213292 3.02463255 2.65213292 5 3 C4.67 4.32 4.34 5.64 4 7 C2.02 7 0.04 7 -2 7 C-1.01 6.34 -0.02 5.68 1 5 C-0.65 3.68 -2.3 2.36 -4 1 C-2.68 0.67 -1.36 0.34 0 0 Z " fill="#DEEFF4" transform="translate(151,57)"/>
<path d="M0 0 C1.32 0.66 2.64 1.32 4 2 C3.6875 3.9375 3.6875 3.9375 3 6 C2.01 6.33 1.02 6.66 0 7 C-0.66 5.35 -1.32 3.7 -2 2 C-1.34 2 -0.68 2 0 2 C0 1.34 0 0.68 0 0 Z " fill="#F4FABF" transform="translate(110,115)"/>
<path d="M0 0 C4.68520915 1.21815438 8.70543612 2.69559987 13 5 C9.78177396 6.07033136 7.96857567 5.95795392 4.8125 4.75 C3.77029297 4.37101562 3.77029297 4.37101562 2.70703125 3.984375 C1 3 1 3 0 0 Z " fill="#F0F6C3" transform="translate(59,108)"/>
<path d="M0 0 C1.32 0.33 2.64 0.66 4 1 C4.33 2.65 4.66 4.3 5 6 C3.0625 6.5625 3.0625 6.5625 1 7 C0 6 0 6 -0.0625 2.9375 C-0.041875 1.968125 -0.02125 0.99875 0 0 Z " fill="#CFDB86" transform="translate(162,25)"/>
<path d="M0 0 C3.3 0 6.6 0 10 0 C10 0.66 10 1.32 10 2 C6.37 2.33 2.74 2.66 -1 3 C-0.67 2.01 -0.34 1.02 0 0 Z " fill="#F2FDFE" transform="translate(142,64)"/>
<path d="M0 0 C2.875 0.25 2.875 0.25 6 1 C7.375 3.0625 7.375 3.0625 8 5 C7.01 5.495 7.01 5.495 6 6 C3.5249829 4.88568235 1.32116581 3.41849022 -1 2 C-0.67 1.34 -0.34 0.68 0 0 Z " fill="#E7F3FA" transform="translate(132,48)"/>
<path d="M0 0 C2.31 0 4.62 0 7 0 C7 1.32 7 2.64 7 4 C4.69 3.67 2.38 3.34 0 3 C0 2.01 0 1.02 0 0 Z " fill="#C6D76E" transform="translate(165,41)"/>
<path d="M0 0 C0.99 0.33 1.98 0.66 3 1 C3.66 0.67 4.32 0.34 5 0 C5.99 1.32 6.98 2.64 8 4 C7.67 4.66 7.34 5.32 7 6 C5.88625 5.505 5.88625 5.505 4.75 5 C1.86116688 3.77217129 1.86116688 3.77217129 -2 4 C-1 1 -1 1 0 0 Z " fill="#CAD883" transform="translate(136,29)"/>
<path d="M0 0 C0.33 0.99 0.66 1.98 1 3 C0.34 3 -0.32 3 -1 3 C-0.67 5.97 -0.34 8.94 0 12 C-2.39763185 9.60236815 -2.34280586 8.66726502 -2.625 5.375 C-2.69976562 4.55773437 -2.77453125 3.74046875 -2.8515625 2.8984375 C-2.92503906 1.95871094 -2.92503906 1.95871094 -3 1 C-3.99 0.67 -4.98 0.34 -6 0 C-2.25 -1.125 -2.25 -1.125 0 0 Z " fill="#EBF3B7" transform="translate(90,84)"/>
<path d="M0 0 C2.31 0 4.62 0 7 0 C6.67 1.32 6.34 2.64 6 4 C4.02 4 2.04 4 0 4 C0 2.68 0 1.36 0 0 Z " fill="#FCFDF3" transform="translate(82,80)"/>
<path d="M0 0 C0.66 0 1.32 0 2 0 C0.6062718 4.43458973 -1.60582235 6.87378374 -5 10 C-5.33 8.02 -5.66 6.04 -6 4 C-4.7934375 3.566875 -4.7934375 3.566875 -3.5625 3.125 C-0.8673532 2.26737432 -0.8673532 2.26737432 0 0 Z " fill="#E1F2F8" transform="translate(78,38)"/>
<path d="M0 0 C0.99 0.33 1.98 0.66 3 1 C1.79618552 3.49361571 0.54571278 5.68143083 -1 8 C-2.65 7.67 -4.3 7.34 -6 7 C-5.195625 6.21625 -4.39125 5.4325 -3.5625 4.625 C-1.01309583 2.28017144 -1.01309583 2.28017144 0 0 Z " fill="#B7CA55" transform="translate(154,42)"/>
<path d="M0 0 C1.1875 1.625 1.1875 1.625 2 4 C0.625 7.25 0.625 7.25 -1 10 C-2.42944945 7.64561267 -3.08661261 6.51967567 -2.625 3.75 C-2.41875 3.1725 -2.2125 2.595 -2 2 C-1.34 2 -0.68 2 0 2 C0 1.34 0 0.68 0 0 Z " fill="#4A4A4B" transform="translate(102,185)"/>
<path d="M0 0 C3.01111938 4.51667907 3.10067926 7.6639991 3 13 C0.95204577 11.0373772 0.05023362 9.5722693 -0.19921875 6.73046875 C-0.18858877 4.48045617 -0.12958525 2.24614438 0 0 Z " fill="#BACD57" transform="translate(89,96)"/>
<path d="M0 0 C0.66 1.65 1.32 3.3 2 5 C0.35 5.33 -1.3 5.66 -3 6 C-2.67 4.68 -2.34 3.36 -2 2 C-3.98 2 -5.96 2 -8 2 C-8 1.67 -8 1.34 -8 1 C-5.23735711 0.40267181 -2.83967231 0 0 0 Z " fill="#EDF7D2" transform="translate(133,65)"/>
<path d="M0 0 C1.79240663 0.11389875 3.58394835 0.24147687 5.375 0.375 C6.87160156 0.47941406 6.87160156 0.47941406 8.3984375 0.5859375 C11 1 11 1 13 3 C9.7 2.67 6.4 2.34 3 2 C2.67 2.99 2.34 3.98 2 5 C1.34 3.35 0.68 1.7 0 0 Z " fill="#BBCD60" transform="translate(53,46)"/>
<path d="M0 0 C2 3 2 3 1.8125 5.4375 C0.94929871 8.15990408 -0.24828281 9.77612184 -2 12 C-1.85904936 10.3745692 -1.71207913 8.74965949 -1.5625 7.125 C-1.48128906 6.22007813 -1.40007813 5.31515625 -1.31640625 4.3828125 C-1 2 -1 2 0 0 Z " fill="#B6CB4A" transform="translate(40,67)"/>
<path d="M0 0 C3.465 1.98 3.465 1.98 7 4 C7 4.99 7 5.98 7 7 C7.66 7.33 8.32 7.66 9 8 C7.0625 7.6875 7.0625 7.6875 5 7 C4.67 6.01 4.34 5.02 4 4 C1.98491642 3.26676204 1.98491642 3.26676204 0 3 C0 2.01 0 1.02 0 0 Z " fill="#F9FDD6" transform="translate(100,93)"/>
<path d="M0 0 C0.66 0 1.32 0 2 0 C2 0.99 2 1.98 2 3 C2.66 3 3.32 3 4 3 C3.67 4.65 3.34 6.3 3 8 C2.01 7.34 1.02 6.68 0 6 C-0.1875 2.875 -0.1875 2.875 0 0 Z " fill="#5F90D1" transform="translate(136,77)"/>
<path d="M0 0 C0.66 0 1.32 0 2 0 C2.33 2.64 2.66 5.28 3 8 C1.68 7.34 0.36 6.68 -1 6 C-1.042721 4.33388095 -1.04063832 2.66617115 -1 1 C-0.67 0.67 -0.34 0.34 0 0 Z " fill="#FCFDEE" transform="translate(68,75)"/>
<path d="M0 0 C2.64 0 5.28 0 8 0 C6 3 6 3 3.375 3.6875 C2.199375 3.8421875 2.199375 3.8421875 1 4 C0.67 2.68 0.34 1.36 0 0 Z " fill="#F2FCFB" transform="translate(133,65)"/>
<path d="M0 0 C2.97 0.495 2.97 0.495 6 1 C6 2.32 6 3.64 6 5 C3.5625 4.1875 3.5625 4.1875 1 3 C0.67 2.01 0.34 1.02 0 0 Z " fill="#C0D556" transform="translate(141,29)"/>
<path d="M0 0 C0.66 0 1.32 0 2 0 C1.33333333 4 0.66666667 8 0 12 C-0.33 12 -0.66 12 -1 12 C-1.02687279 10.18757948 -1.04633715 8.37504767 -1.0625 6.5625 C-1.07410156 5.55316406 -1.08570312 4.54382813 -1.09765625 3.50390625 C-1 1 -1 1 0 0 Z " fill="#F3F9CA" transform="translate(32,84)"/>
<path d="M0 0 C0.33 0 0.66 0 1 0 C1.19392201 5.52677733 0.7479503 9.75614911 -1 15 C-1.33 15 -1.66 15 -2 15 C-2.19392201 9.47322267 -1.7479503 5.24385089 0 0 Z " fill="#6695B1" transform="translate(134,78)"/>
<path d="M0 0 C2.50037734 2.17424117 3.43628586 3.73045798 4 7 C2.68 7 1.36 7 0 7 C-1.125 2.25 -1.125 2.25 0 0 Z " fill="#BCD24E" transform="translate(66,80)"/>
<path d="M0 0 C2.125 0.375 2.125 0.375 4 1 C4 2.65 4 4.3 4 6 C2.68 5.67 1.36 5.34 0 5 C0 4.34 0 3.68 0 3 C-0.66 2.67 -1.32 2.34 -2 2 C-1.34 1.34 -0.68 0.68 0 0 Z " fill="#F8FBE3" transform="translate(48,45)"/>
<path d="M0 0 C2.50037734 2.17424117 3.43628586 3.73045798 4 7 C2.68 7.33 1.36 7.66 0 8 C0 5.36 0 2.72 0 0 Z " fill="#ECECEE" transform="translate(73,184)"/>
<path d="M0 0 C0.66 0 1.32 0 2 0 C2.66 1.98 3.32 3.96 4 6 C2.35 5.67 0.7 5.34 -1 5 C-0.67 3.35 -0.34 1.7 0 0 Z " fill="#4D4D4F" transform="translate(75,162)"/>
<path d="M0 0 C1.32 0 2.64 0 4 0 C4 0.66 4 1.32 4 2 C4.66 2 5.32 2 6 2 C6 2.66 6 3.32 6 4 C5.34 4 4.68 4 4 4 C4 4.66 4 5.32 4 6 C3.34 6 2.68 6 2 6 C1.34 4.02 0.68 2.04 0 0 Z " fill="#F7FCCA" transform="translate(96,118)"/>
<path d="M0 0 C0.66 1.32 1.32 2.64 2 4 C0.35 5.65 -1.3 7.3 -3 9 C-3 5.30581799 -1.71820705 3.22163822 0 0 Z " fill="#E0F4F8" transform="translate(149,81)"/>
<path d="M0 0 C0.33 1.32 0.66 2.64 1 4 C2.98 4 4.96 4 7 4 C7 4.66 7 5.32 7 6 C4.03 5.67 1.06 5.34 -2 5 C-1.34 3.35 -0.68 1.7 0 0 Z " fill="#7397A1" transform="translate(75,45)"/>
<path d="M0 0 C2.97 0.495 2.97 0.495 6 1 C6 1.99 6 2.98 6 4 C4.35 4 2.7 4 1 4 C0.67 2.68 0.34 1.36 0 0 Z " fill="#999999" transform="translate(216,158)"/>
<path d="M0 0 C3.71888239 0.50712033 6.73454239 1.11608215 10 3 C10 3.66 10 4.32 10 5 C8.51800098 4.55090939 7.03944764 4.09043436 5.5625 3.625 C4.73878906 3.36976562 3.91507812 3.11453125 3.06640625 2.8515625 C1 2 1 2 0 0 Z " fill="#BBCE58" transform="translate(66,110)"/>
<path d="M0 0 C0.99 0.495 0.99 0.495 2 1 C2.6328125 3.06640625 2.6328125 3.06640625 3.125 5.5625 C3.29257813 6.38878906 3.46015625 7.21507813 3.6328125 8.06640625 C3.75398438 8.70449219 3.87515625 9.34257813 4 10 C3.34 9.67 2.68 9.34 2 9 C2 8.34 2 7.68 2 7 C1.34 7 0.68 7 0 7 C0 4.69 0 2.38 0 0 Z " fill="#C5D66B" transform="translate(92,107)"/>
<path d="M0 0 C1.20628008 2.33214148 2.1654738 4.49642139 3 7 C1.68 6.67 0.36 6.34 -1 6 C-1.33 4.35 -1.66 2.7 -2 1 C-1.34 0.67 -0.68 0.34 0 0 Z " fill="#FCFDEE" transform="translate(64,68)"/>
<path d="M0 0 C1.60517097 0.08733576 3.20921662 0.19552224 4.8125 0.3125 C6.15248047 0.39951172 6.15248047 0.39951172 7.51953125 0.48828125 C10.30604 1.06313581 11.24135754 1.8206856 13 4 C12.01 3.7834375 12.01 3.7834375 11 3.5625 C7.34400449 2.87700084 3.69377805 2.43824485 0 2 C0 1.34 0 0.68 0 0 Z " fill="#709894" transform="translate(95,54)"/>
<path d="M0 0 C0.33 0.66 0.66 1.32 1 2 C-0.3125 4 -0.3125 4 -2 6 C-2.99 6 -3.98 6 -5 6 C-5 5.01 -5 4.02 -5 3 C-2.5 1.3125 -2.5 1.3125 0 0 Z " fill="#B3CD2D" transform="translate(153,42)"/>
<path d="M0 0 C0.99 0.33 1.98 0.66 3 1 C2.01 2.32 1.02 3.64 0 5 C-2.9375 4.625 -2.9375 4.625 -6 4 C-6.33 3.34 -6.66 2.68 -7 2 C-4.69 2 -2.38 2 0 2 C0 1.34 0 0.68 0 0 Z " fill="#C0D271" transform="translate(131,33)"/>
<path d="M0 0 C2.57343171 1.07918104 4.66603411 2.44402274 7 4 C4.36 4 1.72 4 -1 4 C-1.33 3.01 -1.66 2.02 -2 1 C-1.34 0.67 -0.68 0.34 0 0 Z " fill="#5C5C5D" transform="translate(30,163)"/>
<path d="M0 0 C1.9375 0.75 1.9375 0.75 4 2 C4.75 4.125 4.75 4.125 5 6 C4.01 6 3.02 6 2 6 C1.34 5.34 0.68 4.68 0 4 C0 2.68 0 1.36 0 0 Z " fill="#FDFDF2" transform="translate(58,61)"/>
<path d="M0 0 C4.75 0.75 4.75 0.75 7 3 C2.545 3.495 2.545 3.495 -2 4 C-2 3.34 -2 2.68 -2 2 C-1.34 2 -0.68 2 0 2 C0 1.34 0 0.68 0 0 Z " fill="#D0D8A3" transform="translate(163,36)"/>
<path d="M0 0 C0.33 1.32 0.66 2.64 1 4 C-0.98 4.33 -2.96 4.66 -5 5 C-4.67 4.01 -4.34 3.02 -4 2 C-2.68 2 -1.36 2 0 2 C0 1.34 0 0.68 0 0 Z " fill="#B5D21F" transform="translate(90,110)"/>
<path d="M0 0 C2.97 0.99 5.94 1.98 9 3 C9 3.33 9 3.66 9 4 C3.375 4.25 3.375 4.25 0 2 C0 1.34 0 0.68 0 0 Z " fill="#EEF5BF" transform="translate(33,96)"/>
<path d="M0 0 C-0.33 2.31 -0.66 4.62 -1 7 C-1.33 7 -1.66 7 -2 7 C-2 5.35 -2 3.7 -2 2 C-3.65 2 -5.3 2 -7 2 C-4.35261084 0.5393715 -3.10551666 0 0 0 Z " fill="#AFCC78" transform="translate(135,70)"/>
<path d="M0 0 C0.66 0.33 1.32 0.66 2 1 C2 2.65 2 4.3 2 6 C0.68 6 -0.64 6 -2 6 C-1.125 1.125 -1.125 1.125 0 0 Z " fill="#C0D35E" transform="translate(43,58)"/>
<path d="M0 0 C0.99 0 1.98 0 3 0 C3 1.65 3 3.3 3 5 C4.32 5.33 5.64 5.66 7 6 C5.35 6 3.7 6 2 6 C1.34 4.02 0.68 2.04 0 0 Z " fill="#6C91B2" transform="translate(94,49)"/>
<path d="M0 0 C6.52307692 -0.36923077 6.52307692 -0.36923077 8.9375 1.5 C9.288125 1.995 9.63875 2.49 10 3 C3.375 2.25 3.375 2.25 0 0 Z " fill="#B5CC61" transform="translate(66,49)"/>
<path d="M0 0 C2.97 0.99 5.94 1.98 9 3 C8.67 3.66 8.34 4.32 8 5 C4.35446828 3.7191375 2.83328987 2.83328987 0 0 Z " fill="#DDEEF8" transform="translate(112,38)"/>
</svg>
