<?xml version="1.0" encoding="UTF-8"?>
<svg version="1.1" xmlns="http://www.w3.org/2000/svg" width="225" height="225">
<path d="M0 0 C74.25 0 148.5 0 225 0 C225 74.25 225 148.5 225 225 C150.75 225 76.5 225 0 225 C0 150.75 0 76.5 0 0 Z " fill="#FCFCFC" transform="translate(0,0)"/>
<path d="M0 0 C1.1226828 -0.00058411 2.2453656 -0.00116821 3.40206909 -0.00177002 C7.09787347 0.00100763 10.79286259 0.03208626 14.48852539 0.06347656 C17.05684468 0.07094004 19.62516968 0.07663247 22.1934967 0.08062744 C28.25308897 0.09431829 34.31234682 0.12581523 40.37181336 0.1660254 C47.27385881 0.21082684 54.17591858 0.23275109 61.07807338 0.25280714 C75.26843186 0.29455077 89.4585464 0.3648503 103.64868164 0.45410156 C104.15380408 2.05666264 104.65259791 3.66121948 105.14868164 5.26660156 C105.56633789 6.60658203 105.56633789 6.60658203 105.99243164 7.97363281 C106.64868164 10.45410156 106.64868164 10.45410156 106.64868164 13.45410156 C71.66868164 13.45410156 36.68868164 13.45410156 0.64868164 13.45410156 C0.64868164 14.11410156 0.64868164 14.77410156 0.64868164 15.45410156 C1.24229524 15.72184293 1.83590883 15.98958429 2.44751072 16.26543903 C4.67656135 17.46915699 6.09995653 18.67299327 7.86741638 20.47270203 C8.47992249 21.09112976 9.09242859 21.7095575 9.72349548 22.34672546 C10.71404686 23.36220207 10.71404686 23.36220207 11.72460938 24.39819336 C12.42917267 25.11210236 13.13373596 25.82601135 13.85964966 26.56155396 C15.38788673 28.11078259 16.91394552 29.66216232 18.43807793 31.21542931 C20.84902781 33.67037846 23.26780688 36.11734324 25.68922424 38.56196594 C32.57262315 45.51261498 39.44775966 52.47126757 46.30224609 59.45043945 C50.49561447 63.71894673 54.70334466 67.9728285 58.92076302 72.21756935 C60.52711385 73.84006594 62.12788449 75.46810645 63.72299004 77.10165977 C65.94960563 79.38101315 68.19396061 81.64135379 70.44335938 83.89819336 C71.10170273 84.58125046 71.76004608 85.26430756 72.43833923 85.96806335 C75.8005456 89.4834043 75.8005456 89.4834043 80.31506348 90.62437439 C83.16314148 89.19610804 84.97069038 87.57702488 87.19189453 85.28564453 C88.0595192 84.40157928 88.92714386 83.51751404 89.82106018 82.60665894 C90.27732851 82.13229275 90.73359684 81.65792656 91.20369148 81.16918564 C92.636199 79.68084877 94.08137273 78.20594317 95.53062439 76.73391724 C99.12484115 73.07832317 102.69875091 69.40312202 106.26873779 65.72387695 C109.29051658 62.61011912 112.321813 59.50632621 115.36785698 56.4162941 C116.79383063 54.9615986 118.20442896 53.49302491 119.61524963 52.02365112 C120.91195839 50.70700974 120.91195839 50.70700974 122.23486328 49.36376953 C122.99255508 48.58290985 123.75024689 47.80205017 124.53089905 46.99752808 C126.64868164 45.45410156 126.64868164 45.45410156 128.79075623 45.62161255 C131.09383872 46.6535651 132.91269968 47.96091569 134.89868164 49.51660156 C135.60508789 50.06445312 136.31149414 50.61230469 137.03930664 51.17675781 C137.83594727 51.80904297 137.83594727 51.80904297 138.64868164 52.45410156 C133.3776675 58.86479444 127.55740012 64.64000669 121.64868164 70.45410156 C126.58487076 76.40524575 131.91551321 81.86626604 137.38696289 87.32519531 C138.30833542 88.24752457 139.22970795 89.16985382 140.17900085 90.12013245 C142.11462381 92.05721917 144.05201774 93.99251164 145.99072266 95.92651367 C148.48031316 98.41035952 150.96532248 100.89873314 153.4490633 103.38842678 C155.82177808 105.76560577 158.19827513 108.13898779 160.57446289 110.51269531 C161.46917801 111.40943466 162.36389313 112.30617401 163.28572083 113.23008728 C164.51786568 114.45750389 164.51786568 114.45750389 165.77490234 115.7097168 C166.50070999 116.43472885 167.22651764 117.15974091 167.97431946 117.90672302 C169.39110219 119.56721981 169.39110219 119.56721981 170.64868164 119.45410156 C170.63416458 118.25593056 170.63416458 118.25593056 170.61935425 117.03355408 C170.53681166 109.48580185 170.5025258 101.94006836 170.52171135 94.39194393 C170.5298916 90.5116208 170.51976691 86.63318526 170.46704102 82.75317383 C170.41678725 79.00458491 170.41562123 75.25882902 170.4477272 71.51007271 C170.45146322 70.08396845 170.43785048 68.6577045 170.40618515 67.23194695 C170.17556886 56.08910272 170.17556886 56.08910272 173.84942627 52.01150513 C177.32319264 49.52067692 180.59838894 47.80419913 184.64868164 46.45410156 C184.74156753 56.22502311 184.81254072 65.99583875 184.85593033 75.76711273 C184.87676053 80.30486198 184.9049941 84.84230803 184.95043945 89.37988281 C184.99406099 93.76303568 185.01785307 98.14589783 185.02819061 102.5292511 C185.03555283 104.19733757 185.04992945 105.86540904 185.07160187 107.53337097 C185.28758718 124.85281236 185.28758718 124.85281236 178.97290039 132.47753906 C178.4327832 132.92355469 177.89266602 133.36957031 177.33618164 133.82910156 C176.53760742 134.52132812 176.53760742 134.52132812 175.72290039 135.22753906 C170.54315536 138.29051446 165.04334341 138.70695513 159.14785767 138.72825623 C158.06422819 138.73611124 158.06422819 138.73611124 156.95870721 138.74412495 C154.55534074 138.75904074 152.15218874 138.75982822 149.7487793 138.76049805 C148.01852564 138.76812509 146.28827536 138.77655352 144.55802917 138.78572083 C139.86996577 138.80761608 135.18196757 138.81645777 130.49385881 138.82154727 C127.56215554 138.82519605 124.63046922 138.83143874 121.69877243 138.83854866 C111.4633179 138.8630237 101.22791393 138.87609132 90.99243164 138.87963867 C81.46349999 138.88327474 71.93489026 138.91318023 62.406057 138.95504326 C54.21389976 138.98976754 46.02184913 139.00518746 37.82961881 139.00588471 C32.94160222 139.00667664 28.05391396 139.01537736 23.16597366 139.04388237 C18.56768031 139.07010044 13.96998673 139.07224746 9.3716526 139.05622673 C7.68867876 139.05441535 6.00567011 139.06107488 4.32277107 139.07704544 C-6.01291959 139.1691147 -13.96532821 138.69835513 -21.72631836 131.14160156 C-25.93945511 124.17372155 -26.79202884 118.19101439 -26.73950195 110.21777344 C-26.74475891 109.2248378 -26.75001587 108.23190216 -26.75543213 107.20887756 C-26.76856972 103.94670597 -26.75991599 100.6850276 -26.74975586 97.42285156 C-26.75177838 95.14416409 -26.75469131 92.86547725 -26.75845337 90.58679199 C-26.76286828 85.8190289 -26.75647235 81.05143481 -26.74243164 76.28369141 C-26.72534047 70.18407487 -26.73518608 64.0848544 -26.75314903 57.98525238 C-26.76400926 53.28225745 -26.76053021 48.57935583 -26.75276566 43.87635803 C-26.75076985 41.62777153 -26.75320107 39.37917646 -26.76020432 37.13059998 C-26.76785551 33.98364949 -26.75616279 30.83733316 -26.73950195 27.69042969 C-26.74861099 26.30773643 -26.74861099 26.30773643 -26.75790405 24.89710999 C-26.68980919 17.9254527 -25.64502287 12.25751818 -21.10131836 6.70410156 C-13.91904854 0.82769899 -9.13731493 -0.12512729 0 0 Z " fill="#010101" transform="translate(26.351318359375,61.5458984375)"/>
<path d="M0 0 C1.41482285 0.46649 2.83022608 0.93122212 4.24609375 1.39453125 C5.41180908 1.77859131 5.41180908 1.77859131 6.60107422 2.17041016 C9.48463554 3.09530551 12.38170895 3.96382073 15.28515625 4.82421875 C16.32373779 5.13294922 17.36231934 5.44167969 18.43237305 5.75976562 C20.50168309 6.37308581 22.57214626 6.98253014 24.64379883 7.58789062 C25.59407959 7.87212891 26.54436035 8.15636719 27.5234375 8.44921875 C28.37470215 8.70018311 29.2259668 8.95114746 30.10302734 9.2097168 C32.1875 10 32.1875 10 34.1875 12 C38.82563853 25.28454493 35.86950286 39.85454146 30.0625 52.25 C26.60695205 58.74643015 22.45682952 63.89619916 17.1875 69 C16.56230469 69.62261719 15.93710938 70.24523437 15.29296875 70.88671875 C10.16001562 75.69548536 0.99382233 84.11978373 -6.3203125 83.9375 C-22.17552455 77.97315691 -35.29017038 64.72134457 -42.671875 49.75 C-45.68879143 42.47633847 -47.28542697 36.34975796 -47.125 28.4375 C-47.12822266 27.63892578 -47.13144531 26.84035156 -47.13476562 26.01757812 C-47.11344535 23.63939853 -47.0714553 21.36604584 -46.8125 19 C-46.74589172 18.35623917 -46.67928345 17.71247833 -46.61065674 17.04920959 C-46.24517597 14.81946025 -45.80678206 13.03235353 -44.8125 11 C-42.12181089 9.36666731 -40.25123208 8.51552816 -37.3203125 7.62890625 C-36.57796356 7.37624496 -35.83561462 7.12358368 -35.07077026 6.86326599 C-32.70205959 6.06524294 -30.32136915 5.31386898 -27.9375 4.5625 C-26.34145813 4.03226698 -24.74638989 3.49909358 -23.15234375 2.96289062 C-7.11914032 -2.3854711 -7.11914032 -2.3854711 0 0 Z " fill="#020202" transform="translate(188.8125,27)"/>
<path d="M0 0 C3.3741461 1.59411743 5.52223677 3.32198879 8.1171875 6.02734375 C9.27541016 7.21553711 9.27541016 7.21553711 10.45703125 8.42773438 C12.06329916 10.09498337 13.66748339 11.76424246 15.26953125 13.43554688 C20.39440568 18.68406636 24.31780652 22.58426848 31.875 23.4375 C42.81370331 22.89480863 49.37956913 13.87106652 56.28515625 6.47070312 C57.09339844 5.62830078 57.90164062 4.78589844 58.734375 3.91796875 C59.45850586 3.14219482 60.18263672 2.3664209 60.92871094 1.56713867 C63 0 63 0 64.87158203 0.16744995 C67.5927965 1.23187774 69.06067673 2.68650973 71.12597656 4.75366211 C71.92650452 5.54796127 72.72703247 6.34226044 73.55181885 7.16062927 C74.83327789 8.45590294 74.83327789 8.45590294 76.140625 9.77734375 C77.02280701 10.65902725 77.90498901 11.54071075 78.81390381 12.44911194 C80.67684534 14.31439447 82.53659572 16.18230037 84.39160156 18.05541992 C86.77288986 20.45944444 89.16514619 22.85218562 91.56119156 25.24149227 C93.84290293 27.51906646 96.11653706 29.80466149 98.390625 32.08984375 C99.25302795 32.9513353 100.11543091 33.81282684 101.00396729 34.70042419 C101.7918866 35.49787552 102.57980591 36.29532684 103.39160156 37.11694336 C104.43939789 38.17165077 104.43939789 38.17165077 105.50836182 39.24766541 C107 41 107 41 107 43 C57.83 43 8.66 43 -42 43 C-35.25 35.125 -35.25 35.125 -32.01416016 31.90063477 C-31.29386627 31.18041641 -30.57357239 30.46019806 -29.83145142 29.71815491 C-29.07496307 28.96682785 -28.31847473 28.21550079 -27.5390625 27.44140625 C-26.74849457 26.65225327 -25.95792664 25.86310028 -25.1434021 25.05003357 C-22.63962374 22.55181339 -20.13237525 20.05710956 -17.625 17.5625 C-15.91773752 15.86025792 -14.21070391 14.15778627 -12.50390625 12.45507812 C-8.33858102 8.30072637 -4.17040781 4.14924919 0 0 Z " fill="#FCFCFC" transform="translate(73,143)"/>
<path d="M0 0 C4.10338418 3.51718644 7.96284248 6.83810314 11.74194336 10.62841797 C12.60230698 11.48885712 13.46267059 12.34929626 14.34910583 13.23580933 C15.25354935 14.14541412 16.15799286 15.05501892 17.08984375 15.9921875 C18.04368954 16.94790248 18.99775941 17.90339388 19.95204163 18.8586731 C22.44153194 21.35194916 24.92800224 23.84821525 27.41381836 26.34515381 C29.95957994 28.90121509 32.50823777 31.45438505 35.05664062 34.0078125 C40.04057069 39.00241019 45.02131048 44.00017799 50 49 C45.06757111 54.94115185 39.75164046 60.40944175 34.296875 65.87109375 C33.37787415 66.793423 32.45887329 67.71575226 31.51202393 68.66603088 C29.5807408 70.6032586 27.64744632 72.53845273 25.71289062 74.47241211 C23.23063476 76.95456546 20.75538219 79.44358192 18.28174973 81.93432522 C15.91626148 84.31355388 13.54364953 86.68563169 11.171875 89.05859375 C9.83754425 90.40370277 9.83754425 90.40370277 8.47625732 91.77598572 C7.65490295 92.59426346 6.83354858 93.4125412 5.98730469 94.25561523 C5.26371765 94.98062729 4.54013062 95.70563934 3.7946167 96.45262146 C2 98 2 98 0 98 C0 65.66 0 33.32 0 0 Z " fill="#FEFEFE" transform="translate(14,83)"/>
<path d="M0 0 C7.4371501 2.23114503 14.7412757 4.57075817 22.0625 7.125 C23.10599609 7.48464844 24.14949219 7.84429687 25.22460938 8.21484375 C26.21396484 8.55902344 27.20332031 8.90320312 28.22265625 9.2578125 C29.11734619 9.5686377 30.01203613 9.87946289 30.93383789 10.19970703 C33 11 33 11 34 12 C35.09129281 27.38543968 32.8737492 39.70150266 23 52 C22.56171875 52.61230469 22.1234375 53.22460938 21.671875 53.85546875 C16.64642765 60.4702895 8.0786226 66.98034435 0 69 C0 46.23 0 23.46 0 0 Z " fill="#FBFBFB" transform="translate(183,33)"/>
</svg>
