<?xml version="1.0" encoding="UTF-8"?>
<svg version="1.1" xmlns="http://www.w3.org/2000/svg" width="759" height="237">
<path d="M0 0 C6.93 0 13.86 0 21 0 C21.01458252 1.90620117 21.02916504 3.81240234 21.04418945 5.77636719 C21.09611787 12.1187668 21.16147584 18.46092056 21.23571491 24.80309677 C21.28018644 28.6432861 21.31949146 32.48337499 21.34643555 36.32373047 C21.37270311 40.03924677 21.41326471 43.75437159 21.46318626 47.46964264 C21.4796983 48.87754648 21.49130899 50.28551778 21.49761391 51.69350433 C21.55819897 63.99479594 22.27256992 76.52182325 31 86 C33.86145853 88.27449268 36.84343009 90.1661832 40 92 C41.485 92.99 41.485 92.99 43 94 C43 94.66 43 95.32 43 96 C35.9066169 98.03832848 28.8933746 97.39769551 22 95 C21.67 95.33 21.34 95.66 21 96 C19.49740523 96.09910095 17.99023289 96.13079701 16.484375 96.1328125 C15.56269531 96.13410156 14.64101563 96.13539063 13.69140625 96.13671875 C12.72074219 96.13285156 11.75007813 96.12898438 10.75 96.125 C9.79480469 96.12886719 8.83960938 96.13273437 7.85546875 96.13671875 C6.92863281 96.13542969 6.00179687 96.13414062 5.046875 96.1328125 C4.19963867 96.13168457 3.35240234 96.13055664 2.47949219 96.12939453 C-0.09672761 95.99495218 -2.47786452 95.52289473 -5 95 C-7.07581653 95.1618535 -7.07581653 95.1618535 -9.125 95.5625 C-19.10198669 96.78484605 -27.86357709 93.71953834 -36 88 C-42.78076507 81.91114973 -47.52591783 74.10089346 -48.23828125 64.93359375 C-48.50844941 52.2072513 -46.02039406 44.37767593 -37.21875 35.09375 C-31.88897307 30.06424219 -31.88897307 30.06424219 -29 29.85546875 C-25.35419241 30.46072978 -22.19230192 31.0048113 -19 33 C-19 32.34 -19 31.68 -19 31 C-20.65 30.67 -22.3 30.34 -24 30 C-24 29.01 -24 28.02 -24 27 C-20.53305953 25.94557772 -17.30140122 25.83373326 -13.6875 25.8125 C-12.05361328 25.79123047 -12.05361328 25.79123047 -10.38671875 25.76953125 C-7 26 -7 26 0 28 C0 18.76 0 9.52 0 0 Z M-18 32 C-18.33 32.66 -18.66 33.32 -19 34 C-18.34 34 -17.68 34 -17 34 C-17.33 33.34 -17.66 32.68 -18 32 Z M-16 33 C-16 33.99 -16 34.98 -16 36 C-13.05763218 38.21168225 -13.05763218 38.21168225 -10 40 C-11.39332574 36.63279613 -12.9789286 35.0140476 -16 33 Z M-10 40 C-9.34 41.32 -8.68 42.64 -8 44 C-7.34 43.34 -6.68 42.68 -6 42 C-7.32 41.34 -8.64 40.68 -10 40 Z M-7 44 C-6.34 45.98 -5.68 47.96 -5 50 C-5.85271484 49.51466797 -5.85271484 49.51466797 -6.72265625 49.01953125 C-10.43109466 47.35932126 -14.01162224 47.54336999 -18 48 C-21.11395357 49.28619821 -22.60562133 50.55122427 -24.8125 53.0625 C-26.57004199 57.41010386 -26.79812125 61.38124276 -26 66 C-23.99875079 69.88337644 -21.04842269 72.40015949 -17 74 C-11.74081296 74.19757232 -7.23809137 73.21067528 -3 70 C0.1734145 66.8265855 -0.62937248 63.21801981 -0.62109375 58.90014648 C-0.74165518 53.19608375 -2.0610572 48.84138345 -5 44 C-5.66 44 -6.32 44 -7 44 Z M-2 70 C-2 75.28 -2 80.56 -2 86 C-1.67 86 -1.34 86 -1 86 C-1 80.72 -1 75.44 -1 70 C-1.33 70 -1.66 70 -2 70 Z M-2 87 C-2 89.31 -2 91.62 -2 94 C-1.67 94 -1.34 94 -1 94 C-1 91.69 -1 89.38 -1 87 C-1.33 87 -1.66 87 -2 87 Z " fill="#404FF0" transform="translate(303,56)"/>
<path d="M0 0 C0.877061 -0.01051392 1.75412201 -0.02102783 2.65776062 -0.03186035 C5.55202869 -0.05823009 8.44408914 -0.04079746 11.33837891 -0.02050781 C13.35471009 -0.02455103 15.37103843 -0.03037536 17.38735962 -0.03790283 C21.61252701 -0.04674583 25.83693293 -0.03390357 30.06201172 -0.00585938 C35.468394 0.02828299 40.87298637 0.00867014 46.2793026 -0.02729416 C50.4436481 -0.04901834 54.60757221 -0.04205477 58.77193069 -0.0265274 C60.76456541 -0.02253438 62.75723881 -0.02740349 64.74982834 -0.04140472 C67.54127382 -0.05671182 70.32986027 -0.03332721 73.12109375 0 C73.9389888 -0.01214539 74.75688385 -0.02429077 75.5995636 -0.0368042 C81.02076812 0.08261107 83.87194402 1.48155824 87.86155128 5.14326096 C90.16103593 7.97021868 90.38429193 10.21327425 90.18994141 13.77636719 C87.63598271 17.47503945 84.73417576 20.10121479 81.19384766 22.83496094 C74.68997652 28.04995187 68.93634836 33.87278575 63.12744141 39.83886719 C61.10063525 41.91881887 59.06725006 43.99201843 57.02978516 46.06152344 C56.14669678 46.96781494 55.2636084 47.87410645 54.35375977 48.80786133 C52.18994141 50.77636719 52.18994141 50.77636719 50.18994141 50.77636719 C49.96306641 51.33324219 49.73619141 51.89011719 49.50244141 52.46386719 C47.4789637 56.02904219 45.30540186 59.00306862 41.33056641 60.45605469 C36.78343663 61.31965686 34.3307537 60.61621662 30.26382446 58.2273407 C25.90480889 55.1775949 22.29580851 51.26396239 18.57275391 47.48730469 C17.67499237 46.58766998 16.77723083 45.68803528 15.8522644 44.76113892 C13.96445207 42.86662601 12.07966651 40.96963532 10.19970703 39.06738281 C7.78892896 36.628162 5.36940772 34.19785267 2.94659615 31.77058983 C0.63130454 29.45015147 -1.67927414 27.1250407 -3.98974609 24.79980469 C-5.29430252 23.48887344 -5.29430252 23.48887344 -6.62521362 22.15145874 C-7.42339508 21.34366974 -8.22157654 20.53588074 -9.04394531 19.70361328 C-9.74897186 18.99175873 -10.45399841 18.27990417 -11.1803894 17.54647827 C-13.46427935 15.06576689 -13.79033218 13.94732942 -14.18505859 10.52636719 C-13.80018771 6.67765831 -13.00559146 4.90400382 -10.45090866 2.03194427 C-7.29737969 -0.38113344 -3.8301981 -0.05659663 0 0 Z M16.18994141 20.77636719 C21.80726303 27.34223136 21.80726303 27.34223136 27.62744141 33.71386719 C28.95582031 35.15052734 28.95582031 35.15052734 30.31103516 36.61621094 C33.06306172 38.99218626 33.06306172 38.99218626 36.55322266 39.51464844 C41.74029374 38.46163401 44.29074884 35.71212481 47.93994141 32.02636719 C48.59865234 31.39214844 49.25736328 30.75792969 49.93603516 30.10449219 C53.01371809 27.10796519 55.59456881 24.23686398 58.18994141 20.77636719 C44.32994141 20.77636719 30.46994141 20.77636719 16.18994141 20.77636719 Z " fill="#4B5BFA" transform="translate(13.81005859375,76.2236328125)"/>
<path d="M0 0 C7.03583593 5.92601657 11.98173639 12.89142066 13.25 22.1484375 C13.27574054 23.70586199 13.28220616 25.2636752 13.27368164 26.82128906 C13.2702626 27.63164612 13.26684357 28.44200317 13.26332092 29.2769165 C13.25892502 29.89451843 13.25452911 30.51212036 13.25 31.1484375 C11.93805664 31.17349365 10.62611328 31.1985498 9.27441406 31.22436523 C4.40647633 31.31854421 -0.46132221 31.41873944 -5.32910156 31.52075195 C-7.43583927 31.56406108 -9.54261117 31.60573903 -11.64941406 31.64575195 C-14.67783919 31.70355177 -17.70609285 31.76721846 -20.734375 31.83203125 C-21.67617615 31.84874374 -22.61797729 31.86545624 -23.58831787 31.88267517 C-24.46892883 31.90262039 -25.34953979 31.92256561 -26.25683594 31.94311523 C-27.41599518 31.96643166 -27.41599518 31.96643166 -28.59857178 31.99021912 C-30.75251749 32.14862264 -32.67563438 32.56061956 -34.75 33.1484375 C-35.16986946 35.43679972 -35.16986946 35.43679972 -34.75 38.1484375 C-31.53261968 42.21747732 -28.70212783 43.79785718 -23.75 45.1484375 C-23.255 45.6434375 -23.255 45.6434375 -22.75 46.1484375 C-21.43 46.1484375 -20.11 46.1484375 -18.75 46.1484375 C-17.43 46.1484375 -16.11 46.1484375 -14.75 46.1484375 C-14.42 46.4784375 -14.09 46.8084375 -13.75 47.1484375 C-8.08271615 45.32337999 -4.74729364 43.7513817 -0.75 39.1484375 C0.25 38.1484375 0.25 38.1484375 2.75390625 38.05078125 C3.76324219 38.06238281 4.77257812 38.07398438 5.8125 38.0859375 C6.82441406 38.09496094 7.83632813 38.10398438 8.87890625 38.11328125 C10.05259766 38.13068359 10.05259766 38.13068359 11.25 38.1484375 C9.14453741 45.71046544 4.43081318 50.94123835 -1.74609375 55.6796875 C-8.80132739 59.53049729 -17.95847742 59.316889 -25.75 58.1484375 C-34.55529901 55.55864367 -39.92292845 50.80663605 -44.75 43.1484375 C-45.36875 42.1996875 -45.9875 41.2509375 -46.625 40.2734375 C-50.84516592 32.30201298 -49.1257395 22.18973843 -46.78515625 13.83984375 C-45.20099641 9.72102817 -43.02976197 7.04890727 -39.75 4.1484375 C-39.15058594 3.60445312 -38.55117188 3.06046875 -37.93359375 2.5 C-27.26868593 -6.33356001 -11.69986045 -7.87746286 0 0 Z M-34.1875 13.6484375 C-36.1040502 16.38728605 -36.1040502 16.38728605 -36.75 21.1484375 C-24.54 21.1484375 -12.33 21.1484375 0.25 21.1484375 C0.74613894 15.51278953 0.74613894 15.51278953 -1.25 12.5234375 C-6.25075895 7.7727165 -10.82249538 5.90082407 -17.75 5.5859375 C-25.05137593 5.84406695 -29.20001454 8.53306779 -34.1875 13.6484375 Z M0.25 17.1484375 C1.25 19.1484375 1.25 19.1484375 1.25 19.1484375 Z M-36.75 33.1484375 C-35.75 35.1484375 -35.75 35.1484375 -35.75 35.1484375 Z " fill="#020202" transform="translate(686.75,88.8515625)"/>
<path d="M0 0 C5.38168792 5.10539591 7.95899633 10.49614158 9.75 17.66015625 C9.75 21.29015625 9.75 24.92015625 9.75 28.66015625 C-6.75 28.66015625 -23.25 28.66015625 -40.25 28.66015625 C-36.51283539 37.06877663 -35.11066237 40.13641105 -27.25 43.66015625 C-26.59 43.99015625 -25.93 44.32015625 -25.25 44.66015625 C-19.71867349 44.94141014 -15.49200843 44.40749239 -10.25 42.66015625 C-10.25 42.00015625 -10.25 41.34015625 -10.25 40.66015625 C-9.651875 40.57765625 -9.05375 40.49515625 -8.4375 40.41015625 C-6.07597405 39.85947779 -6.07597405 39.85947779 -5 37.62890625 C-3.25 35.66015625 -3.25 35.66015625 -0.33203125 35.26953125 C0.74691406 35.3159375 1.82585937 35.36234375 2.9375 35.41015625 C4.02417969 35.44625 5.11085937 35.48234375 6.23046875 35.51953125 C7.06191406 35.5659375 7.89335937 35.61234375 8.75 35.66015625 C5.02962339 43.81332202 1.50288042 49.93925737 -6.890625 53.8046875 C-15.28798346 56.84942509 -23.73372484 57.56285063 -32.25 54.66015625 C-40.9388901 50.34312095 -47.23359663 43.74153946 -50.5546875 34.6015625 C-52.51115608 26.32504091 -52.5862008 17.27753292 -48.5234375 9.65625 C-40.74924224 -2.52968183 -40.74924224 -2.52968183 -33.25 -4.33984375 C-32.92 -4.99984375 -32.59 -5.65984375 -32.25 -6.33984375 C-20.42748311 -8.41396952 -9.60453088 -7.88113724 0 0 Z M-35.25 9.66015625 C-35.78625 10.13453125 -36.3225 10.60890625 -36.875 11.09765625 C-38.50059182 12.94491968 -38.93696071 14.23410175 -39.25 16.66015625 C-38.92 17.32015625 -38.59 17.98015625 -38.25 18.66015625 C-26.7 18.66015625 -15.15 18.66015625 -3.25 18.66015625 C-1.78462204 14.05952698 -1.78462204 14.05952698 -3.25390625 11.74609375 C-7.38948002 7.20629096 -10.69332376 4.00798547 -17.0859375 3.3828125 C-24.48684124 3.15438955 -30.1545828 3.8368223 -35.25 9.66015625 Z M-2.25 16.66015625 C-1.25 18.66015625 -1.25 18.66015625 -1.25 18.66015625 Z " fill="#020202" transform="translate(175.25,91.33984375)"/>
<path d="M0 0 C5.61 0 11.22 0 17 0 C17.01458252 1.95220459 17.02916504 3.90440918 17.04418945 5.91577148 C17.09601002 12.39389766 17.16134078 18.87177969 17.23571491 25.34968472 C17.28028364 29.27403616 17.31956865 33.19828701 17.34643555 37.12280273 C17.37260435 40.91611028 17.41310031 44.70902791 17.46318626 48.50209236 C17.47976385 49.94317811 17.49133449 51.38433116 17.49761391 52.82549858 C17.5351049 60.64490502 17.77183501 67.75435778 21 75 C21.7115625 76.60875 21.7115625 76.60875 22.4375 78.25 C26.1227159 84.73597998 31.08757203 88.6162126 37 93 C33.25575888 94.36236243 30.7210554 93.57716027 26.9375 92.5625 C17.9640453 90.47785371 9.1637909 90.7362235 0 91 C-1.03954991 82.0964367 -1.11928731 73.26667943 -1.0625 64.3125 C-1.05747028 62.91731933 -1.05291 61.52213689 -1.04882812 60.12695312 C-1.03714751 56.75125563 -1.02076833 53.37565174 -1 50 C-1.66 50 -2.32 50 -3 50 C-3.20753906 49.3709375 -3.41507812 48.741875 -3.62890625 48.09375 C-6.8674685 39.09623813 -11.72810774 32.84208327 -20 28 C-19.67 27.34 -19.34 26.68 -19 26 C-17.10388566 26.14213297 -15.20811606 26.28886907 -13.3125 26.4375 C-12.25675781 26.51871094 -11.20101563 26.59992188 -10.11328125 26.68359375 C-7 27 -7 27 -4.16796875 27.59765625 C-3.09482422 27.79681641 -3.09482422 27.79681641 -2 28 C-0.19605125 26.19605125 -0.76294211 23.43322201 -0.68359375 20.99609375 C-0.64169922 19.78115234 -0.59980469 18.56621094 -0.55664062 17.31445312 C-0.51732422 16.03505859 -0.47800781 14.75566406 -0.4375 13.4375 C-0.39431641 12.15423828 -0.35113281 10.87097656 -0.30664062 9.54882812 C-0.20015281 6.36602555 -0.09953579 3.18302757 0 0 Z " fill="#404FF0" transform="translate(305,58)"/>
<path d="M0 0 C8.96634021 5.34441068 15.38229776 11.05131883 19 21 C21.56248969 31.79132983 20.38383537 41.31479351 15 51 C13.25344603 53.7056443 11.39107032 55.84803671 9 58 C7.99453125 58.92039062 7.99453125 58.92039062 6.96875 59.859375 C3.91235718 62.29157492 1.53804625 63.98773488 -2.44921875 64.01953125 C-9.6699903 62.33052817 -15.23244887 57.51935727 -20 52 C-20.70081521 50.34740197 -21.37542167 48.6828916 -22 47 C-22.66 46.67 -23.32 46.34 -24 46 C-23.67 44.68 -23.34 43.36 -23 42 C-22.505 42.33 -22.01 42.66 -21.5 43 C-17.99908915 44.40036434 -14.69223681 44.47712802 -11 44 C-7.10786975 42.30776945 -5.63395581 40.83564204 -4 37 C-2.78240731 32.28397199 -2.51518131 29.02557799 -4.625 24.5625 C-7.20122589 21.78288786 -8.30597942 20.73880412 -12 20 C-16.97916406 20.09976467 -21.4818711 20.8138086 -26 23 C-27.06309567 17.82682579 -27.11693938 12.87630664 -27.0625 7.625 C-27.05798828 6.79355469 -27.05347656 5.96210937 -27.04882812 5.10546875 C-27.03713164 3.07028103 -27.01919935 1.03513077 -27 -1 C-17.4849963 -3.88437914 -9.30939979 -3.84907876 0 0 Z " fill="#404FF0" transform="translate(352,86)"/>
<path d="M0 0 C6.2412733 5.54779849 9.53292589 12.78982114 10.27734375 21.09375 C10.31132248 24.08387857 10.20383802 27.01730895 10 30 C9.96777344 30.79019531 9.93554688 31.58039063 9.90234375 32.39453125 C9.67396637 35.55082378 9.33922376 37.58539318 7.3125 40.0625 C6.549375 40.701875 5.78625 41.34125 5 42 C4.0967898 43.14002751 3.20168481 44.28649967 2.3125 45.4375 C-3.35526447 52.02397941 -10.38930031 54.73551222 -18.890625 55.8359375 C-29.0612193 56.3725769 -37.23204159 53.63852989 -45 47 C-51.93479861 38.87002568 -54.07251739 30.57545322 -54 20 C-52.82094276 11.08771438 -49.07322011 4.85884011 -42.625 -1.25 C-28.82716416 -10.44855723 -13.02988699 -10.62058713 0 0 Z M-37.859375 8.90625 C-42.26553437 14.52934862 -43.44090306 19.16336279 -43.3359375 26.26953125 C-42.64121467 31.91617376 -40.36940194 36.95433813 -36.02734375 40.703125 C-30.04698145 44.59315506 -24.09928127 45.98263769 -17 45 C-11.22112293 42.96089403 -6.1748749 40.42374462 -3 35 C-0.28359458 29.15972835 0.03514177 22.71709999 -1.6875 16.53125 C-3.80661674 11.23345815 -6.29524921 8.20323458 -11 5 C-11.99 4.67 -12.98 4.34 -14 4 C-14.99 3.67 -15.98 3.34 -17 3 C-24.82593913 2.13829912 -32.16071864 3.06393003 -37.859375 8.90625 Z " fill="#010102" transform="translate(430,92)"/>
<path d="M0 0 C6.96918295 5.77112635 8.94185912 13.33990926 10 22 C10.09003195 24.77740084 10.14055024 27.52830021 10.1328125 30.3046875 C10.13376923 31.06927277 10.13472595 31.83385803 10.13571167 32.62161255 C10.13638766 34.22332848 10.13457421 35.82504725 10.13037109 37.42675781 C10.12496987 39.88873322 10.13035833 42.35052987 10.13671875 44.8125 C10.13605873 46.37239624 10.13477916 47.93229236 10.1328125 49.4921875 C10.13483673 50.23064911 10.13686096 50.96911072 10.13894653 51.72994995 C10.11498158 56.88501842 10.11498158 56.88501842 9 58 C7.31391034 58.07205511 5.62499341 58.08386068 3.9375 58.0625 C3.01839844 58.05347656 2.09929688 58.04445312 1.15234375 58.03515625 C0.44207031 58.02355469 -0.26820313 58.01195312 -1 58 C-1.029729 56.53361084 -1.029729 56.53361084 -1.06005859 55.03759766 C-1.13687371 51.36581239 -1.22546507 47.69438486 -1.31738281 44.02294922 C-1.35536235 42.44229257 -1.39026565 40.86155858 -1.421875 39.28076172 C-1.34958258 24.70622147 -1.34958258 24.70622147 -5.5625 11 C-10.13648203 7.2469891 -15.17093442 6.94193443 -20.9375 7.125 C-24.08677282 7.65145268 -24.08677282 7.65145268 -25.1875 9.9375 C-25.455625 10.618125 -25.72375 11.29875 -26 12 C-28.125 13.25 -28.125 13.25 -30 14 C-30 14.99 -30 15.98 -30 17 C-30.66 17.33 -31.32 17.66 -32 18 C-32 30.87 -32 43.74 -32 57 C-34.64458379 58.32229189 -36.67761301 58.09677194 -39.625 58.0625 C-40.62789062 58.05347656 -41.63078125 58.04445312 -42.6640625 58.03515625 C-43.43492187 58.02355469 -44.20578125 58.01195312 -45 58 C-45.02312792 50.19424805 -45.04091738 42.38850405 -45.05181217 34.58272648 C-45.05704002 30.9585404 -45.06413587 27.3343777 -45.07543945 23.71020508 C-45.08627184 20.21540025 -45.09227758 16.72061796 -45.09487724 13.22579765 C-45.09763551 11.23760611 -45.10544688 9.24942369 -45.11329651 7.26124573 C-45.11337204 6.06007614 -45.11344757 4.85890656 -45.11352539 3.62133789 C-45.115746 2.55766495 -45.11796661 1.493992 -45.12025452 0.39808655 C-45 -2 -45 -2 -44 -3 C-41.66702567 -3.04092937 -39.33294775 -3.04241723 -37 -3 C-36.01 -0.69 -35.02 1.62 -34 4 C-33.401875 3.236875 -32.80375 2.47375 -32.1875 1.6875 C-23.87480287 -6.62519713 -9.39928724 -5.33728371 0 0 Z " fill="#010101" transform="translate(558,88)"/>
<path d="M0 0 C5.33176564 4.41519377 8.49890594 10.4778679 9.26325989 17.37579346 C9.34460863 19.98479702 9.33790549 22.57763242 9.29296875 25.1875 C9.28872391 26.13061035 9.28447906 27.0737207 9.28010559 28.04541016 C9.2634357 31.03057518 9.22580575 34.01504218 9.1875 37 C9.17243804 39.03514644 9.15875229 41.07030355 9.14648438 43.10546875 C9.11357055 48.0705777 9.06186999 53.03517087 9 58 C7.37509046 58.02698189 5.75005367 58.04638757 4.125 58.0625 C3.22007812 58.07410156 2.31515625 58.08570313 1.3828125 58.09765625 C-1 58 -1 58 -3 57 C-3 53.95240439 -2.99860223 50.90782635 -2.95239258 47.8605957 C-2.89805343 44.14973791 -2.86362116 40.43892298 -2.83520508 36.7277832 C-2.82015194 35.12648566 -2.79970474 33.52522911 -2.77368164 31.92407227 C-2.73708143 29.61203931 -2.72022723 27.30055214 -2.70703125 24.98828125 C-2.69154739 24.27867752 -2.67606354 23.56907379 -2.66011047 22.83796692 C-2.65826664 17.3288738 -3.90404858 13.25120709 -7.6875 9.1875 C-11.76761461 7.09230601 -15.77238644 6.41232298 -20.19140625 7.578125 C-22.16460884 8.31943868 -24.07688366 9.13864856 -26 10 C-26.99 10.33 -27.98 10.66 -29 11 C-30.15020525 13.24743756 -30.15020525 13.24743756 -31 16 C-31.51119385 17.31025146 -31.51119385 17.31025146 -32.03271484 18.64697266 C-33.17699542 22.61354242 -33.35155056 26.36703238 -33.4140625 30.4609375 C-33.43342865 31.25150543 -33.4527948 32.04207336 -33.4727478 32.8565979 C-33.53216053 35.36262483 -33.57877427 37.86869865 -33.625 40.375 C-33.66321513 42.08205043 -33.70226889 43.78908231 -33.7421875 45.49609375 C-33.83783011 49.66391044 -33.92200115 53.8318173 -34 58 C-37.63 58 -41.26 58 -45 58 C-45.02255497 50.19424413 -45.04091738 42.38850593 -45.05181217 34.58272648 C-45.05704002 30.9585404 -45.06413587 27.3343777 -45.07543945 23.71020508 C-45.08627184 20.21540025 -45.09227758 16.72061796 -45.09487724 13.22579765 C-45.09763551 11.23760611 -45.10544688 9.24942369 -45.11329651 7.26124573 C-45.11337204 6.06007614 -45.11344757 4.85890656 -45.11352539 3.62133789 C-45.115746 2.55766495 -45.11796661 1.493992 -45.12025452 0.39808655 C-45 -2 -45 -2 -44 -3 C-38.47058824 -3.23529412 -38.47058824 -3.23529412 -36 -2 C-35.27306096 -0.02111039 -34.60183749 1.97954558 -34 4 C-33.401875 3.236875 -32.80375 2.47375 -32.1875 1.6875 C-23.87480287 -6.62519713 -9.39928724 -5.33728371 0 0 Z " fill="#010102" transform="translate(238,88)"/>
<path d="M0 0 C5.30236032 4.35317236 9.3334405 10.68276642 10.6875 17.4375 C6.9394801 17.85102934 3.4204339 18.04728324 -0.3125 17.4375 C-2.0520202 15.85888542 -2.93884943 14.29478552 -4.09765625 12.26171875 C-6.34626572 8.88518941 -9.48709775 7.51299188 -13.3125 6.4375 C-18.78555738 5.83864746 -23.45016054 5.65751027 -28.3125 8.4375 C-28.9725 8.705625 -29.6325 8.97375 -30.3125 9.25 C-34.63449612 11.8161852 -36.75359866 15.8011124 -38.3125 20.4375 C-39.17366941 27.69735837 -38.89006306 34.46676558 -34.3125 40.4375 C-31.53989701 42.37548263 -31.53989701 42.37548263 -29.3125 43.4375 C-27.3125 44.4375 -25.3125 45.4375 -23.3125 46.4375 C-18.36081595 46.68102545 -14.81685188 46.68967594 -10.3125 44.4375 C-9.67054688 44.169375 -9.02859375 43.90125 -8.3671875 43.625 C-5.90000443 42.19909952 -4.83454693 40.62167635 -3.1875 38.3125 C-1.01948872 35.69577179 -0.00768333 34.57349207 3.36328125 33.9140625 C5.85053662 33.93517075 8.22713212 34.08106844 10.6875 34.4375 C10.04131885 41.33009897 5.79140584 46.67232291 0.875 51.25 C-7.68509672 58.18035557 -16.65869869 58.39157176 -27.3125 57.4375 C-33.63793666 55.94633242 -38.11999218 53.4931712 -42.3125 48.4375 C-42.993125 47.695 -43.67375 46.9525 -44.375 46.1875 C-50.6012226 37.35028083 -51.35256935 28.98677486 -50.3125 18.4375 C-48.5493725 10.81048777 -44.65689424 4.46809784 -38.20703125 -0.03125 C-26.26924164 -7.09940771 -11.83199877 -7.98603359 0 0 Z " fill="#020202" transform="translate(625.3125,89.5625)"/>
<path d="M0 0 C1.37478516 0.01740234 1.37478516 0.01740234 2.77734375 0.03515625 C3.69644531 0.04417969 4.61554688 0.05320312 5.5625 0.0625 C6.27277344 0.07410156 6.98304688 0.08570312 7.71484375 0.09765625 C7.73466309 1.14630859 7.75448242 2.19496094 7.77490234 3.27539062 C7.85145148 7.19684301 7.94008943 11.11794797 8.03222656 15.0390625 C8.0703139 16.73039855 8.10520065 18.42181003 8.13671875 20.11328125 C8.18281273 22.55626231 8.24072934 24.99873306 8.30078125 27.44140625 C8.31233246 28.18757202 8.32388367 28.93373779 8.33578491 29.70251465 C8.48493363 35.10815392 8.68493372 41.53820448 12.15234375 45.91015625 C12.66796875 46.30203125 13.18359375 46.69390625 13.71484375 47.09765625 C14.20984375 47.63390625 14.70484375 48.17015625 15.21484375 48.72265625 C18.42633805 51.66652602 22.32659988 51.36977975 26.4296875 51.31640625 C30.57806551 50.91929656 33.45411483 49.26833311 36.46484375 46.47265625 C41.09365335 37.67791801 40.15337174 26.70159335 40.33984375 17.03515625 C40.37809294 15.38995485 40.41714852 13.74477199 40.45703125 12.09960938 C40.55227446 8.09911168 40.63657634 4.0985206 40.71484375 0.09765625 C42.36058941 0.07077474 44.00645788 0.05131502 45.65234375 0.03515625 C47.02712891 0.01775391 47.02712891 0.01775391 48.4296875 0 C50.71484375 0.09765625 50.71484375 0.09765625 51.71484375 1.09765625 C51.82846272 3.64711323 51.879033 6.16837114 51.8828125 8.71875 C51.8878051 9.8796389 51.8878051 9.8796389 51.89289856 11.0639801 C51.89797581 12.71086024 51.90030664 14.35775072 51.90014648 16.00463867 C51.90230759 18.49350745 51.9203829 20.9819144 51.93945312 23.47070312 C52.02612309 46.87704657 52.02612309 46.87704657 43.71484375 56.09765625 C35.31141889 62.75367707 26.06688819 63.18811724 15.71484375 62.09765625 C8.16077746 60.0819827 3.59336736 55.75238624 -0.28515625 49.09765625 C-3.54348493 42.73615741 -3.43689785 35.57073552 -3.41796875 28.57421875 C-3.41892548 27.78743744 -3.4198822 27.00065613 -3.42086792 26.19003296 C-3.4215441 24.5412386 -3.41972932 22.89244149 -3.41552734 21.24365234 C-3.41012769 18.70925027 -3.41551332 16.17502194 -3.421875 13.640625 C-3.42121496 12.03515586 -3.41993535 10.42968682 -3.41796875 8.82421875 C-3.41999298 8.06388336 -3.42201721 7.30354797 -3.42410278 6.52017212 C-3.39531622 0.14509898 -3.39531622 0.14509898 0 0 Z " fill="#010101" transform="translate(450.28515625,84.90234375)"/>
<path d="M0 0 C5.99565954 -0.07440677 11.99104758 -0.12872362 17.98706055 -0.16479492 C20.02486862 -0.17983947 22.06264454 -0.20028012 24.1003418 -0.22631836 C27.03702756 -0.26289247 29.97328351 -0.27976999 32.91015625 -0.29296875 C33.81459976 -0.30845261 34.71904327 -0.32393646 35.65089417 -0.33988953 C41.19310377 -0.34134917 45.12721897 0.27641811 50 3 C51.3125 5.6875 51.3125 5.6875 51 9 C49.30057846 11.94194943 47.26286887 14.47312976 45 17 C44.49984375 17.57363281 43.9996875 18.14726563 43.484375 18.73828125 C42 20 42 20 39 20 C39 20.99 39 21.98 39 23 C37.35546875 24.7890625 37.35546875 24.7890625 35.1875 26.625 C34.47980469 27.23601562 33.77210937 27.84703125 33.04296875 28.4765625 C31 30 31 30 28 31 C27.29072737 32.31116534 26.62973992 33.64883389 26 35 C22.50957598 39.50150402 18.71775193 43.7649701 14 47 C13.34 47 12.68 47 12 47 C11.814375 47.556875 11.62875 48.11375 11.4375 48.6875 C9.36470117 52.02200247 6.4368032 54.13233857 3 56 C2.01 56 1.02 56 0 56 C-0.02689449 53.04160645 -0.04678741 50.08345573 -0.0625 47.125 C-0.07087891 46.28324219 -0.07925781 45.44148438 -0.08789062 44.57421875 C-0.09111328 43.76855469 -0.09433594 42.96289062 -0.09765625 42.1328125 C-0.10289307 41.38918457 -0.10812988 40.64555664 -0.11352539 39.87939453 C0 38 0 38 1 36 C2.07894531 35.36578125 2.07894531 35.36578125 3.1796875 34.71875 C6.5310724 32.67635477 9.28033594 30.17440985 12.125 27.5 C12.64964844 27.01402344 13.17429687 26.52804688 13.71484375 26.02734375 C15.77448013 24.11370691 17.81083005 22.2001978 19.7421875 20.15625 C21 19 21 19 23 19 C23 17.68 23 16.36 23 15 C15.08 15 7.16 15 -1 15 C-0.67 10.05 -0.34 5.1 0 0 Z " fill="#6B80FB" transform="translate(50,79)"/>
<path d="M0 0 C6.93 0 13.86 0 21 0 C21.01458252 1.90620117 21.02916504 3.81240234 21.04418945 5.77636719 C21.09611787 12.1187668 21.16147584 18.46092056 21.23571491 24.80309677 C21.28018644 28.6432861 21.31949146 32.48337499 21.34643555 36.32373047 C21.37270311 40.03924677 21.41326471 43.75437159 21.46318626 47.46964264 C21.4796983 48.87754648 21.49130899 50.28551778 21.49761391 51.69350433 C21.55819897 63.99479594 22.27256992 76.52182325 31 86 C33.86145853 88.27449268 36.84343009 90.1661832 40 92 C41.485 92.99 41.485 92.99 43 94 C43 94.66 43 95.32 43 96 C35.9066169 98.03832848 28.8933746 97.39769551 22 95 C21.67 95.33 21.34 95.66 21 96 C19.49740523 96.09910095 17.99023289 96.13079701 16.484375 96.1328125 C15.56269531 96.13410156 14.64101563 96.13539063 13.69140625 96.13671875 C12.72074219 96.13285156 11.75007813 96.12898438 10.75 96.125 C9.79480469 96.12886719 8.83960938 96.13273437 7.85546875 96.13671875 C6.92863281 96.13542969 6.00179687 96.13414062 5.046875 96.1328125 C4.19963867 96.13168457 3.35240234 96.13055664 2.47949219 96.12939453 C-0.09672761 95.99495218 -2.47786452 95.52289473 -5 95 C-7.07581653 95.1618535 -7.07581653 95.1618535 -9.125 95.5625 C-19.10198669 96.78484605 -27.86357709 93.71953834 -36 88 C-42.78076507 81.91114973 -47.52591783 74.10089346 -48.23828125 64.93359375 C-48.50844941 52.2072513 -46.02039406 44.37767593 -37.21875 35.09375 C-31.88897307 30.06424219 -31.88897307 30.06424219 -29 29.85546875 C-25.35419241 30.46072978 -22.19230192 31.0048113 -19 33 C-19 32.34 -19 31.68 -19 31 C-20.65 30.67 -22.3 30.34 -24 30 C-24 29.01 -24 28.02 -24 27 C-20.53305953 25.94557772 -17.30140122 25.83373326 -13.6875 25.8125 C-12.05361328 25.79123047 -12.05361328 25.79123047 -10.38671875 25.76953125 C-7 26 -7 26 0 28 C0 18.76 0 9.52 0 0 Z M2 2 C1.67 10.91 1.34 19.82 1 29 C-2.25656182 30.08552061 -3.11688844 29.90693622 -6.3125 29.0625 C-9.96300748 28.17373266 -13.22249561 27.80628183 -17 28 C-17.33 28.66 -17.66 29.32 -18 30 C-17.23816406 30.52787109 -17.23816406 30.52787109 -16.4609375 31.06640625 C-8.30307167 36.91745983 -3.54439721 42.15720026 -1 52 C-0.34 52 0.32 52 1 52 C0.99476318 52.85118408 0.98952637 53.70236816 0.98413086 54.5793457 C0.96690938 57.7906061 0.9544636 61.00184265 0.94506836 64.21313477 C0.94009376 65.59302554 0.93331168 66.97291121 0.92456055 68.3527832 C0.87344229 76.63093324 1.03942285 84.77282454 2 93 C2.57331055 92.98428955 3.14662109 92.9685791 3.73730469 92.95239258 C23.74968286 92.47676747 23.74968286 92.47676747 32.72265625 95.44140625 C35.22675575 96.05561933 36.5925594 95.83954626 39 95 C38.33613281 94.50371094 37.67226563 94.00742188 36.98828125 93.49609375 C28.88038967 87.25834359 23.99740046 81.82256232 21 72 C20.82731094 71.43524963 20.65462189 70.87049927 20.47669983 70.28863525 C19.85994512 67.32759671 19.83509007 64.5124568 19.79467773 61.48730469 C19.78477814 60.84298492 19.77487854 60.19866516 19.76467896 59.53482056 C19.73319571 57.41387555 19.70835897 55.29290819 19.68359375 53.171875 C19.66301282 51.69784985 19.64201605 50.22383045 19.62062073 48.74981689 C19.5655176 44.87667509 19.51605666 41.00348105 19.46777344 37.13024902 C19.41747237 33.17532726 19.36183129 29.22048102 19.30664062 25.265625 C19.19920293 17.51047893 19.09821994 9.7552693 19 2 C13.39 2 7.78 2 2 2 Z M-18 32 C-18.33 32.66 -18.66 33.32 -19 34 C-18.34 34 -17.68 34 -17 34 C-17.33 33.34 -17.66 32.68 -18 32 Z M-35 35 C-35 35.66 -35 36.32 -35 37 C-35.61875 37.2475 -36.2375 37.495 -36.875 37.75 C-39.4072196 39.23954094 -39.80718658 40.37581048 -41 43 C-41.47953125 43.45375 -41.9590625 43.9075 -42.453125 44.375 C-47.11769887 49.27515841 -47.32165567 56.6305936 -47.203125 63.03125 C-47.20906099 65.0012066 -47.20906099 65.0012066 -46 66 C-45.93941406 66.62648437 -45.87882812 67.25296875 -45.81640625 67.8984375 C-44.93538204 76.49181212 -40.2285916 81.34361335 -34 87 C-25.87788579 93.23662341 -15.93856033 94.19881467 -6 93 C-3.42139765 89.13209648 -3.98885495 86.23386085 -4.375 81.8125 C-4.43171875 81.06291016 -4.4884375 80.31332031 -4.546875 79.54101562 C-4.68810669 77.69323441 -4.84276167 75.846488 -5 74 C-5.85464844 74.23783203 -5.85464844 74.23783203 -6.7265625 74.48046875 C-11.94838346 75.67377148 -16.46619275 75.75243374 -21.3125 73.375 C-25.61277214 69.5747595 -27.84927486 66.89913679 -28.3125 61.0625 C-28.11872946 57.33779962 -27.61283382 53.67700289 -27 50 C-26.44441406 49.87753906 -25.88882812 49.75507812 -25.31640625 49.62890625 C-21.85743927 48.6897938 -18.63696813 47.23306473 -15.33984375 45.83984375 C-13 45 -13 45 -10 45 C-11.40155759 41.66227007 -12.9509686 39.98250943 -15.875 37.875 C-16.89207031 37.12863281 -16.89207031 37.12863281 -17.9296875 36.3671875 C-23.4298649 32.73499488 -29.02120076 31.17356849 -35 35 Z M-16 33 C-16 33.99 -16 34.98 -16 36 C-13.05763218 38.21168225 -13.05763218 38.21168225 -10 40 C-11.39332574 36.63279613 -12.9789286 35.0140476 -16 33 Z M-10 40 C-9.34 41.32 -8.68 42.64 -8 44 C-7.34 43.34 -6.68 42.68 -6 42 C-7.32 41.34 -8.64 40.68 -10 40 Z M-7 44 C-6.34 45.98 -5.68 47.96 -5 50 C-5.85271484 49.51466797 -5.85271484 49.51466797 -6.72265625 49.01953125 C-10.43109466 47.35932126 -14.01162224 47.54336999 -18 48 C-21.11395357 49.28619821 -22.60562133 50.55122427 -24.8125 53.0625 C-26.57004199 57.41010386 -26.79812125 61.38124276 -26 66 C-23.99875079 69.88337644 -21.04842269 72.40015949 -17 74 C-11.74081296 74.19757232 -7.23809137 73.21067528 -3 70 C0.1734145 66.8265855 -0.62937248 63.21801981 -0.62109375 58.90014648 C-0.74165518 53.19608375 -2.0610572 48.84138345 -5 44 C-5.66 44 -6.32 44 -7 44 Z M-2 70 C-2 75.28 -2 80.56 -2 86 C-1.67 86 -1.34 86 -1 86 C-1 80.72 -1 75.44 -1 70 C-1.33 70 -1.66 70 -2 70 Z M-2 87 C-2 89.31 -2 91.62 -2 94 C-1.67 94 -1.34 94 -1 94 C-1 91.69 -1 89.38 -1 87 C-1.33 87 -1.66 87 -2 87 Z " fill="#3643BA" transform="translate(303,56)"/>
<path d="M0 0 C3.9152534 1.32558318 6.307843 2.92293383 9.1875 5.875 C9.86167969 6.55304688 10.53585937 7.23109375 11.23046875 7.9296875 C15.00608223 12.34707192 15.23272662 15.43276226 15.125 21.25 C15.10695313 22.51328125 15.08890625 23.7765625 15.0703125 25.078125 C15.04710938 26.04234375 15.02390625 27.0065625 15 28 C16.25296875 27.94199219 17.5059375 27.88398438 18.796875 27.82421875 C20.4478794 27.77731522 22.09892411 27.73181569 23.75 27.6875 C24.575 27.64560547 25.4 27.60371094 26.25 27.56054688 C32.33419968 27.43788156 32.33419968 27.43788156 35.55859375 30.16015625 C37.16560277 33.32626887 37.4506639 35.22443837 37.3125 38.75 C37.27576172 40.19632813 37.27576172 40.19632813 37.23828125 41.671875 C37 44 37 44 36 45 C31.65026002 45.10472416 27.30288058 44.94434188 22.95458984 44.81298828 C20.77320079 44.75066288 18.5920359 44.70896853 16.41015625 44.66796875 C15.01819266 44.62888329 13.62626323 44.5885577 12.234375 44.546875 C10.96819336 44.51432617 9.70201172 44.48177734 8.39746094 44.44824219 C3.67682631 43.82542779 1.19858984 42.48342271 -1.78759766 38.78759766 C-3.31097119 35.28500422 -3.43162255 32.15055002 -3.3984375 28.3984375 C-3.40274277 27.32101791 -3.40274277 27.32101791 -3.40713501 26.22183228 C-3.40916839 24.71070564 -3.40368946 23.19955224 -3.39111328 21.68847656 C-3.37500039 19.37505533 -3.3910091 17.06336842 -3.41015625 14.75 C-3.40817461 13.27864198 -3.40433257 11.80728504 -3.3984375 10.3359375 C-3.40451019 9.64527191 -3.41058289 8.95460632 -3.4168396 8.24301147 C-3.37304256 5.25888896 -3.34302719 3.44056422 -1.47509766 1.04150391 C-0.98831543 0.69780762 -0.5015332 0.35411133 0 0 Z " fill="#4C58F5" transform="translate(4,112)"/>
<path d="M0 0 C0.877061 -0.01051392 1.75412201 -0.02102783 2.65776062 -0.03186035 C5.55202869 -0.05823009 8.44408914 -0.04079746 11.33837891 -0.02050781 C13.35471009 -0.02455103 15.37103843 -0.03037536 17.38735962 -0.03790283 C21.61252701 -0.04674583 25.83693293 -0.03390357 30.06201172 -0.00585938 C35.468394 0.02828299 40.87298637 0.00867014 46.2793026 -0.02729416 C50.4436481 -0.04901834 54.60757221 -0.04205477 58.77193069 -0.0265274 C60.76456541 -0.02253438 62.75723881 -0.02740349 64.74982834 -0.04140472 C67.54127382 -0.05671182 70.32986027 -0.03332721 73.12109375 0 C73.9389888 -0.01214539 74.75688385 -0.02429077 75.5995636 -0.0368042 C81.02076812 0.08261107 83.87194402 1.48155824 87.86155128 5.14326096 C90.16103593 7.97021868 90.38429193 10.21327425 90.18994141 13.77636719 C87.63598271 17.47503945 84.73417576 20.10121479 81.19384766 22.83496094 C74.68997652 28.04995187 68.93634836 33.87278575 63.12744141 39.83886719 C61.10063525 41.91881887 59.06725006 43.99201843 57.02978516 46.06152344 C56.14669678 46.96781494 55.2636084 47.87410645 54.35375977 48.80786133 C52.18994141 50.77636719 52.18994141 50.77636719 50.18994141 50.77636719 C49.96306641 51.33324219 49.73619141 51.89011719 49.50244141 52.46386719 C47.4789637 56.02904219 45.30540186 59.00306862 41.33056641 60.45605469 C36.78343663 61.31965686 34.3307537 60.61621662 30.26382446 58.2273407 C25.90480889 55.1775949 22.29580851 51.26396239 18.57275391 47.48730469 C17.67499237 46.58766998 16.77723083 45.68803528 15.8522644 44.76113892 C13.96445207 42.86662601 12.07966651 40.96963532 10.19970703 39.06738281 C7.78892896 36.628162 5.36940772 34.19785267 2.94659615 31.77058983 C0.63130454 29.45015147 -1.67927414 27.1250407 -3.98974609 24.79980469 C-5.29430252 23.48887344 -5.29430252 23.48887344 -6.62521362 22.15145874 C-7.42339508 21.34366974 -8.22157654 20.53588074 -9.04394531 19.70361328 C-9.74897186 18.99175873 -10.45399841 18.27990417 -11.1803894 17.54647827 C-13.46427935 15.06576689 -13.79033218 13.94732942 -14.18505859 10.52636719 C-13.80018771 6.67765831 -13.00559146 4.90400382 -10.45090866 2.03194427 C-7.29737969 -0.38113344 -3.8301981 -0.05659663 0 0 Z M-10.81005859 5.77636719 C-12.05244817 9.34823722 -12.09228043 11.07081259 -10.68505859 14.58886719 C-8.4532332 17.19266348 -7.16766236 17.50412904 -3.81005859 17.77636719 C-3.81005859 18.43636719 -3.81005859 19.09636719 -3.81005859 19.77636719 C-2.60257918 21.48426806 -2.60257918 21.48426806 -0.81005859 22.77636719 C0.50994141 22.77636719 1.82994141 22.77636719 3.18994141 22.77636719 C3.34462891 23.61167969 3.34462891 23.61167969 3.50244141 24.46386719 C4.66824886 28.38521952 6.55448205 31.14090783 9.43994141 34.02636719 C11.81248427 36.39891005 13.69520983 38.72148868 15.68994141 41.40136719 C18.25445226 44.78160481 20.43636296 46.73871031 24.18994141 48.77636719 C24.68494141 49.82824219 24.68494141 49.82824219 25.18994141 50.90136719 C25.68494141 51.82949219 25.68494141 51.82949219 26.18994141 52.77636719 C28.74514062 53.58807947 28.74514062 53.58807947 31.18994141 53.77636719 C31.18994141 54.43636719 31.18994141 55.09636719 31.18994141 55.77636719 C33.68946721 57.7045728 35.37528174 58.75492878 38.56494141 58.83886719 C42.38647512 57.29205592 45.40165179 54.80571931 48.18994141 51.77636719 C48.18994141 51.11636719 48.18994141 50.45636719 48.18994141 49.77636719 C48.74681641 49.54949219 49.30369141 49.32261719 49.87744141 49.08886719 C52.8619889 47.39493483 54.81648186 45.2602202 57.18994141 42.77636719 C57.80869141 42.17824219 58.42744141 41.58011719 59.06494141 40.96386719 C60.02400391 40.03574219 60.02400391 40.03574219 61.00244141 39.08886719 C61.90929687 38.21681641 61.90929687 38.21681641 62.83447266 37.32714844 C64.40930864 35.86866826 64.40930864 35.86866826 64.18994141 33.77636719 C64.77259766 33.50695312 65.35525391 33.23753906 65.95556641 32.95996094 C68.20102317 31.77049695 69.99688984 30.47053228 71.93994141 28.83886719 C72.55353516 28.33484375 73.16712891 27.83082031 73.79931641 27.31152344 C75.52562022 25.75102749 75.52562022 25.75102749 75.18994141 22.77636719 C75.77388672 22.68742187 76.35783203 22.59847656 76.95947266 22.50683594 C81.19875797 21.11848856 83.69787552 17.32902508 86.18994141 13.77636719 C87.48622877 10.62170923 87.48622877 10.62170923 87.18994141 7.77636719 C85.25337432 4.7639295 82.51511609 3.85271147 79.18994141 2.77636719 C76.392349 2.58416489 73.69531606 2.49269989 70.89892578 2.50170898 C69.66629753 2.49404259 69.66629753 2.49404259 68.4087677 2.48622131 C65.70033426 2.47235418 62.99215606 2.47327967 60.28369141 2.47558594 C58.39709377 2.47169791 56.510497 2.46736302 54.62390137 2.46260071 C50.67306681 2.45514505 46.72232163 2.45542539 42.77148438 2.46069336 C37.71065057 2.46649228 32.65018224 2.4495436 27.58940887 2.42634869 C23.69461939 2.41161332 19.79991801 2.41073929 15.90510559 2.41385841 C14.03920263 2.41334527 12.17329472 2.40810889 10.30741882 2.39804649 C7.6983567 2.38570089 5.09000786 2.39246193 2.48095703 2.40405273 C1.32748528 2.39258713 1.32748528 2.39258713 0.15071106 2.38088989 C-4.32476733 2.42480453 -7.29379916 2.92729315 -10.81005859 5.77636719 Z " fill="#535DC6" transform="translate(13.81005859375,76.2236328125)"/>
<path d="M0 0 C8.96634021 5.34441068 15.38229776 11.05131883 19 21 C21.56248969 31.79132983 20.38383537 41.31479351 15 51 C13.25344603 53.7056443 11.39107032 55.84803671 9 58 C7.99453125 58.92039062 7.99453125 58.92039062 6.96875 59.859375 C3.91235718 62.29157492 1.53804625 63.98773488 -2.44921875 64.01953125 C-9.6699903 62.33052817 -15.23244887 57.51935727 -20 52 C-20.70081521 50.34740197 -21.37542167 48.6828916 -22 47 C-22.66 46.67 -23.32 46.34 -24 46 C-23.67 44.68 -23.34 43.36 -23 42 C-22.505 42.33 -22.01 42.66 -21.5 43 C-18.00534082 44.39786367 -14.68693391 44.49306302 -11 44 C-8.25167846 42.71815438 -8.25167846 42.71815438 -6 41 C-4.67391178 40.31903578 -3.34313399 39.64669414 -2 39 C-3.90722024 42.52835744 -5.40974836 45.11039388 -9 47 C-16.85714286 48.57142857 -16.85714286 48.57142857 -20 47 C-13.00918838 55.60060116 -13.00918838 55.60060116 -3.125 60.125 C1.28160302 60.45297236 3.82156204 58.79850125 7.109375 55.99609375 C13.79359265 48.93899619 17.01891464 40.84709993 16.9921875 31.171875 C16.63504166 25.48859771 15.66223987 21.02867532 13 16 C12.484375 15.01 11.96875 14.02 11.4375 13 C5.14688615 5.25770603 -2.81126942 1.39163618 -12.5625 0.3125 C-16.53640589 -0.06516198 -18.9333182 0.18666364 -23 1 C-23 6.94 -23 12.88 -23 19 C-21.68 19 -20.36 19 -19 19 C-19 18.34 -19 17.68 -19 17 C-14.37813049 16.63025044 -10.94458777 16.55443973 -6.6875 18.5625 C-2.83672435 22.05506396 -0.27186131 25.246308 0.2421875 30.453125 C0.24910088 32.65157876 0.17882026 34.80945187 0 37 C-0.99 37.495 -0.99 37.495 -2 38 C-2.86458992 35.2981565 -2.97015483 33.45283854 -2.8125 30.5625 C-3.03839367 26.27052021 -3.91156058 24.92149675 -7 22 C-11.48734671 19.17938207 -16.01949008 20.01830817 -21 21 C-23.91509282 21.94476554 -23.91509282 21.94476554 -26 23 C-27.06309567 17.82682579 -27.11693938 12.87630664 -27.0625 7.625 C-27.05798828 6.79355469 -27.05347656 5.96210937 -27.04882812 5.10546875 C-27.03713164 3.07028103 -27.01919935 1.03513077 -27 -1 C-17.4849963 -3.88437914 -9.30939979 -3.84907876 0 0 Z " fill="#3640AF" transform="translate(352,86)"/>
<path d="M0 0 C2.31 0.33 4.62 0.66 7 1 C7.6640625 2.78515625 7.6640625 2.78515625 8 5 C6.22440358 8.06112823 3.45658237 10.47244093 1 13 C-0.051419 14.13612888 -1.10215231 15.27289257 -2.15234375 16.41015625 C-3.28740212 17.60834592 -4.42413055 18.80495566 -5.5625 20 C-6.10406738 20.58837646 -6.64563477 21.17675293 -7.20361328 21.78295898 C-9.84835037 24.49615657 -11.30875387 25.85860875 -15.09375 26.6328125 C-18.7575481 25.83505001 -20.3080731 24.52630233 -22.9375 21.875 C-23.73027344 21.10929687 -24.52304688 20.34359375 -25.33984375 19.5546875 C-27 17 -27 17 -26.75390625 13.6953125 C-26.50511719 12.80585938 -26.25632812 11.91640625 -26 11 C-19.97463002 10.397463 -19.97463002 10.397463 -17.19921875 12.11328125 C-15.74400545 13.34621853 -14.36520843 14.66808933 -13 16 C-12.44570312 15.3503125 -11.89140625 14.700625 -11.3203125 14.03125 C-10.59585938 13.1959375 -9.87140625 12.360625 -9.125 11.5 C-8.04605469 10.24703125 -8.04605469 10.24703125 -6.9453125 8.96875 C-6.30335937 8.3190625 -5.66140625 7.669375 -5 7 C-4.34 7 -3.68 7 -3 7 C-3 6.34 -3 5.68 -3 5 C-2.34 4.34 -1.68 3.68 -1 3 C-0.67 2.01 -0.34 1.02 0 0 Z " fill="#2F3BA0" transform="translate(92,126)"/>
<path d="M0 0 C3.9152534 1.32558318 6.307843 2.92293383 9.1875 5.875 C9.86167969 6.55304688 10.53585937 7.23109375 11.23046875 7.9296875 C15.00608223 12.34707192 15.23272662 15.43276226 15.125 21.25 C15.10695313 22.51328125 15.08890625 23.7765625 15.0703125 25.078125 C15.04710938 26.04234375 15.02390625 27.0065625 15 28 C16.25296875 27.94199219 17.5059375 27.88398438 18.796875 27.82421875 C20.4478794 27.77731522 22.09892411 27.73181569 23.75 27.6875 C24.575 27.64560547 25.4 27.60371094 26.25 27.56054688 C32.33419968 27.43788156 32.33419968 27.43788156 35.55859375 30.16015625 C37.16560277 33.32626887 37.4506639 35.22443837 37.3125 38.75 C37.27576172 40.19632813 37.27576172 40.19632813 37.23828125 41.671875 C37 44 37 44 36 45 C31.65026002 45.10472416 27.30288058 44.94434188 22.95458984 44.81298828 C20.77320079 44.75066288 18.5920359 44.70896853 16.41015625 44.66796875 C15.01819266 44.62888329 13.62626323 44.5885577 12.234375 44.546875 C10.96819336 44.51432617 9.70201172 44.48177734 8.39746094 44.44824219 C3.67682631 43.82542779 1.19858984 42.48342271 -1.78759766 38.78759766 C-3.31097119 35.28500422 -3.43162255 32.15055002 -3.3984375 28.3984375 C-3.40274277 27.32101791 -3.40274277 27.32101791 -3.40713501 26.22183228 C-3.40916839 24.71070564 -3.40368946 23.19955224 -3.39111328 21.68847656 C-3.37500039 19.37505533 -3.3910091 17.06336842 -3.41015625 14.75 C-3.40817461 13.27864198 -3.40433257 11.80728504 -3.3984375 10.3359375 C-3.40451019 9.64527191 -3.41058289 8.95460632 -3.4168396 8.24301147 C-3.37304256 5.25888896 -3.34302719 3.44056422 -1.47509766 1.04150391 C-0.98831543 0.69780762 -0.5015332 0.35411133 0 0 Z M-1 4 C-1.12397147 8.46564301 -1.21450992 12.93036439 -1.2746582 17.3972168 C-1.29974109 18.91529801 -1.3338166 20.43325918 -1.37719727 21.95092773 C-1.43813293 24.13815965 -1.46626895 26.32379039 -1.48828125 28.51171875 C-1.51446533 29.82615967 -1.54064941 31.14060059 -1.56762695 32.49487305 C-0.85788026 36.87759702 0.54789891 38.30047467 4 41 C9.95460421 42.55435444 16.3114558 42.1143143 22.4375 42.0625 C23.45521484 42.05798828 24.47292969 42.05347656 25.52148438 42.04882812 C28.01434858 42.03712454 30.5071822 42.01919192 33 42 C33 38.37 33 34.74 33 31 C30.703463 29.8517315 29.41686833 29.88438825 26.8671875 29.90234375 C26.06152344 29.90556641 25.25585938 29.90878906 24.42578125 29.91210938 C23.58402344 29.92048828 22.74226563 29.92886719 21.875 29.9375 C20.60076172 29.94426758 20.60076172 29.94426758 19.30078125 29.95117188 C17.20049091 29.96297126 15.1002367 29.98090694 13 30 C12.99742188 28.68644531 12.99484375 27.37289062 12.9921875 26.01953125 C12.95465862 24.28382033 12.91551102 22.54814388 12.875 20.8125 C12.87757812 19.94818359 12.88015625 19.08386719 12.8828125 18.19335938 C12.80850524 13.44720779 12.80850524 13.44720779 10.71191406 9.34130859 C8.94764729 7.79795513 8.94764729 7.79795513 6 6 C5.01 5.34 4.02 4.68 3 4 C1.68 4 0.36 4 -1 4 Z " fill="#4B53BC" transform="translate(4,112)"/>
<path d="M0 0 C6.70746607 -0.15255641 13.41448232 -0.25738483 20.12329102 -0.32958984 C22.40373453 -0.35970005 24.68406282 -0.400598 26.96411133 -0.45263672 C30.24849921 -0.52570271 33.53135187 -0.55951502 36.81640625 -0.5859375 C37.83021866 -0.61690521 38.84403107 -0.64787292 39.88856506 -0.67977905 C45.93946807 -0.68263411 49.32004473 0.13894721 53.74595642 4.36019897 C55.93957089 7.22859312 56.19310659 9.45971252 56 13 C53.4460413 16.69867227 50.54423436 19.32484761 47.00390625 22.05859375 C40.50003511 27.27358469 34.74640696 33.09641856 28.9375 39.0625 C26.91069385 41.14245169 24.87730865 43.21565125 22.83984375 45.28515625 C21.95675537 46.19144775 21.07366699 47.09773926 20.16381836 48.03149414 C18 50 18 50 16 50 C15.773125 50.556875 15.54625 51.11375 15.3125 51.6875 C13.27302291 55.28086439 11.10396166 58.35894918 7 59.609375 C3.0427139 60.22042653 1.39037524 60.26025016 -2 58 C-1.41992188 57.91363281 -0.83984375 57.82726562 -0.2421875 57.73828125 C6.95794929 56.44320714 10.57861058 53.4777008 15.6875 48.25 C18 46 18 46 21 45 C21.71225833 43.69045417 22.37345754 42.35265175 23 41 C27.59640604 34.97498127 33.65937999 27.44687334 41 25 C41 24.01 41 23.02 41 22 C41.70125 21.608125 42.4025 21.21625 43.125 20.8125 C47.11207682 18.29890809 49.79915573 15.17374396 52 11 C52.05207123 7.60976592 52.05207123 7.60976592 51 5 C45.56057991 2.75653441 40.57694879 2.65771272 34.7890625 2.5859375 C33.82092621 2.56657135 32.85278992 2.5472052 31.85531616 2.5272522 C28.7786323 2.4677167 25.70191049 2.4211753 22.625 2.375 C20.53253623 2.33679627 18.44008778 2.29774315 16.34765625 2.2578125 C11.23189604 2.16203655 6.11606224 2.07790958 1 2 C0.67 1.34 0.34 0.68 0 0 Z " fill="#585FB2" transform="translate(48,77)"/>
<path d="M0 0 C6.93 0 13.86 0 21 0 C21.01458252 1.90620117 21.02916504 3.81240234 21.04418945 5.77636719 C21.09611787 12.1187668 21.16147584 18.46092056 21.23571491 24.80309677 C21.28018644 28.6432861 21.31949146 32.48337499 21.34643555 36.32373047 C21.37270311 40.03924677 21.41326471 43.75437159 21.46318626 47.46964264 C21.4796983 48.87754648 21.49130899 50.28551778 21.49761391 51.69350433 C21.55819897 63.99479594 22.27256992 76.52182325 31 86 C33.86145853 88.27449268 36.84343009 90.1661832 40 92 C40.99 92.66 41.98 93.32 43 94 C43 94.66 43 95.32 43 96 C36.04153219 95.13019152 30.95876052 90.23155404 26.34765625 85.1953125 C23.29836609 81.17284462 21.46732657 76.80846884 20 72 C19.82541763 71.43524963 19.65083527 70.87049927 19.47096252 70.28863525 C18.85967204 67.31807842 18.88068519 64.52096136 18.88647461 61.48730469 C18.88632858 60.84298492 18.88618256 60.19866516 18.8860321 59.53482056 C18.8867265 57.41380397 18.89449664 55.29287617 18.90234375 53.171875 C18.90420961 51.69785612 18.90563272 50.22383662 18.90663147 48.74981689 C18.91044339 44.87661008 18.92026235 41.00344097 18.93133545 37.13024902 C18.94157807 33.17537954 18.9461352 29.22050394 18.95117188 25.265625 C18.96188583 17.51039752 18.97947188 9.75520885 19 2 C13.06 2 7.12 2 1 2 C1 10.58 1 19.16 1 28 C0.67 28 0.34 28 0 28 C0 18.76 0 9.52 0 0 Z " fill="#2D39AA" transform="translate(303,56)"/>
<path d="M0 0 C1.98 0.66 3.96 1.32 6 2 C5.25067872 8.75508654 0.37546651 12.24493697 -4.25 16.8125 C-5.10980469 17.69615234 -5.96960938 18.57980469 -6.85546875 19.49023438 C-7.69207031 20.32490234 -8.52867188 21.15957031 -9.390625 22.01953125 C-10.15407227 22.78370361 -10.91751953 23.54787598 -11.70410156 24.33520508 C-14.41336216 26.29973592 -15.72542574 26.45960744 -19 26 C-20.875 24.75 -20.875 24.75 -22 23 C-21.9375 20.9375 -21.9375 20.9375 -21 19 C-19.6756885 18.31558691 -18.34107242 17.65095851 -17 17 C-11.12261446 12.63843652 -3.27576443 6.55152886 0 0 Z " fill="#303DA6" transform="translate(108,126)"/>
<path d="M0 0 C0.33 0 0.66 0 1 0 C1 8.91 1 17.82 1 27 C-3.46979866 29.23489933 -3.46979866 29.23489933 -7.375 28.125 C-11.01124529 27.10993506 -14.22209139 26.9020139 -18 27 C-17.18015625 27.68964844 -16.3603125 28.37929687 -15.515625 29.08984375 C-9.31892809 34.44149304 -4.37866443 38.90241895 -2 47 C-1.67 47.99 -1.34 48.98 -1 50 C-0.96045766 52.33299825 -0.95598268 54.66708189 -1 57 C-1.33 57 -1.66 57 -2 57 C-2.18175781 56.18015625 -2.36351562 55.3603125 -2.55078125 54.515625 C-2.80214844 53.43796875 -3.05351562 52.3603125 -3.3125 51.25 C-3.55613281 50.18265625 -3.79976563 49.1153125 -4.05078125 48.015625 C-4.99539506 45.01462969 -5.97216386 43.35993834 -8 41 C-8.47179687 40.40058594 -8.94359375 39.80117187 -9.4296875 39.18359375 C-12.35594412 35.6483594 -14.91611191 33.21696782 -19 31 C-19.33 30.34 -19.66 29.68 -20 29 C-22.52733235 28.34444881 -22.52733235 28.34444881 -25 28 C-25 27.01 -25 26.02 -25 25 C-21.55166646 23.9537823 -18.34428663 23.83379317 -14.75 23.8125 C-13.67234375 23.79832031 -12.5946875 23.78414062 -11.484375 23.76953125 C-8 24 -8 24 0 26 C0 17.42 0 8.84 0 0 Z " fill="#323DAD" transform="translate(304,58)"/>
<path d="M0 0 C15.18 0 30.36 0 46 0 C45.67 1.32 45.34 2.64 45 4 C31.47 4 17.94 4 4 4 C6.475 6.97 6.475 6.97 9 10 C7.35 9.67 5.7 9.34 4 9 C4 8.01 4 7.02 4 6 C3.01 5.67 2.02 5.34 1 5 C0.67 3.35 0.34 1.7 0 0 Z " fill="#4A56A8" transform="translate(27,94)"/>
<path d="M0 0 C0.33 0 0.66 0 1 0 C1.01458252 0.81154541 1.02916504 1.62309082 1.04418945 2.45922852 C1.11897632 6.16078193 1.21553761 9.86146379 1.3125 13.5625 C1.33505859 14.83931641 1.35761719 16.11613281 1.38085938 17.43164062 C1.35540895 26.76632707 1.35540895 26.76632707 5 35 C11.40930909 38.03116547 19.62788574 37.42436017 26.5625 37.625 C27.66658203 37.66367188 28.77066406 37.70234375 29.90820312 37.7421875 C32.60522054 37.8355907 35.30258631 37.91884266 38 38 C37.505 32.06 37.505 32.06 37 26 C40 29 40 29 40.328125 31.6640625 C40.28945312 33.12972656 40.28945312 33.12972656 40.25 34.625 C40.23453125 35.60726562 40.2190625 36.58953125 40.203125 37.6015625 C40 40 40 40 39 41 C34.65026002 41.10472416 30.30288058 40.94434188 25.95458984 40.81298828 C23.77320079 40.75066288 21.5920359 40.70896853 19.41015625 40.66796875 C18.01819266 40.62888329 16.62626323 40.5885577 15.234375 40.546875 C13.96819336 40.51432617 12.70201172 40.48177734 11.39746094 40.44824219 C6.67153762 39.82473003 4.19579389 38.47924374 1.20581055 34.78051758 C-0.34787539 31.19782288 -0.33958766 28.41216789 -0.29296875 24.51171875 C-0.28872391 23.80852005 -0.28447906 23.10532135 -0.28010559 22.3808136 C-0.2634006 20.14930869 -0.22576614 17.91872887 -0.1875 15.6875 C-0.17244248 14.1686329 -0.15875594 12.64975154 -0.14648438 11.13085938 C-0.11352473 7.42027566 -0.06180016 3.71022822 0 0 Z " fill="#474EAC" transform="translate(1,116)"/>
<path d="M0 0 C0.66 0.33 1.32 0.66 2 1 C1.71125 1.67804688 1.4225 2.35609375 1.125 3.0546875 C-1.43578595 9.4744356 -2.87041468 15.06522076 -2 22 C-1.67 22.33 -1.34 22.66 -1 23 C-0.83266843 24.4790916 -0.66615314 25.95827556 -0.5 27.4375 C0.92507457 34.90574794 5.98342201 39.94839044 11.90234375 44.4453125 C18.91873835 48.74106429 26.1938248 49.28740275 34.20703125 49.65625 C37 50 37 50 39 52 C27.37703732 53.90540372 17.71698164 51.83059985 8 45 C1.21923493 38.91114973 -3.52591783 31.10089346 -4.23828125 21.93359375 C-4.41152293 13.77299898 -3.39858814 7.43441155 0 0 Z " fill="#3841A2" transform="translate(259,99)"/>
<path d="M0 0 C1.42103279 0.01273453 1.42103279 0.01273453 2.87077332 0.02572632 C5.88767673 0.05923347 8.90187751 0.13450774 11.91796875 0.2109375 C13.96675819 0.24104058 16.01558966 0.26841578 18.06445312 0.29296875 C23.07916156 0.35901617 28.09185745 0.46251969 33.10546875 0.5859375 C33.60046875 1.5759375 33.60046875 1.5759375 34.10546875 2.5859375 C32.8844043 2.60575684 31.66333984 2.62557617 30.40527344 2.64599609 C25.87267521 2.72209873 21.34039605 2.81080911 16.80810547 2.90332031 C14.84690655 2.94159077 12.88563791 2.97644704 10.92431641 3.0078125 C8.10423878 3.0535049 5.28464037 3.1114925 2.46484375 3.171875 C1.58866394 3.18342621 0.71248413 3.19497742 -0.19024658 3.20687866 C-1.42106964 3.2366832 -1.42106964 3.2366832 -2.67675781 3.26708984 C-3.39623596 3.28041351 -4.11571411 3.29373718 -4.85699463 3.3074646 C-7.25839022 3.6356666 -8.85804343 4.27457063 -10.89453125 5.5859375 C-11.99037305 8.40851145 -11.99037305 8.40851145 -11.89453125 11.5859375 C-10.94726171 13.28312877 -9.95224864 14.95528986 -8.89453125 16.5859375 C-9.22453125 17.5759375 -9.55453125 18.5659375 -9.89453125 19.5859375 C-13.09792277 16.30246119 -14.70405425 14.65260869 -15.51953125 10.0859375 C-13.83178309 0.63454778 -8.41511588 -0.28487817 0 0 Z " fill="#4853B9" transform="translate(14.89453125,76.4140625)"/>
<path d="M0 0 C0.33 5.94 0.66 11.88 1 18 C2.32 18 3.64 18 5 18 C5 17.34 5 16.68 5 16 C9.62186951 15.63025044 13.05541223 15.55443973 17.3125 17.5625 C21.16327565 21.05506396 23.72813869 24.246308 24.2421875 29.453125 C24.24910088 31.65157876 24.17882026 33.80945187 24 36 C23.01 36.495 23.01 36.495 22 37 C21.13541008 34.2981565 21.02984517 32.45283854 21.1875 29.5625 C20.96160633 25.27052021 20.08843942 23.92149675 17 21 C12.51265329 18.17938207 7.98050992 19.01830817 3 20 C0.08490718 20.94476554 0.08490718 20.94476554 -2 22 C-2.92092281 17.34462644 -3.12205997 12.85314567 -3.0625 8.125 C-3.05798828 7.43664062 -3.05347656 6.74828125 -3.04882812 6.0390625 C-3.03716336 4.35933665 -3.01923271 2.67965625 -3 1 C-1 0 -1 0 0 0 Z " fill="#2732BC" transform="translate(328,87)"/>
<path d="M0 0 C-0.47684639 4.29161753 -2.94137319 6.14528164 -6 9 C-7.06380198 10.10291234 -8.12630026 11.20708361 -9.1875 12.3125 C-12 15 -12 15 -14 15 C-14.20625 15.804375 -14.4125 16.60875 -14.625 17.4375 C-16 20 -16 20 -18.6875 21.25 C-23.16167082 20.91232673 -24.66963001 19.01276856 -27.6796875 15.859375 C-29 14 -29 14 -29 11 C-24.62140745 11.50522222 -22.18348776 14.17827222 -19 17 C-18.175 15.989375 -17.35 14.97875 -16.5 13.9375 C-13.53981244 10.47105709 -10.31095012 7.51496381 -6.83203125 4.578125 C-4.98091136 3.03740136 -4.98091136 3.03740136 -3.38671875 1.296875 C-2 0 -2 0 0 0 Z " fill="#4150E0" transform="translate(97,129)"/>
<path d="M0 0 C13.365 0.495 13.365 0.495 27 1 C26.67 3.31 26.34 5.62 26 8 C25.01 8.33 24.02 8.66 23 9 C21.79117904 11.00016466 21.79117904 11.00016466 21 13 C20.34 13 19.68 13 19 13 C19 13.66 19 14.32 19 15 C18.01 15 17.02 15 16 15 C16 15.66 16 16.32 16 17 C14.35546875 18.18359375 14.35546875 18.18359375 12.1875 19.4375 C9.97715845 20.72183325 8.18903804 21.80064226 6.42578125 23.66015625 C5 25 5 25 2 25 C2 24.34 2 23.68 2 23 C3.66286479 21.99369068 5.33054544 20.99533876 7 20 C9.089485 18.19815839 11.11747523 16.38737366 13.125 14.5 C13.91197266 13.77103516 13.91197266 13.77103516 14.71484375 13.02734375 C16.77448013 11.11370691 18.81083005 9.2001978 20.7421875 7.15625 C22 6 22 6 24 6 C24 4.68 24 3.36 24 2 C16.08 2 8.16 2 0 2 C0 1.34 0 0.68 0 0 Z " fill="#6C7CE2" transform="translate(49,92)"/>
<path d="M0 0 C1.5625 1.125 1.5625 1.125 3 3 C3.34397855 7.81569975 1.11166714 10.37680423 -1.875 13.875 C-3.9921875 16.2421875 -3.9921875 16.2421875 -6 18 C-6.99 18 -7.98 18 -9 18 C-9 18.99 -9 19.98 -9 21 C-10.64453125 22.7890625 -10.64453125 22.7890625 -12.8125 24.625 C-13.52019531 25.23601562 -14.22789063 25.84703125 -14.95703125 26.4765625 C-17 28 -17 28 -20 29 C-20.6837045 30.32467746 -21.34964186 31.65863633 -22 33 C-22.99 33.66 -23.98 34.32 -25 35 C-25 33.68 -25 32.36 -25 31 C-24.34 31 -23.68 31 -23 31 C-23 30.34 -23 29.68 -23 29 C-22.34 29 -21.68 29 -21 29 C-21 28.34 -21 27.68 -21 27 C-20.01 26.67 -19.02 26.34 -18 26 C-17.34 25.01 -16.68 24.02 -16 23 C-15.34 23 -14.68 23 -14 23 C-14 22.34 -14 21.68 -14 21 C-12.125 18.875 -12.125 18.875 -10 17 C-9.34 17 -8.68 17 -8 17 C-7.9071875 16.1646875 -7.9071875 16.1646875 -7.8125 15.3125 C-7 13 -7 13 -4.5 10.6875 C-1.46433136 7.42415621 -1.33509238 5.3562009 -1 1 C-0.67 0.67 -0.34 0.34 0 0 Z " fill="#7182E1" transform="translate(98,81)"/>
<path d="M0 0 C0.99 0.99 1.98 1.98 3 3 C2.54109375 3.37511719 2.0821875 3.75023437 1.609375 4.13671875 C-2.04989951 7.18867669 -5.08402098 10.20922727 -8 14 C-13.91065292 20.20618557 -13.91065292 20.20618557 -17 22 C-19.25 21.6875 -19.25 21.6875 -21 21 C-21 20.01 -21 19.02 -21 18 C-20.13761719 17.62875 -19.27523437 17.2575 -18.38671875 16.875 C-14.48668341 14.71581088 -11.8608903 12.19907119 -8.8125 9 C-8.29236328 8.46632812 -7.77222656 7.93265625 -7.23632812 7.3828125 C-5.81873291 5.92719749 -4.40902022 4.46391711 -3 3 C-2.00313969 1.99687013 -1.00516785 0.9948053 0 0 Z " fill="#4150DB" transform="translate(110,128)"/>
<path d="M0 0 C15.84 0 31.68 0 48 0 C48.66 1.65 49.32 3.3 50 5 C49.38358643 4.67854004 48.76717285 4.35708008 48.13208008 4.02587891 C43.71373691 2.57869846 39.5096755 2.64295059 34.88671875 2.5859375 C33.91716751 2.56657135 32.94761627 2.5472052 31.94868469 2.5272522 C28.86171172 2.46762564 25.77470112 2.4211386 22.6875 2.375 C20.59047882 2.33680466 18.49347306 2.29775202 16.39648438 2.2578125 C11.26444869 2.16193791 6.13233957 2.07784423 1 2 C0.67 1.34 0.34 0.68 0 0 Z " fill="#6473C4" transform="translate(48,77)"/>
<path d="M0 0 C5.67320903 3.98331698 5.67320903 3.98331698 7.125 8.5 C6.96960795 12.85097726 5.88528859 13.82424612 3 17 C1.24771504 18.54582239 -0.54636915 20.04529087 -2.375 21.5 C-3.33792969 22.27214844 -4.30085938 23.04429688 -5.29296875 23.83984375 C-6.63294922 24.90912109 -6.63294922 24.90912109 -8 26 C-10.00865887 27.65666531 -12.00420501 29.32784744 -14 31 C-13.4409112 27.75728494 -12.5867822 26.06942576 -10 24 C-9.34 24 -8.68 24 -8 24 C-8 23.01 -8 22.02 -8 21 C-7.29875 20.608125 -6.5975 20.21625 -5.875 19.8125 C-1.87549498 17.29107292 0.76906525 14.16915821 3 10 C3 6.11488942 1.92817573 3.34217126 0 0 Z " fill="#5E68A6" transform="translate(97,78)"/>
<path d="M0 0 C1.32 0.33 2.64 0.66 4 1 C2.60249952 4.15835107 0.94801766 6.32272825 -1.5 8.75 C-2.41265625 9.67039063 -2.41265625 9.67039063 -3.34375 10.609375 C-5 12 -5 12 -7 12 C-7.226875 12.5775 -7.45375 13.155 -7.6875 13.75 C-9.33038023 16.5663661 -11.39533227 18.08077114 -14 20 C-15.98 17.69 -17.96 15.38 -20 13 C-17.125 12.875 -17.125 12.875 -14 13 C-13.34 13.66 -12.68 14.32 -12 15 C-11.44570312 14.3503125 -10.89140625 13.700625 -10.3203125 13.03125 C-9.59585938 12.1959375 -8.87140625 11.360625 -8.125 10.5 C-7.40570313 9.6646875 -6.68640625 8.829375 -5.9453125 7.96875 C-5.30335937 7.3190625 -4.66140625 6.669375 -4 6 C-3.34 6 -2.68 6 -2 6 C-2 5.34 -2 4.68 -2 4 C-1.34 3.34 -0.68 2.68 0 2 C0 1.34 0 0.68 0 0 Z " fill="#2B3EBF" transform="translate(91,127)"/>
<path d="M0 0 C1.32 0.33 2.64 0.66 4 1 C4 1.99 4 2.98 4 4 C4.88429688 4.06316406 5.76859375 4.12632813 6.6796875 4.19140625 C10.82238788 5.20027564 12.27033843 6.81884935 15.125 9.9375 C19.03035646 14.20536526 19.03035646 14.20536526 24 17 C19.9472301 18.15793426 17.73695111 17.96681638 14 16 C12.1875 14.5 12.1875 14.5 11 13 C11 12.34 11 11.68 11 11 C10.34 11 9.68 11 9 11 C5.71785396 8.11811567 3.9103105 6.24811568 3 2 C2.01 1.67 1.02 1.34 0 1 C0 0.67 0 0.34 0 0 Z " fill="#4858E3" transform="translate(27,99)"/>
<path d="M0 0 C0.33 0 0.66 0 1 0 C1.20753906 0.83402344 1.41507812 1.66804688 1.62890625 2.52734375 C4.47149592 12.91052695 7.99897027 19.88385309 17.4375 25.4375 C18.30246094 25.88996094 19.16742188 26.34242188 20.05859375 26.80859375 C20.69925781 27.20175781 21.33992188 27.59492188 22 28 C22 28.66 22 29.32 22 30 C15.05131406 29.13141426 9.79084892 24.21722861 5.3125 19.0546875 C1.81884748 14.25091528 -0.2820434 10.71764902 -0.125 4.75 C-0.09792969 3.41195312 -0.09792969 3.41195312 -0.0703125 2.046875 C-0.04710937 1.37140625 -0.02390625 0.6959375 0 0 Z " fill="#333DB5" transform="translate(324,122)"/>
<path d="M0 0 C1.32 0.66 2.64 1.32 4 2 C3.01 2 2.02 2 1 2 C0.7525 2.598125 0.505 3.19625 0.25 3.8125 C-1.18072525 6.31626919 -2.5691582 7.48072388 -5 9 C-5.66 9 -6.32 9 -7 9 C-7 9.99 -7 10.98 -7 12 C-6.34 12.33 -5.68 12.66 -5 13 C-6.375 14.5 -6.375 14.5 -8 16 C-8.66 16 -9.32 16 -10 16 C-10 20.62 -10 25.24 -10 30 C-10.66 29.67 -11.32 29.34 -12 29 C-12.59859631 21.33464166 -11.44310985 14.92076596 -8 8 C-6.53125 6.3515625 -6.53125 6.3515625 -5 5 C-4.113125 4.113125 -3.22625 3.22625 -2.3125 2.3125 C-1.549375 1.549375 -0.78625 0.78625 0 0 Z " fill="#404CDA" transform="translate(268,92)"/>
<path d="M0 0 C2.31 0.33 4.62 0.66 7 1 C7.6796875 2.76953125 7.6796875 2.76953125 8 5 C6.8828125 6.82421875 6.8828125 6.82421875 5.125 8.6875 C4.48691406 9.37199219 3.84882812 10.05648437 3.19140625 10.76171875 C-0.50797752 14.54023373 -4.22240099 18.29949485 -8 22 C-8.99 21.67 -9.98 21.34 -11 21 C-9.85807217 19.85807217 -8.71550762 18.71677615 -7.5703125 17.578125 C-6.42984968 16.43198823 -5.30112694 15.27413185 -4.1796875 14.109375 C-3.56351562 13.47515625 -2.94734375 12.8409375 -2.3125 12.1875 C-1.73113281 11.58292969 -1.14976563 10.97835937 -0.55078125 10.35546875 C1 9 1 9 3 9 C3.66 7.02 4.32 5.04 5 3 C2.525 2.01 2.525 2.01 0 1 C0 0.67 0 0.34 0 0 Z " fill="#343EB2" transform="translate(92,126)"/>
<path d="M0 0 C3.2706138 1.06294949 6.40934937 2.1795392 9.5625 3.5625 C14.33879942 5.41737356 19.16537103 5.49705017 24.2421875 5.69140625 C27 6 27 6 29 8 C18.00848201 9.80188819 9.3726316 8.06328267 0 2 C0 1.34 0 0.68 0 0 Z " fill="#343CB5" transform="translate(269,143)"/>
<path d="M0 0 C0.88945313 0.00644531 1.77890625 0.01289062 2.6953125 0.01953125 C3.61570312 0.03628906 4.53609375 0.05304688 5.484375 0.0703125 C6.42023437 0.07933594 7.35609375 0.08835937 8.3203125 0.09765625 C10.62526157 0.12117614 12.9296866 0.15404397 15.234375 0.1953125 C15.234375 1.1853125 15.234375 2.1753125 15.234375 3.1953125 C7.974375 3.1953125 0.714375 3.1953125 -6.765625 3.1953125 C-6.435625 4.5153125 -6.105625 5.8353125 -5.765625 7.1953125 C-6.425625 7.1953125 -7.085625 7.1953125 -7.765625 7.1953125 C-8.095625 5.5453125 -8.425625 3.8953125 -8.765625 2.1953125 C-5.70405846 0.41862027 -3.52526285 -0.04519568 0 0 Z " fill="#4C5BE1" transform="translate(33.765625,90.8046875)"/>
<path d="M0 0 C0.66 0.33 1.32 0.66 2 1 C-0.67540747 4.56720996 -3.35659412 7.41126424 -7 10 C-7.66 10 -8.32 10 -9 10 C-9.185625 10.556875 -9.37125 11.11375 -9.5625 11.6875 C-11.63529883 15.02200247 -14.5631968 17.13233857 -18 19 C-18.99 19 -19.98 19 -21 19 C-21 18.01 -21 17.02 -21 16 C-20.01 16 -19.02 16 -18 16 C-18 15.34 -18 14.68 -18 14 C-15.35261084 12.5393715 -14.10551666 12 -11 12 C-11 11.01 -11 10.02 -11 9 C-10.01 9 -9.02 9 -8 9 C-7.79375 8.443125 -7.5875 7.88625 -7.375 7.3125 C-5.44999226 4.07498698 -2.96149098 2.31768859 0 0 Z " fill="#6A7BE1" transform="translate(71,116)"/>
<path d="M0 0 C1.32 0.33 2.64 0.66 4 1 C4 1.66 4 2.32 4 3 C4.99 3.33 5.98 3.66 7 4 C7 4.66 7 5.32 7 6 C8.32 6 9.64 6 11 6 C12.32 8.97 13.64 11.94 15 15 C11 13 11 13 10.25 10.875 C10.1675 10.25625 10.085 9.6375 10 9 C9.0925 8.9175 8.185 8.835 7.25 8.75 C3.54715105 7.8954964 2.24634594 7.02392723 0 4 C0 2.68 0 1.36 0 0 Z " fill="#4B5CE7" transform="translate(6,93)"/>
<path d="M0 0 C3.57632226 4.01865685 5.30395677 7.58359136 5.3125 13 C5.2335688 14.33506492 5.13856238 15.66980117 5 17 C4.34 17.33 3.68 17.66 3 18 C2.13541008 15.2981565 2.02984517 13.45283854 2.1875 10.5625 C1.96160633 6.27052021 1.08843942 4.92149675 -2 2 C-5.53618731 0.13884879 -9.06142697 -0.45043167 -13 -1 C-13 -1.33 -13 -1.66 -13 -2 C-7.58091529 -3.19219864 -4.57714764 -3.28360592 0 0 Z " fill="#3740AC" transform="translate(347,106)"/>
<path d="M0 0 C4.67764998 3.6630401 4.67764998 3.6630401 5.50634766 7.10009766 C5.71456302 9.51306547 5.79529719 11.89072727 5.8125 14.3125 C5.85020508 15.56643555 5.85020508 15.56643555 5.88867188 16.84570312 C5.9472699 18.89663409 5.97656493 20.94836593 6 23 C3 21 3 21 2 18 C1.74185569 14.8162202 1.55855775 11.63862297 1.39453125 8.44921875 C1.22119256 5.41878033 0.96551384 2.89654151 0 0 Z " fill="#535DD8" transform="translate(11,119)"/>
<path d="M0 0 C0.33 0 0.66 0 1 0 C1 8.91 1 17.82 1 27 C-3 29 -3 29 -6.25 28.125 C-7.1575 27.75375 -8.065 27.3825 -9 27 C-5.72921858 26.03087958 -3.60964568 26 0 26 C0 17.42 0 8.84 0 0 Z " fill="#3945CC" transform="translate(304,58)"/>
<path d="M0 0 C3 3 3 3 3.328125 5.6640625 C3.30234375 6.64117187 3.2765625 7.61828125 3.25 8.625 C3.23453125 9.60726562 3.2190625 10.58953125 3.203125 11.6015625 C3 14 3 14 2 15 C-0.33297433 15.04092937 -2.66705225 15.04241723 -5 15 C-4.67 14.34 -4.34 13.68 -4 13 C-2.35 12.67 -0.7 12.34 1 12 C0.67 8.04 0.34 4.08 0 0 Z " fill="#444B7C" transform="translate(38,142)"/>
<path d="M0 0 C0.66 0.33 1.32 0.66 2 1 C-5.28467153 8.28467153 -5.28467153 8.28467153 -9.5 8.75 C-10.2940625 8.84796875 -11.088125 8.9459375 -11.90625 9.046875 C-14 9 -14 9 -16 7 C-15.18015625 6.82984375 -14.3603125 6.6596875 -13.515625 6.484375 C-12.43796875 6.24203125 -11.3603125 5.9996875 -10.25 5.75 C-9.18265625 5.51796875 -8.1153125 5.2859375 -7.015625 5.046875 C-3.73185595 3.90691372 -2.22925005 2.61882772 0 0 Z " fill="#3943B2" transform="translate(348,125)"/>
<path d="M0 0 C1.75 0.125 1.75 0.125 4 1 C6.25 4.0625 6.25 4.0625 8 7 C7.67 7.66 7.34 8.32 7 9 C3.37 9 -0.26 9 -4 9 C-1.08235 7.0549 0.62537285 6.54723683 4 6 C2.68 4.02 1.36 2.04 0 0 Z " fill="#323CB2" transform="translate(288,94)"/>
<path d="M0 0 C1.45823212 -0.0270043 2.91660675 -0.04639787 4.375 -0.0625 C5.18710937 -0.07410156 5.99921875 -0.08570313 6.8359375 -0.09765625 C9 0 9 0 11 1 C11 3.97 11 6.94 11 10 C9.68 9.67 8.36 9.34 7 9 C7.66 9 8.32 9 9 9 C8.34 6.69 7.68 4.38 7 2 C6.401875 2.226875 5.80375 2.45375 5.1875 2.6875 C4.465625 2.790625 3.74375 2.89375 3 3 C1.36328125 1.51953125 1.36328125 1.51953125 0 0 Z " fill="#4F5CE8" transform="translate(26,142)"/>
<path d="M0 0 C0.99 0.33 1.98 0.66 3 1 C2.42415568 3.38564077 1.77772405 5.66682784 1 8 C1 8.99 1 9.98 1 11 C-1.375 11.625 -1.375 11.625 -4 12 C-4.66 11.34 -5.32 10.68 -6 10 C-4.7934375 9.1028125 -4.7934375 9.1028125 -3.5625 8.1875 C-0.77672016 6.19052724 -0.77672016 6.19052724 0 3 C0 2.01 0 1.02 0 0 Z " fill="#4051DC" transform="translate(349,122)"/>
<path d="M0 0 C0.99 0.66 1.98 1.32 3 2 C3 2.66 3 3.32 3 4 C0.72923158 4.02699725 -1.54162821 4.04639453 -3.8125 4.0625 C-5.70935547 4.07990234 -5.70935547 4.07990234 -7.64453125 4.09765625 C-11 4 -11 4 -14 3 C-13.67 2.34 -13.34 1.68 -13 1 C-12.09507812 1.14308594 -12.09507812 1.14308594 -11.171875 1.2890625 C-10.37265625 1.39992187 -9.5734375 1.51078125 -8.75 1.625 C-7.96109375 1.74101562 -7.1721875 1.85703125 -6.359375 1.9765625 C-3.67847541 2.00319395 -2.27305911 1.36592084 0 0 Z " fill="#4352E3" transform="translate(294,145)"/>
<path d="M0 0 C0.33 0 0.66 0 1 0 C1 11.22 1 22.44 1 34 C0.67 34 0.34 34 0 34 C0 22.78 0 11.56 0 0 Z " fill="#000000" transform="translate(459,87)"/>
<path d="M0 0 C12.66970387 -0.3690205 12.66970387 -0.3690205 18 2 C14.30691024 3.23102992 11.11949288 2.87175152 7.3125 2.5625 C6.2596582 2.48418945 6.2596582 2.48418945 5.18554688 2.40429688 C3.45661946 2.27492135 1.72824645 2.13817469 0 2 C0 1.34 0 0.68 0 0 Z " fill="#3B44B4" transform="translate(284,82)"/>
<path d="M0 0 C5.7809725 0.63065155 11.3443706 1.65155132 17 3 C17 3.33 17 3.66 17 4 C10.90218999 4.22084624 5.78357065 4.01167675 0 2 C0 1.34 0 0.68 0 0 Z " fill="#3141AA" transform="translate(325,149)"/>
<path d="M0 0 C0.66 0.66 1.32 1.32 2 2 C-1.70840948 5.55389242 -5.03684082 5.76365909 -10 6 C-10.99 5.34 -11.98 4.68 -13 4 C-12.39671875 3.87882813 -11.7934375 3.75765625 -11.171875 3.6328125 C-10.37265625 3.46523437 -9.5734375 3.29765625 -8.75 3.125 C-7.96109375 2.96257812 -7.1721875 2.80015625 -6.359375 2.6328125 C-4.03168856 2.00849925 -2.10968048 1.15161458 0 0 Z " fill="#5357AF" transform="translate(59,131)"/>
<path d="M0 0 C1.86328125 0.2265625 1.86328125 0.2265625 4 1 C5.23046875 2.9609375 5.23046875 2.9609375 6.1875 5.375 C6.67283203 6.56222656 6.67283203 6.56222656 7.16796875 7.7734375 C8.77540175 12.07501877 9.08676672 15.40136372 9 20 C8.67 20 8.34 20 8 20 C7.72736328 18.77023438 7.72736328 18.77023438 7.44921875 17.515625 C7.07216797 15.89914063 7.07216797 15.89914063 6.6875 14.25 C6.44386719 13.18265625 6.20023437 12.1153125 5.94921875 11.015625 C5.01490217 8.04734351 3.9771196 6.35571697 2 4 C1.30419733 2.68163705 0.62775567 1.35208914 0 0 Z " fill="#3547A7" transform="translate(294,95)"/>
<path d="M0 0 C2.64 1.98 5.28 3.96 8 6 C4.16380575 6.95904856 2.67568464 6.91892116 -1 6 C-1.33 4.35 -1.66 2.7 -2 1 C-1.34 0.67 -0.68 0.34 0 0 Z " fill="#3F4FD9" transform="translate(334,145)"/>
<path d="M0 0 C0.96164062 -0.00515625 1.92328125 -0.0103125 2.9140625 -0.015625 C5.375 0.25 5.375 0.25 7.375 2.25 C1.43890334 3.14316269 -3.69475197 3.22040422 -9.625 2.25 C-6.33170174 0.28338587 -3.81203427 -0.02055005 0 0 Z " fill="#2E38A0" transform="translate(290.625,148.75)"/>
<path d="M0 0 C2.3125 0.1875 2.3125 0.1875 5 1 C6.5 3.25 6.5 3.25 8 6 C8.886875 6.86625 9.77375 7.7325 10.6875 8.625 C13 11 13 11 13 14 C10.83031809 11.85714108 8.66416525 9.71091768 6.5 7.5625 C5.87996094 6.95083984 5.25992187 6.33917969 4.62109375 5.70898438 C4.03457031 5.12568359 3.44804687 4.54238281 2.84375 3.94140625 C2.02680664 3.13231812 2.02680664 3.13231812 1.19335938 2.30688477 C0 1 0 1 0 0 Z " fill="#555FC1" transform="translate(11,101)"/>
<path d="M0 0 C7.59 0 15.18 0 23 0 C22.67 1.32 22.34 2.64 22 4 C21.01 3.34 20.02 2.68 19 2 C16.87662229 1.63566627 16.87662229 1.63566627 14.55078125 1.5859375 C13.70322266 1.54726562 12.85566406 1.50859375 11.98242188 1.46875 C11.10134766 1.4378125 10.22027344 1.406875 9.3125 1.375 C8.41982422 1.33632812 7.52714844 1.29765625 6.60742188 1.2578125 C4.4051538 1.16359782 2.20289278 1.07798412 0 1 C0 0.67 0 0.34 0 0 Z " fill="#5B69BB" transform="translate(50,94)"/>
<path d="M0 0 C1.98 0.99 3.96 1.98 6 3 C5.01 3.495 5.01 3.495 4 4 C4.99 5.98 5.98 7.96 7 10 C5.68 9.67 4.36 9.34 3 9 C2.87625 8.360625 2.7525 7.72125 2.625 7.0625 C2.315625 6.0415625 2.315625 6.0415625 2 5 C1.34 4.67 0.68 4.34 0 4 C0 2.68 0 1.36 0 0 Z " fill="#323F9B" transform="translate(328,128)"/>
<path d="M0 0 C9.57 0 19.14 0 29 0 C29 0.33 29 0.66 29 1 C19.43 1 9.86 1 0 1 C0 0.67 0 0.34 0 0 Z " fill="#000000" transform="translate(670,121)"/>
<path d="M0 0 C0.99 0.66 1.98 1.32 3 2 C3 2.99 3 3.98 3 5 C2.43410156 4.83757812 1.86820312 4.67515625 1.28515625 4.5078125 C-1.07174255 3.98405721 -3.15162662 3.86684138 -5.5625 3.875 C-6.32691406 3.87242188 -7.09132813 3.86984375 -7.87890625 3.8671875 C-10.18998495 3.92092616 -10.18998495 3.92092616 -13 5 C-13 4.01 -13 3.02 -13 2 C-8.71 2 -4.42 2 0 2 C0 1.34 0 0.68 0 0 Z " fill="#383E9C" transform="translate(295,101)"/>
<path d="M0 0 C4.25682295 2.77996601 4.25682295 2.77996601 6 5 C6.4891622 8.15841766 5.93831979 9.82013848 5 13 C2.9375 14.5 2.9375 14.5 1 15 C1.350625 14.29875 1.70125 13.5975 2.0625 12.875 C3.42941606 8.68312408 2.71461624 5.59737748 0.9375 1.625 C0.628125 1.08875 0.31875 0.5525 0 0 Z " fill="#6870AB" transform="translate(97,78)"/>
<path d="M0 0 C1.32 0.33 2.64 0.66 4 1 C3.67 6.61 3.34 12.22 3 18 C0.525 17.01 0.525 17.01 -2 16 C-0.68 15.67 0.64 15.34 2 15 C2 10.38 2 5.76 2 1 C1.34 0.67 0.68 0.34 0 0 Z " fill="#5365EC" transform="translate(47,116)"/>
<path d="M0 0 C9.24 0 18.48 0 28 0 C28 0.33 28 0.66 28 1 C18.76 1 9.52 1 0 1 C0 0.67 0 0.34 0 0 Z " fill="#000000" transform="translate(157,121)"/>
<path d="M0 0 C0.66 0 1.32 0 2 0 C1.67 0.99 1.34 1.98 1 3 C0.34 3 -0.32 3 -1 3 C-1 3.66 -1 4.32 -1 5 C-2.28817344 6.37701298 -3.62804426 7.70644173 -5 9 C-5.5775 9.5775 -6.155 10.155 -6.75 10.75 C-7.36875 11.36875 -7.36875 11.36875 -8 12 C-8.33 11.34 -8.66 10.68 -9 10 C-7.8758824 8.70756532 -6.75067408 7.41607925 -5.625 6.125 C-4.99851562 5.40570313 -4.37203125 4.68640625 -3.7265625 3.9453125 C-2.52573166 2.5923402 -1.2791655 1.2791655 0 0 Z " fill="#3740A4" transform="translate(269,88)"/>
<path d="M0 0 C0.33 0 0.66 0 1 0 C1.05451714 2.04136395 1.09302485 4.08315856 1.125 6.125 C1.14820313 7.26195313 1.17140625 8.39890625 1.1953125 9.5703125 C0.99672109 13.05757767 0.2524801 15.7553862 -1 19 C-1.33 19 -1.66 19 -2 19 C-2.09765625 12.84765625 -2.09765625 12.84765625 -2 11 C-1.67 10.67 -1.34 10.34 -1 10 C-0.76712992 8.31816052 -0.58735834 6.6287584 -0.4375 4.9375 C-0.35371094 4.01839844 -0.26992188 3.09929687 -0.18359375 2.15234375 C-0.12300781 1.44207031 -0.06242187 0.73179688 0 0 Z " fill="#33389E" transform="translate(371,112)"/>
<path d="M0 0 C0.33 0 0.66 0 1 0 C1.0809313 2.60478883 1.14045434 5.20706653 1.1875 7.8125 C1.21263672 8.55048828 1.23777344 9.28847656 1.26367188 10.04882812 C1.33834499 15.54974762 1.33834499 15.54974762 -0.51171875 18.01171875 C-1.24841797 18.50091797 -1.24841797 18.50091797 -2 19 C-2.04254356 17.00045254 -2.04080783 14.99958364 -2 13 C-1.67 12.67 -1.34 12.34 -1 12 C-0.76572222 9.98405418 -0.58663876 7.961526 -0.4375 5.9375 C-0.35371094 4.83277344 -0.26992188 3.72804688 -0.18359375 2.58984375 C-0.12300781 1.73519531 -0.06242187 0.88054687 0 0 Z " fill="#2A42D6" transform="translate(304,112)"/>
<path d="M0 0 C2.97 1.65 5.94 3.3 9 5 C9 5.66 9 6.32 9 7 C5.2241456 6.47557578 2.77627845 5.67345333 0 3 C0 2.01 0 1.02 0 0 Z " fill="#333C9C" transform="translate(337,145)"/>
<path d="M0 0 C0.66 0 1.32 0 2 0 C3.00496852 3.01490557 3.10335303 5.04181692 3.0625 8.1875 C3.05347656 9.08855469 3.04445312 9.98960937 3.03515625 10.91796875 C3.02355469 11.60503906 3.01195312 12.29210937 3 13 C2.01 12.67 1.02 12.34 0 12 C0 8.04 0 4.08 0 0 Z " fill="#4C57B2" transform="translate(36,141)"/>
<path d="M0 0 C1.98 0 3.96 0 6 0 C6.66 1.98 7.32 3.96 8 6 C5 6 5 6 3.61328125 4.6875 C2.40885417 3.125 1.20442708 1.5625 0 0 Z " fill="#2130BE" transform="translate(71,140)"/>
<path d="M0 0 C0.33 0.99 0.66 1.98 1 3 C0.071875 3.598125 -0.85625 4.19625 -1.8125 4.8125 C-4.88683144 6.7654585 -4.88683144 6.7654585 -6.6875 8.75 C-8 10 -8 10 -11 10 C-11 9.34 -11 8.68 -11 8 C-9.34634594 6.97862543 -7.67623498 5.98387706 -6 5 C-3.94370129 3.39156026 -1.97987481 1.70361321 0 0 Z " fill="#6572C0" transform="translate(62,107)"/>
<path d="M0 0 C0 0.99 0 1.98 0 3 C-0.66 3 -1.32 3 -2 3 C-2 3.66 -2 4.32 -2 5 C-2.99 5.33 -3.98 5.66 -5 6 C-5.99 6.495 -5.99 6.495 -7 7 C-7 5.35 -7 3.7 -7 2 C-2.25 0 -2.25 0 0 0 Z " fill="#3642D6" transform="translate(282,104)"/>
<path d="M0 0 C0.33 0 0.66 0 1 0 C1.33 3.96 1.66 7.92 2 12 C1.01 12 0.02 12 -1 12 C-1.02698189 10.37509046 -1.04638757 8.75005367 -1.0625 7.125 C-1.07410156 6.22007812 -1.08570313 5.31515625 -1.09765625 4.3828125 C-1 2 -1 2 0 0 Z " fill="#354FB7" transform="translate(303,129)"/>
<path d="M0 0 C1.32 0.33 2.64 0.66 4 1 C4 1.66 4 2.32 4 3 C4.66 3.33 5.32 3.66 6 4 C5.34 5.32 4.68 6.64 4 8 C2 6.25 2 6.25 0 4 C0 2.68 0 1.36 0 0 Z " fill="#4D59D0" transform="translate(6,93)"/>
<path d="M0 0 C0.33 0.99 0.66 1.98 1 3 C-1.64 5.64 -4.28 8.28 -7 11 C-7.66 10.67 -8.32 10.34 -9 10 C-8.2575 9.278125 -7.515 8.55625 -6.75 7.8125 C-4.30709485 5.31407427 -2.1318953 2.76356798 0 0 Z " fill="#323EB1" transform="translate(107,135)"/>
<path d="M0 0 C1.98 0.66 3.96 1.32 6 2 C5.69381595 5.67420866 5.24228216 6.78135513 2.4375 9.3125 C1.633125 9.869375 0.82875 10.42625 0 11 C1.20381448 8.50638429 2.45428722 6.31856917 4 4 C2.68 3.34 1.36 2.68 0 2 C0 1.34 0 0.68 0 0 Z " fill="#2C398E" transform="translate(108,126)"/>
<path d="M0 0 C2.31 0.33 4.62 0.66 7 1 C7.6875 2.8125 7.6875 2.8125 8 5 C6.5625 6.75 6.5625 6.75 5 8 C5 6.35 5 4.7 5 3 C2.525 2.01 2.525 2.01 0 1 C0 0.67 0 0.34 0 0 Z " fill="#374096" transform="translate(92,126)"/>
<path d="M0 0 C4.13621084 3.3810038 7.81316569 6.66590534 11 11 C7.20450741 10.45418801 5.69020705 8.94590705 3.25 6.0625 C2.63640625 5.35222656 2.0228125 4.64195313 1.390625 3.91015625 C0 2 0 2 0 0 Z " fill="#4A56BD" transform="translate(36,104)"/>
<path d="M0 0 C0.33 0 0.66 0 1 0 C1.99 4.29 2.98 8.58 4 13 C0 10 0 10 -0.390625 7.51953125 C-0.34421875 6.62621094 -0.2978125 5.73289062 -0.25 4.8125 C-0.21390625 3.91144531 -0.1778125 3.01039062 -0.140625 2.08203125 C-0.07101562 1.05142578 -0.07101562 1.05142578 0 0 Z " fill="#3943A7" transform="translate(324,122)"/>
<path d="M0 0 C0.99 0 1.98 0 3 0 C3 2.97 3 5.94 3 9 C2.01 9.495 2.01 9.495 1 10 C-0.04005702 6.61981469 -0.08004482 3.5219721 0 0 Z " fill="#343EBB" transform="translate(349,114)"/>
<path d="M0 0 C4.46839215 -0.21278058 7.82262526 0.40861915 12 2 C10.5 3.1875 10.5 3.1875 8 4 C5.21175762 3.27101296 2.62334908 2.1843275 0 1 C0 0.67 0 0.34 0 0 Z " fill="#3D46A6" transform="translate(342,146)"/>
<path d="M0 0 C0.66 0.66 1.32 1.32 2 2 C1.67 2.66 1.34 3.32 1 4 C0.77377919 5.70363822 0.59111527 7.41328701 0.4375 9.125 C0.31181641 10.49011719 0.31181641 10.49011719 0.18359375 11.8828125 C0.12300781 12.58148438 0.06242187 13.28015625 0 14 C-0.33 14 -0.66 14 -1 14 C-1.22226864 12.23086176 -1.42733873 10.45955629 -1.625 8.6875 C-1.74101562 7.70136719 -1.85703125 6.71523437 -1.9765625 5.69921875 C-2 3 -2 3 0 0 Z " fill="#3A40A2" transform="translate(277,108)"/>
<path d="M0 0 C0.33 0 0.66 0 1 0 C0.38909774 6.47556391 0.38909774 6.47556391 -1.4375 8.9375 C-3 10 -3 10 -5 10 C-4.67 9.01 -4.34 8.02 -4 7 C-3.34 6.67 -2.68 6.34 -2 6 C-1.27306096 4.02111039 -0.60183749 2.02045442 0 0 Z " fill="#585B79" transform="translate(103,85)"/>
<path d="M0 0 C0.33 0.66 0.66 1.32 1 2 C-0.61594832 4.04119788 -2.2856382 6.04072937 -4 8 C-4.66 8 -5.32 8 -6 8 C-4.55746343 4.63408134 -2.66735273 2.48952921 0 0 Z " fill="#3541B9" transform="translate(84,137)"/>
<path d="M0 0 C0.33 0.66 0.66 1.32 1 2 C-1.84936103 5.00765886 -4.23511958 7.27845212 -8 9 C-7.04270084 7.87411986 -6.08412105 6.7493285 -5.125 5.625 C-4.59132813 4.99851562 -4.05765625 4.37203125 -3.5078125 3.7265625 C-2.38567993 2.44163349 -1.20628025 1.20628025 0 0 Z " fill="#6B77C0" transform="translate(71,98)"/>
<path d="M0 0 C1.98 0 3.96 0 6 0 C5.67 1.65 5.34 3.3 5 5 C3.02 4.01 1.04 3.02 -1 2 C-0.67 1.34 -0.34 0.68 0 0 Z " fill="#3E52E1" transform="translate(286,84)"/>
<path d="M0 0 C3.34998521 1.11666174 3.79340222 1.74694925 5.6875 4.5625 C6.12449219 5.20316406 6.56148437 5.84382813 7.01171875 6.50390625 C7.33785156 6.99761719 7.66398437 7.49132812 8 8 C4.79837298 7.40137646 4.08063485 7.08735442 1.75 4.5625 C0 2 0 2 0 0 Z " fill="#4C59DC" transform="translate(21,108)"/>
<path d="M0 0 C-0.33 0.66 -0.66 1.32 -1 2 C-3.97 2 -6.94 2 -10 2 C-5.86678317 -0.75547789 -4.77928863 -1.13193678 0 0 Z " fill="#3843D4" transform="translate(294,101)"/>
<path d="M0 0 C0.99 0.33 1.98 0.66 3 1 C0.44931155 3.35448165 -0.71017358 3.98327924 -4.25 4.1875 C-5.1575 4.125625 -6.065 4.06375 -7 4 C-6.1028125 3.566875 -6.1028125 3.566875 -5.1875 3.125 C-2.80672208 1.95257974 -2.80672208 1.95257974 0 0 Z " fill="#303AA8" transform="translate(356,144)"/>
<path d="M0 0 C0.66 0 1.32 0 2 0 C2 0.66 2 1.32 2 2 C4.475 2.99 4.475 2.99 7 4 C7 4.33 7 4.66 7 5 C4.625 5.125 4.625 5.125 2 5 C1.34 4.34 0.68 3.68 0 3 C0 2.01 0 1.02 0 0 Z " fill="#4D58C9" transform="translate(43,130)"/>
<path d="M0 0 C-0.25 1.875 -0.25 1.875 -1 4 C-2.9375 5.3125 -2.9375 5.3125 -5 6 C-5.66 5.67 -6.32 5.34 -7 5 C-2.25 0 -2.25 0 0 0 Z " fill="#5E6DB3" transform="translate(64,126)"/>
<path d="M0 0 C0.33 0.99 0.66 1.98 1 3 C-0.28965176 4.37562854 -1.62689293 5.70766393 -3 7 C-3.66 7 -4.32 7 -5 7 C-3.70700306 4.11562221 -2.34058637 2.12780579 0 0 Z " fill="#565DA2" transform="translate(97,93)"/>
<path d="M0 0 C3.63 0 7.26 0 11 0 C11 0.33 11 0.66 11 1 C7.37 1 3.74 1 0 1 C0 0.67 0 0.34 0 0 Z " fill="#000000" transform="translate(172,125)"/>
<path d="M0 0 C3.3 0 6.6 0 10 0 C10 0.33 10 0.66 10 1 C6.7 1 3.4 1 0 1 C0 0.67 0 0.34 0 0 Z " fill="#000000" transform="translate(687,125)"/>
<path d="M0 0 C2.97 0 5.94 0 9 0 C9 0.33 9 0.66 9 1 C4.545 1.495 4.545 1.495 0 2 C0 1.34 0 0.68 0 0 Z " fill="#000000" transform="translate(136,121)"/>
<path d="M0 0 C0.33 0 0.66 0 1 0 C1 2.97 1 5.94 1 9 C0.67 9 0.34 9 0 9 C0 6.03 0 3.06 0 0 Z " fill="#000000" transform="translate(122,112)"/>
<path d="M0 0 C2.97 0 5.94 0 9 0 C9 0.33 9 0.66 9 1 C6.03 1 3.06 1 0 1 C0 0.67 0 0.34 0 0 Z " fill="#000000" transform="translate(626,108)"/>
<path d="M0 0 C2.64 0 5.28 0 8 0 C8 0.33 8 0.66 8 1 C5.36 1 2.72 1 0 1 C0 0.67 0 0.34 0 0 Z " fill="#000000" transform="translate(558,147)"/>
<path d="M0 0 C2.64 0 5.28 0 8 0 C8 0.33 8 0.66 8 1 C5.36 1 2.72 1 0 1 C0 0.67 0 0.34 0 0 Z " fill="#000000" transform="translate(515,147)"/>
<path d="M0 0 C0.33 0 0.66 0 1 0 C1 2.64 1 5.28 1 8 C0.67 8 0.34 8 0 8 C0 5.36 0 2.72 0 0 Z " fill="#000000" transform="translate(441,112)"/>
<path d="M0 0 C0.33 0 0.66 0 1 0 C1 2.64 1 5.28 1 8 C0.67 8 0.34 8 0 8 C0 5.36 0 2.72 0 0 Z " fill="#000000" transform="translate(186,111)"/>
<path d="M0 0 C2.31 0 4.62 0 7 0 C7 0.33 7 0.66 7 1 C4.69 1 2.38 1 0 1 C0 0.67 0 0.34 0 0 Z " fill="#000000" transform="translate(194,147)"/>
<path d="M0 0 C0.33 0 0.66 0 1 0 C1 1.98 1 3.96 1 6 C0.67 6 0.34 6 0 6 C0 4.02 0 2.04 0 0 Z " fill="#000000" transform="translate(573,116)"/>
<path d="M0 0 C0.33 0 0.66 0 1 0 C1 1.98 1 3.96 1 6 C0.67 6 0.34 6 0 6 C0 4.02 0 2.04 0 0 Z " fill="#000000" transform="translate(568,104)"/>
<path d="M0 0 C1.65 0 3.3 0 5 0 C5 0.33 5 0.66 5 1 C3.35 1 1.7 1 0 1 C0 0.67 0 0.34 0 0 Z " fill="#2C2C40" transform="translate(94,125)"/>
<path d="M0 0 C0.33 0 0.66 0 1 0 C1 1.65 1 3.3 1 5 C0.67 5 0.34 5 0 5 C0 3.35 0 1.7 0 0 Z " fill="#000000" transform="translate(637,119)"/>
<path d="M0 0 C0.33 0 0.66 0 1 0 C1 1.65 1 3.3 1 5 C0.67 5 0.34 5 0 5 C0 3.35 0 1.7 0 0 Z " fill="#000000" transform="translate(587,117)"/>
<path d="M0 0 C0.33 0 0.66 0 1 0 C1 1.65 1 3.3 1 5 C0.67 5 0.34 5 0 5 C0 3.35 0 1.7 0 0 Z " fill="#000000" transform="translate(205,111)"/>
<path d="M0 0 C4 1 4 1 4 1 Z " fill="#000000" transform="translate(663,148)"/>
<path d="M0 0 C4 1 4 1 4 1 Z " fill="#000000" transform="translate(600,148)"/>
<path d="M0 0 C4 1 4 1 4 1 Z " fill="#3A3A6A" transform="translate(109,125)"/>
<path d="M0 0 C1 4 1 4 1 4 Z " fill="#000000" transform="translate(502,123)"/>
<path d="M0 0 C1 4 1 4 1 4 Z " fill="#000000" transform="translate(637,107)"/>
<path d="M0 0 C0 3 0 3 0 3 Z " fill="#000000" transform="translate(638,104)"/>
<path d="M0 0 C0.99 1.485 0.99 1.485 2 3 C1.34 3 0.68 3 0 3 C0 2.01 0 1.02 0 0 Z " fill="#000000" transform="translate(203,88)"/>
<path d="M0 0 C1 4 1 4 1 4 Z " fill="#000000" transform="translate(523,87)"/>
<path d="M0 0 C3 1 3 1 3 1 Z " fill="#000000" transform="translate(158,148)"/>
<path d="M0 0 C3 1 3 1 3 1 Z " fill="#000000" transform="translate(471,135)"/>
<path d="M0 0 C3 1 3 1 3 1 Z " fill="#000000" transform="translate(155,135)"/>
<path d="M0 0 C3 1 3 1 3 1 Z " fill="#000000" transform="translate(151,135)"/>
<path d="" fill="#000000" transform="translate(0,0)"/>
<path d="" fill="#000000" transform="translate(0,0)"/>
<path d="" fill="#000000" transform="translate(0,0)"/>
<path d="" fill="#000000" transform="translate(0,0)"/>
<path d="" fill="#000000" transform="translate(0,0)"/>
<path d="" fill="#000000" transform="translate(0,0)"/>
<path d="" fill="#000000" transform="translate(0,0)"/>
<path d="" fill="#151580" transform="translate(0,0)"/>
<path d="M0 0 C2 1 2 1 2 1 Z " fill="#000000" transform="translate(673,148)"/>
<path d="M0 0 C2 1 2 1 2 1 Z " fill="#000000" transform="translate(610,148)"/>
<path d="M0 0 C2 1 2 1 2 1 Z " fill="#000000" transform="translate(477,148)"/>
<path d="M0 0 C2 1 2 1 2 1 Z " fill="#000000" transform="translate(403,148)"/>
<path d="M0 0 C2 1 2 1 2 1 Z " fill="#000000" transform="translate(242,147)"/>
<path d="M0 0 C2 1 2 1 2 1 Z " fill="#000000" transform="translate(239,147)"/>
<path d="" fill="#000000" transform="translate(0,0)"/>
<path d="M0 0 C2 1 2 1 2 1 Z " fill="#000000" transform="translate(603,135)"/>
<path d="M0 0 C2 1 2 1 2 1 Z " fill="#000000" transform="translate(476,135)"/>
<path d="M0 0 C2 1 2 1 2 1 Z " fill="#000000" transform="translate(411,135)"/>
<path d="M0 0 C2 1 2 1 2 1 Z " fill="#000000" transform="translate(675,134)"/>
<path d="M0 0 C2 1 2 1 2 1 Z " fill="#000000" transform="translate(161,134)"/>
<path d="M0 0 C2 1 2 1 2 1 Z " fill="#000000" transform="translate(596,133)"/>
<path d="M0 0 C2 1 2 1 2 1 Z " fill="#000000" transform="translate(163,133)"/>
<path d="" fill="#000000" transform="translate(0,0)"/>
<path d="M0 0 C2 1 2 1 2 1 Z " fill="#404040" transform="translate(334,129)"/>
<path d="" fill="#000000" transform="translate(0,0)"/>
<path d="" fill="#000000" transform="translate(0,0)"/>
<path d="" fill="#000000" transform="translate(0,0)"/>
<path d="" fill="#000000" transform="translate(0,0)"/>
<path d="" fill="#000000" transform="translate(0,0)"/>
<path d="" fill="#000000" transform="translate(0,0)"/>
<path d="" fill="#000000" transform="translate(0,0)"/>
<path d="" fill="#000000" transform="translate(0,0)"/>
<path d="" fill="#000000" transform="translate(0,0)"/>
<path d="" fill="#000000" transform="translate(0,0)"/>
<path d="" fill="#000000" transform="translate(0,0)"/>
<path d="M0 0 C2 1 2 1 2 1 Z " fill="#000000" transform="translate(663,96)"/>
<path d="M0 0 C2 1 2 1 2 1 Z " fill="#000000" transform="translate(403,96)"/>
<path d="M0 0 C2 1 2 1 2 1 Z " fill="#000000" transform="translate(159,96)"/>
<path d="" fill="#000000" transform="translate(0,0)"/>
<path d="" fill="#404080" transform="translate(0,0)"/>
<path d="" fill="#000000" transform="translate(0,0)"/>
<path d="" fill="#000000" transform="translate(0,0)"/>
<path d="" fill="#000000" transform="translate(0,0)"/>
<path d="" fill="#000000" transform="translate(0,0)"/>
<path d="" fill="#000000" transform="translate(0,0)"/>
<path d="" fill="#000000" transform="translate(0,0)"/>
<path d="" fill="#000000" transform="translate(0,0)"/>
<path d="" fill="#000080" transform="translate(0,0)"/>
<path d="" fill="#000000" transform="translate(0,0)"/>
<path d="" fill="#000000" transform="translate(0,0)"/>
<path d="" fill="#000000" transform="translate(0,0)"/>
<path d="" fill="#000080" transform="translate(0,0)"/>
<path d="" fill="#000000" transform="translate(0,0)"/>
<path d="" fill="#000000" transform="translate(0,0)"/>
<path d="" fill="#000000" transform="translate(0,0)"/>
<path d="" fill="#000080" transform="translate(0,0)"/>
<path d="" fill="#000000" transform="translate(0,0)"/>
<path d="" fill="#000000" transform="translate(0,0)"/>
<path d="" fill="#000000" transform="translate(0,0)"/>
<path d="" fill="#0000FF" transform="translate(0,0)"/>
<path d="" fill="#000000" transform="translate(0,0)"/>
<path d="" fill="#000080" transform="translate(0,0)"/>
<path d="" fill="#000000" transform="translate(0,0)"/>
<path d="" fill="#000000" transform="translate(0,0)"/>
<path d="" fill="#000000" transform="translate(0,0)"/>
<path d="" fill="#000000" transform="translate(0,0)"/>
<path d="" fill="#555555" transform="translate(0,0)"/>
<path d="" fill="#000000" transform="translate(0,0)"/>
<path d="" fill="#000000" transform="translate(0,0)"/>
<path d="" fill="#000000" transform="translate(0,0)"/>
<path d="" fill="#000000" transform="translate(0,0)"/>
<path d="" fill="#000080" transform="translate(0,0)"/>
<path d="" fill="#000000" transform="translate(0,0)"/>
<path d="" fill="#000000" transform="translate(0,0)"/>
<path d="" fill="#000000" transform="translate(0,0)"/>
<path d="" fill="#000000" transform="translate(0,0)"/>
<path d="" fill="#000000" transform="translate(0,0)"/>
<path d="" fill="#000000" transform="translate(0,0)"/>
<path d="" fill="#000000" transform="translate(0,0)"/>
<path d="" fill="#000000" transform="translate(0,0)"/>
<path d="" fill="#000000" transform="translate(0,0)"/>
<path d="" fill="#000000" transform="translate(0,0)"/>
<path d="" fill="#000000" transform="translate(0,0)"/>
<path d="" fill="#000000" transform="translate(0,0)"/>
<path d="" fill="#000000" transform="translate(0,0)"/>
<path d="" fill="#000000" transform="translate(0,0)"/>
<path d="" fill="#000000" transform="translate(0,0)"/>
<path d="" fill="#000000" transform="translate(0,0)"/>
<path d="" fill="#000000" transform="translate(0,0)"/>
<path d="" fill="#000000" transform="translate(0,0)"/>
<path d="" fill="#000000" transform="translate(0,0)"/>
<path d="" fill="#000000" transform="translate(0,0)"/>
<path d="" fill="#000000" transform="translate(0,0)"/>
<path d="" fill="#000000" transform="translate(0,0)"/>
<path d="" fill="#000000" transform="translate(0,0)"/>
<path d="" fill="#000000" transform="translate(0,0)"/>
<path d="" fill="#000000" transform="translate(0,0)"/>
<path d="" fill="#000000" transform="translate(0,0)"/>
<path d="" fill="#000000" transform="translate(0,0)"/>
<path d="" fill="#000000" transform="translate(0,0)"/>
<path d="" fill="#000000" transform="translate(0,0)"/>
<path d="" fill="#000000" transform="translate(0,0)"/>
<path d="" fill="#000000" transform="translate(0,0)"/>
<path d="" fill="#000000" transform="translate(0,0)"/>
<path d="" fill="#000000" transform="translate(0,0)"/>
<path d="" fill="#000000" transform="translate(0,0)"/>
<path d="" fill="#000000" transform="translate(0,0)"/>
<path d="" fill="#000000" transform="translate(0,0)"/>
<path d="" fill="#000000" transform="translate(0,0)"/>
<path d="" fill="#000000" transform="translate(0,0)"/>
<path d="" fill="#000000" transform="translate(0,0)"/>
<path d="" fill="#000000" transform="translate(0,0)"/>
<path d="" fill="#000000" transform="translate(0,0)"/>
<path d="" fill="#000000" transform="translate(0,0)"/>
<path d="" fill="#000000" transform="translate(0,0)"/>
<path d="" fill="#000000" transform="translate(0,0)"/>
<path d="" fill="#000000" transform="translate(0,0)"/>
<path d="" fill="#000000" transform="translate(0,0)"/>
<path d="" fill="#000000" transform="translate(0,0)"/>
<path d="" fill="#000000" transform="translate(0,0)"/>
<path d="" fill="#000000" transform="translate(0,0)"/>
<path d="" fill="#000000" transform="translate(0,0)"/>
<path d="" fill="#000000" transform="translate(0,0)"/>
<path d="" fill="#000000" transform="translate(0,0)"/>
<path d="" fill="#000000" transform="translate(0,0)"/>
<path d="" fill="#000000" transform="translate(0,0)"/>
<path d="" fill="#808080" transform="translate(0,0)"/>
<path d="" fill="#000000" transform="translate(0,0)"/>
<path d="" fill="#000000" transform="translate(0,0)"/>
<path d="" fill="#000000" transform="translate(0,0)"/>
<path d="" fill="#000000" transform="translate(0,0)"/>
<path d="" fill="#000000" transform="translate(0,0)"/>
<path d="" fill="#000000" transform="translate(0,0)"/>
<path d="" fill="#000000" transform="translate(0,0)"/>
<path d="" fill="#000000" transform="translate(0,0)"/>
<path d="" fill="#000000" transform="translate(0,0)"/>
<path d="" fill="#000000" transform="translate(0,0)"/>
<path d="" fill="#000000" transform="translate(0,0)"/>
<path d="" fill="#000000" transform="translate(0,0)"/>
<path d="" fill="#000000" transform="translate(0,0)"/>
<path d="" fill="#000000" transform="translate(0,0)"/>
<path d="" fill="#000000" transform="translate(0,0)"/>
<path d="" fill="#000000" transform="translate(0,0)"/>
<path d="" fill="#000000" transform="translate(0,0)"/>
<path d="" fill="#000000" transform="translate(0,0)"/>
<path d="" fill="#000000" transform="translate(0,0)"/>
<path d="" fill="#000000" transform="translate(0,0)"/>
<path d="" fill="#000000" transform="translate(0,0)"/>
<path d="" fill="#000000" transform="translate(0,0)"/>
<path d="" fill="#000000" transform="translate(0,0)"/>
<path d="" fill="#000000" transform="translate(0,0)"/>
<path d="" fill="#000000" transform="translate(0,0)"/>
<path d="" fill="#000000" transform="translate(0,0)"/>
<path d="" fill="#000000" transform="translate(0,0)"/>
<path d="" fill="#000000" transform="translate(0,0)"/>
<path d="" fill="#000000" transform="translate(0,0)"/>
<path d="" fill="#000000" transform="translate(0,0)"/>
<path d="" fill="#000000" transform="translate(0,0)"/>
<path d="" fill="#000000" transform="translate(0,0)"/>
<path d="" fill="#000000" transform="translate(0,0)"/>
<path d="" fill="#000000" transform="translate(0,0)"/>
<path d="" fill="#000000" transform="translate(0,0)"/>
<path d="" fill="#000000" transform="translate(0,0)"/>
<path d="" fill="#000000" transform="translate(0,0)"/>
<path d="" fill="#000000" transform="translate(0,0)"/>
<path d="" fill="#000000" transform="translate(0,0)"/>
<path d="" fill="#000000" transform="translate(0,0)"/>
<path d="" fill="#000000" transform="translate(0,0)"/>
<path d="" fill="#000000" transform="translate(0,0)"/>
<path d="" fill="#000000" transform="translate(0,0)"/>
<path d="" fill="#000000" transform="translate(0,0)"/>
<path d="" fill="#000000" transform="translate(0,0)"/>
<path d="" fill="#000000" transform="translate(0,0)"/>
<path d="" fill="#000000" transform="translate(0,0)"/>
<path d="" fill="#000000" transform="translate(0,0)"/>
<path d="" fill="#000000" transform="translate(0,0)"/>
<path d="" fill="#000000" transform="translate(0,0)"/>
<path d="" fill="#000000" transform="translate(0,0)"/>
<path d="" fill="#000000" transform="translate(0,0)"/>
<path d="" fill="#000000" transform="translate(0,0)"/>
<path d="" fill="#000000" transform="translate(0,0)"/>
<path d="" fill="#000000" transform="translate(0,0)"/>
<path d="" fill="#000000" transform="translate(0,0)"/>
<path d="" fill="#000000" transform="translate(0,0)"/>
<path d="" fill="#000000" transform="translate(0,0)"/>
<path d="" fill="#000000" transform="translate(0,0)"/>
<path d="" fill="#000000" transform="translate(0,0)"/>
<path d="" fill="#000000" transform="translate(0,0)"/>
<path d="" fill="#000000" transform="translate(0,0)"/>
<path d="" fill="#000000" transform="translate(0,0)"/>
<path d="" fill="#000000" transform="translate(0,0)"/>
<path d="" fill="#000000" transform="translate(0,0)"/>
<path d="" fill="#000000" transform="translate(0,0)"/>
<path d="" fill="#000000" transform="translate(0,0)"/>
<path d="" fill="#000000" transform="translate(0,0)"/>
<path d="" fill="#000000" transform="translate(0,0)"/>
<path d="" fill="#000000" transform="translate(0,0)"/>
<path d="" fill="#000000" transform="translate(0,0)"/>
<path d="" fill="#000000" transform="translate(0,0)"/>
<path d="" fill="#000000" transform="translate(0,0)"/>
<path d="" fill="#000000" transform="translate(0,0)"/>
<path d="" fill="#000000" transform="translate(0,0)"/>
<path d="" fill="#000000" transform="translate(0,0)"/>
<path d="" fill="#000000" transform="translate(0,0)"/>
<path d="" fill="#000000" transform="translate(0,0)"/>
<path d="" fill="#000000" transform="translate(0,0)"/>
<path d="" fill="#000000" transform="translate(0,0)"/>
<path d="" fill="#000000" transform="translate(0,0)"/>
<path d="" fill="#000000" transform="translate(0,0)"/>
<path d="" fill="#2A55AA" transform="translate(0,0)"/>
<path d="" fill="#000000" transform="translate(0,0)"/>
<path d="" fill="#000000" transform="translate(0,0)"/>
<path d="" fill="#000000" transform="translate(0,0)"/>
<path d="" fill="#000000" transform="translate(0,0)"/>
<path d="" fill="#000000" transform="translate(0,0)"/>
<path d="" fill="#000000" transform="translate(0,0)"/>
<path d="" fill="#404080" transform="translate(0,0)"/>
</svg>
